<svg xmlns="http://www.w3.org/2000/svg" width="2560" height="1440" version="1.0" viewBox="0 0 1920 1080"><path d="M0 178.3v178.4l16.3 1.2c8.9.6 23 1.4 31.2 1.7 17.2.5 22.4 1.1 24.1 2.5.8.7 1.4.7 1.9-.1.8-1.3 11.3-.1 14.1 1.7 1.4.9 7.7 1.5 21 1.9 10.4.3 20.1.7 21.7.8 1.5.1 3.7.3 5 .4 2.2.2 2.2.2-.3 1.5-4.5 2.4-9.8 2.8-10.9.9-.8-1.3-1.2-1.4-2.5-.3-1 .9-1.6 1-1.6.2 0-.7-.7-.7-2.5.1-1.9.9-2.8.9-3.7 0-.7-.7-4.5-1.2-9.4-1.2-5.7 0-8.4-.4-8.7-1.3-.3-1-.9-1-2.6 0-1.1.7-3 1.3-4 1.3-1.1 0-2.5.8-3 1.7-.9 1.6-1.3 1.5-3.9-1.5-2.8-3.3-3-3.3-10.3-3.2-4.1.1-8.6.2-10.1.1-8.1-.2-11.8-.1-16.3.6-3.3.6-6.2.4-8.6-.4-2-.6-4.6-.9-5.8-.6-2.5.6-2.9 3.3-.4 3.3.9 0 1.4.2 1.1.5-1.2 1.2-5.7-.8-6.3-2.8-.6-1.7-.8-1.8-1.1-.6-.4 1.3-1.3 1.4-5 .9-2.6-.4-5-1.3-5.4-2-.5-.8-1.5-1-2.6-.5-1.8.6-1.7.8.4 1.6 1.2.4 2.2 1.5 2.2 2.4 0 2.1-3.7 1.9-4.9-.3-.6-.9-1.1-1.1-1.1-.5 0 .8-1.5 1.3-4 1.3H0v712h1920V938.2l-5-1.1c-2.8-.6-6-1.1-7.1-1.1s-2.9-.5-4-1.1c-1.4-.7-2.4-.7-3.3 0-.9.8-2 .7-3.9-.2-3.6-1.6-3.4-2.6.6-2.3 1.7.1 4-.5 4.9-1.3 1.5-1.1 2.9-1.2 8.4-.3 3.6.6 7.2.8 8 .5 1.8-.7 2-10.9.2-11.7-1-.5-1-.7-.1-1.2 1-.4 1.3-28.5 1.3-135.5V648h-3.9c-2.2 0-4.1.5-4.3 1.2-.3.9-1.2.9-3.6-.1-1.8-.7-4.1-1.1-5.2-.8-1.3.3-1.8.1-1.3-.5.4-.8-1.2-.9-5-.5-3.1.3-5.9.2-6.2-.2-.8-1.3-6.6-2.2-8.2-1.2-1 .5-4.2.3-8.1-.6-4.2-1-7.2-1.2-8.6-.6-2.9 1.3-12.2.9-13.9-.5-1.1-1-2.1-1-4.1-.1-1.9.9-2.9.9-3.9.1-.9-.7-1.7-.8-2.3-.2-1.3 1.3-13-.6-17.2-2.8-3.2-1.6-3.4-1.6-4.4.2-.8 1.4-1.2 1.5-1.8.5-1.1-1.7-5.2-2.2-6.1-.7-.6.9-1.7.7-4.8-.6-2.2-1-4.7-1.6-5.5-1.3s-1.7.1-2-.6c-.3-.9-.7-.8-1.4.2-.8 1-2 1.1-5.8.3-3.3-.7-5.3-.7-6.1 0s-1.9.5-3.4-.6c-1.6-1.1-3.5-1.3-6.7-.9-3.6.5-4.8.3-5.8-1.2-1.2-1.6-1.8-1.6-5.9-.6-3.3.8-5.1.8-6.5.1-1.1-.6-2.5-.8-3.1-.4-1.6 1-12.9.7-16.6-.5-1.9-.5-3.5-.6-3.8-.1s-1.1.7-1.8.4c-2.1-.8-6.8 2.1-5.6 3.3q1.05 1.05-1.5 1.5c-1.8.4-2.6.1-2.6-.8 0-.8-.7-1.4-1.5-1.4-1.1 0-1.5-.9-1.3-3 .1-1.6.5-3 .9-3 .3 0 .9-1.8 1.3-4.1.5-3.2 1-4 2.3-3.5 2 .8 5.7-2.9 4.9-4.9-.3-.8-1.2-1.2-2-.9-1.2.4-1.4-.3-1.3-3.3.2-4.3-1.6-6.2-2.1-2.2-.2 1.8-1.6 3.4-4.7 5.3-4.4 2.8-7 6.8-8.1 12.5-1 4.8-3.4 4-3.3-1.2.1-3.6-2.2-12.6-5.1-19.2-.5-1.1-1.2-3.1-1.6-4.5-1-3.9-2.2-4.9-6.7-5.4-2.3-.3-22.6-1-45.2-1.6-22.5-.6-47.5-1.5-55.5-2-36.8-2.4-53-3.2-58.5-3-11.3.4-116.9 0-143-.6-16-.3-26.5-1-27.3-1.6-.7-.6-2-2.6-2.8-4.4-.9-1.9-2-3.4-2.5-3.4-1.3 0-1.1.8 1.2 5.4 1.2 2.2 2.6 4.9 3.1 6 .5 1 .6 2.1.1 2.5-.4.3-1 1.5-1.1 2.6-.5 2.9-2.2 4.4-2.2 1.9 0-1.5-.2-1.6-.9-.5-.8 1.2-1.2 1.2-2.5.2-2.8-2.4-8.8-5-10.1-4.4-.9.3-1.7-.7-2.4-2.9-.5-1.8-1-2.7-1-2.1-.1.7-.8 1.3-1.7 1.3-1 0-1.4-.6-1.1-1.4s-.1-2.2-.8-3.3c-1-1.4-1.6-1.5-2.6-.6-.9.9-1.7.5-3.6-1.5-2.8-3-6.3-9.4-6.3-11.5 0-2.4-3.1-7.7-4.5-7.7-.7 0-1.6 1-2 2.2-1.3 4.3-2.6-3.1-1.9-10.6.4-4.2.2-7.1-.4-7.5-1.3-.8-5.5-14.8-5.6-19.1-.1-1.9-.6-3.5-1.1-3.5-2-.1-5-2.5-4-3.2 1.5-1.2 3.7-5.4 3.1-6-.3-.3-1.6.8-3 2.3-1.8 2.1-2.5 2.4-2.6 1.3 0-2.6 4.6-7.3 6.4-6.6 2.6 1 3 3.6 1 5.9-1.9 2.1-1.9 2.1.3.9 2.9-1.5 3.6-1.4 2.9.4-.3.8 0 1.5.7 1.5.7.1 2.1 1.2 3.2 2.6s3 3.7 4.2 5.2c5.2 6.2 6.6 7.9 9.8 12.4 1.9 2.6 3.5 5.1 3.5 5.6 0 .6 1.3 2.4 3 4.2 1.6 1.8 3 3.6 3 4 0 .5 1.8 3.1 4 5.9s4 5.7 4 6.5c0 1.6 2.9 5 3.7 4.3.6-.7-5.1-10.8-9.9-17.7-2.4-3.3-5.1-7.5-6-9.2s-2.1-3.4-2.5-3.7c-.5-.3-3.3-4-6.3-8.1-2.9-4.1-5.9-8-6.5-8.5-.6-.6-2-2.5-3-4.3-1.1-1.7-2.2-3.2-2.6-3.2-1 0-2.9-5.9-2.9-9.1 0-2.8-4.2-6.9-7-6.9-2.7 0-3.9-3.6-4-11.1 0-8.2-.5-9.6-2.8-7.6-1.3 1-1.4.9-.3-1.1.7-1.3 1.8-2.1 2.4-1.9.7.2 2.3-1.2 3.6-3.2 1.4-2 4.9-6.4 7.9-9.9l5.5-6.2-.5-8.3c-.2-4.5-1-9.2-1.8-10.3-1.2-1.9-1-2.5 2.5-6.2 5-5.5 6.7-8 6.3-9.4-.2-.6-2.3 1.2-4.7 4.1-2.4 2.8-4.6 5.1-5.1 5.1-.4 0-1.1-1.5-1.4-3.4-.4-1.9-2-5.1-3.6-7.1-1.7-2.1-3-4.1-3-4.4 0-.4-3.8-4.7-8.5-9.6-4.7-5-8.7-10.1-9.1-11.5-.3-1.4-1.1-3.8-1.6-5.4-.9-2.3-.8-3.5.7-6.2 1-1.9 2.4-3.4 3.2-3.4.7 0 1.3-.5 1.3-1 0-.6.5-1 1.2-1 .6 0 3.1-.9 5.4-2s6.8-2.5 10-3.1c3.3-.6 8-1.7 10.7-2.5 2.6-.8 5.1-1.3 5.6-1s1.2-.4 1.6-1.7c.6-1.9.8-1.9 1.2-.5.2 1 1 1.8 1.6 1.8 2 0 6.1 14.7 5.9 21-.1 3-1.1 8-2.3 11-4 10.3-5 13.3-4.7 13.6.2.1 4.4-.1 9.3-.5 4.9-.5 10.2-.7 11.7-.4 2 .3 3-.1 3.5-1.3.5-1.5.8-1.4 1.6.7.6 1.5 1.1 1.9 1.4 1.1.4-1 .8-1 1.9-.1.7.6 3.7 1.3 6.6 1.5 2.9.1 7.8.6 10.8.9l5.5.6-2.5-2.4c-10.9-10.7-37.5-38.3-41.2-42.7-2.6-3.1-5.2-6.8-5.7-8.4-.7-1.8-1.5-2.5-2.3-2-.7.4-3.6 2.3-6.4 4-6.3 4-10.5 5.1-25.9 6.8-12.3 1.3-14.5 1.2-14.5-.8 0-1.2 4.5-3.6 6.8-3.6.7 0 1.1-.4.8-.8-.3-.5-1.9-.7-3.6-.4-3.9.6-4.1-1.8-.3-5.6 6.6-6.5 9.9-14.9 7.8-19.9-.6-1.3-1.2 0-2.2 4.7-1.6 7.6-5.1 13.2-10.1 15.8-2.1 1.1-5.7 3.1-8.2 4.4s-6 3.2-7.8 4.2c-1.8.9-3 2.1-2.7 2.6.7 1.1 8.3-2.6 11.1-5.4 1.7-1.7 1.8-1.7 3-.1.7.9 1 2.3.7 3.1-.3.7.9 3.5 2.6 6.1 4.5 6.7 3.8 11.3-1.6 11.3-3 0-3 2.7 0 6.8 3.7 5.1 12.9 15.6 14.8 17 1 .7 3.7 4.5 6 8.5 2.2 4 5 8.5 6.1 10 1.1 1.6 2.2 3.9 2.4 5 .2 1.2.8 4.4 1.3 7.2 2.6 13.5.3 21.6-7.4 26.3-2.4 1.5-5.1 3.9-5.9 5.4-1 1.6-4.3 4-8.1 5.8-3.6 1.7-6.5 3.7-6.5 4.5 0 2-2.1 3-3 1.5-.5-.9-1.9-1.1-3.9-.7-2.5.5-3.3.3-3.8-1.1-1-2.6-1.9-2.9-6.5-2.3-4.6.7-4.5.5-6.8 11.1-1.4 6.2-3.4 10-5.4 10s-2.6-2.3-1.5-6.6c1.9-8.3.4-25.7-1.5-17.9-.4 1.4-.4 3-.1 3.5.7 1.1-1.4 13-2.5 14.5-.4.5-1 2.6-1.4 4.7-.6 3.4-.9 3.7-5.9 4.6-10.2 2.1-14.7 3.5-14.7 4.9 0 .9-1.4 1.3-4.4 1.3-2.4 0-4.6.5-4.8 1.1-.3.8-3.7 1.1-10.3 1-5.5-.1-10.1-.4-10.3-.6s.2-1.8.9-3.4c1-2.3 2-3.1 4-3.1 3.8 0 9.1-2 8.6-3.4-.3-.7-2.4-1-5.9-.8-3.3.2-5.9-.1-6.3-.7-.9-1.6-4.2-1.4-13.6 1-4.9 1.2-8.5 1.7-8.7 1.1-.1-.5-1.2-.8-2.2-.5-1.1.3-4.9.2-8.5-.2-6.2-.6-6.5-.8-6.5-3.3 0-2-.3-2.3-.9-1.3-.5.8-.7 2-.4 2.8.6 1.6-.9 1.7-2.4.2-.6-.6-4.1-1.4-7.9-1.8-6-.6-6.5-.9-4-1.6 7-1.9 10.3-5.1 15.6-15 1.8-3.3 3.6-6.5 4.1-7.1s2-4.1 3.4-7.8c3.3-8.7 3.3-17.2 0-30.8-1.4-5.8-2.5-13.3-2.5-17.1s-.5-7.7-1.1-8.9c-.6-1.1-.8-2.2-.6-2.5.3-.3 1.3.9 2.2 2.6.9 1.8 2 2.9 2.5 2.6.6-.4 1-.2 1 .3 0 1.2 5.9 7.7 6.5 7.1.9-1-.8-4.9-2.1-4.9-.8 0-1.4-.6-1.4-1.3 0-1.5-7.6-11.9-9.6-13-.8-.4-1.4-1.5-1.4-2.2 0-.8-.3-1.4-.7-1.3-.5.1-2.7-1.7-4.9-4-4.1-4.2-7.4-5.4-7.4-2.9 0 .8 1.1 2.4 2.5 3.7s2.5 3.4 2.5 4.8c0 2.5 2.9 8.2 4.2 8.2 1.5 0 .8 3.1-.8 3.7-1.2.4-1.5 1.8-1.2 6l.3 5.5-5 1.9c-2.7 1-5.8 1.9-6.7 1.9-3.3 0-3.3 4.2 0 5.4 3.4 1.3 7.2 3.7 7.2 4.7 0 .5.5.8 1.1.7.6-.2 1.4.3 1.7 1.1.2.8.1 1.2-.4.9s-4.4-2.1-8.6-4.1c-4.3-2-7.8-4.1-7.8-4.7 0-.5-.7-1-1.5-1s-2.3-1-3.5-2.2c-3.1-3.4-3.5-1.3-.3 2.2 2.9 3.3 9.1 7.6 17.8 12.3 5.5 3 5.4 2.8 5.4 16.2 0 6.9-.6 9.8-2 9-.5-.4-.9.5-.9 1.9 0 1.6-.7 2.7-1.9 3.1-2.1.6-14.7-3.1-15.7-4.6-.3-.5-1.4-.9-2.5-.9s-2.2-.7-2.5-1.5c-.4-.8-1.5-1.5-2.5-1.5-1.1 0-2.2-.6-2.4-1.3-.3-.6-1.9-1.2-3.5-1.3-1.7-.1-3.8-.8-4.8-1.6-.9-.9-2.2-1.3-2.9-1.1-.6.2-1.4-.1-1.8-.6-.3-.6-1.5-1.1-2.6-1.1s-1.9-.7-1.9-1.6c0-1.4-.3-1.4-1.5-.4-1 .9-1.5.9-1.5.1 0-.6-.9-1.1-2-1.1s-2.3-.7-2.7-1.6c-.3-.9-1.3-1.4-2.4-1.1-1.2.3-2.6-.4-3.9-2-1.3-1.7-2.5-2.3-3.8-1.9-1.2.4-2.5-.1-3.7-1.4-1-1.1-2.6-2-3.7-2-1 0-1.8-.5-1.8-1 0-.6-1.3-1-2.8-1-1.6 0-3.8-.9-5.1-2.1-1.2-1.1-2.9-1.8-3.7-1.5-.7.3-1.4.1-1.4-.4 0-.6-.7-1-1.5-1s-1.5-.5-1.5-1c0-.6-.9-1-2.1-1-2.2 0-8.3-4.9-18.7-14.8-3.5-3.4-6.9-6.2-7.3-6.2-.5 0-.9-.6-.9-1.4s-1.4-2.2-3.2-3c-3.9-2-3.7-2-3.1.4.8 2.9-.7 2.4-4.3-1.3s-4.9-7-3.7-9.2c.8-1.3 1.2-1.3 3.1.5 1.2 1.2 2.2 2.4 2.2 2.8 0 1 22.2.8 23.9-.2 2.3-1.5 16.9-2.1 30.4-1.4 12.8.7 12.9.7 19.5 4.8 3.7 2.2 9 6 11.9 8.3 7.7 6.3 14.2 11.2 15.3 11.5.6.2 1-.3 1-1.2s-.6-1.6-1.3-1.6-1.8-.9-2.5-2-1.6-2-2.1-2-3.3-2.2-6.2-5c-3-2.7-6-5-6.7-5s-1.5-.7-1.8-1.5c-.4-.8-1-1.5-1.5-1.5-.9 0-2.9-1.5-8.2-6.2-3-2.7-3.1-2.8-1.2-4.3 2.5-1.8 5.5-2.1 3.7-.3-1.6 1.6-1.5 2.8.1 2.8.8 0 2-1.2 2.8-2.8.8-1.5 1.7-2.9 2-3.2 1.6-1.4 2.9-5.3 2.4-7.1-.7-2.1-.7-2.1 1.4 0 2.2 2.2 2.8 4.1 1.3 4.1-.5 0-1.4 1.1-2 2.5-1 2.1-.9 2.5.3 2.5.8 0 1.5-.8 1.5-1.8s.5-2.3 1.1-2.9c1.4-1.4.1-8.3-1.7-8.3-1.6 0-1.9-3.6-.5-4.5.6-.3 1.4.3 2 1.2.9 1.6 1 1.6 1.1.1 0-.9-.6-1.8-1.3-2.1-.8-.3-.4-1.3 1.3-3.1 2-2.2 2.2-3 1.2-4.4-.7-.9-1.5-2.4-1.8-3.2s-1-2.3-1.5-3.2c-1.2-2.3-1.2-4.1.1-3.3.6.3.7-.1.4-1-.5-1.1 0-1.8 1.5-2.2 1.1-.3 2.1-1 2.1-1.5 0-.6-.7-.8-1.5-.4-1.1.4-1.5-.1-1.5-1.8 0-1.4-.4-2.6-.9-2.8s-1.2-1.7-1.5-3.4c-.6-2.9-.5-3.2 2.4-3.7 3.9-.8 13-9.9 13-13 0-1.2.9-2.8 2-3.5s2-2 2-2.9.7-2.5 1.7-3.5c.9-1 1.2-1.8.7-1.8-.9 0-2.1 1.3-7.8 8.5-1.2 1.6-2.1 3.6-1.9 4.2.3.7-.6 1.7-1.9 2.2s-3 1.6-3.7 2.5-2 1.6-2.7 1.6c-1.9 0-.7-2.9 2.7-6.3 1.6-1.6 4.9-7 7.4-12.1l4.6-9.3 13.2.3c10.6.3 14.5 0 19.7-1.5 7.7-2.3 23-8 24.6-9.3.6-.4 1.4-3.1 1.6-5.8.4-3.9 1.1-5.4 3.2-7.1 2.7-2.1 3.4-6 1.7-8.8-.8-1.2-1.2-1.2-2.4-.2-2 1.6-2.5.6-3.3-6.3-.5-3.9-.3-5.6.5-5.6 1.5 0 1.4-3-.4-6.4-1.7-3.2-1.1-5.3 1.1-3.5s1.8-2-.6-5.6c-1.2-1.7-2.7-4.5-3.5-6.3-1.9-4.5-2.9-4-2 1 1.3 8 1.5 20.1.3 21.5-.8 1-.7 2.5.1 5.6.7 2.3 1.2 4.7 1.1 5.2-.5 2.4.2 3.6 2.5 4.5 1.5.6 2.5 1.7 2.5 3 0 1.1-.2 2-.5 2-1.7 0-7.5-3.1-7.5-3.9 0-1.9-4.3-1.2-6.7 1.1-1.3 1.2-2.3 1.6-2.3 1 0-.7.5-1.2 1.2-1.2.6 0 .9-.2.7-.5-.7-.6-9.9 2.3-11.6 3.6-1 .9-2.7.9-6.9-.1-3.7-.9-5.8-1-6.2-.3-.8 1.1-8.1 1.1-9.9 0-2.1-1.3-12.2.4-12.6 2.2-.2.9-.8-.3-1.2-2.7-.4-2.3-1.1-4.2-1.5-4.2-.8 0-2 7.8-2.5 15.5-.1 2.1-.8 4.1-1.4 4.3s-1.1 1.2-1.1 2.2c0 3.5-1.7 3-4.6-1.3-1.6-2.3-3.5-4.6-4.1-5-.7-.4-1.3-1.9-1.3-3.2 0-1.5-.6-2.5-1.4-2.5s-2.1-2.3-3.2-5.8c-1.2-3.6-3-6.8-5.1-8.8-1.8-1.7-3.3-3.6-3.3-4.3 0-.6-.4-1.1-1-1.1-1 0-.2 3.1 1.1 4 .3.3 1 2.5 1.3 5l.7 4.5-1.6-3c-.9-1.6-1.9-3.2-2.3-3.5-.8-.6-3.9-6.2-8.1-14.6-1.6-3.3-3.7-6.6-4.5-7.3-.9-.8-1.6-1.8-1.6-2.3 0-1.3-5.8-6.9-8.9-8.7-11.2-6.1-13.1-6.4-18.9-3-1.8 1-3.6 1.9-3.9 1.9-1.1 0 2-3 3.1-3 .6 0 2.2-.9 3.6-2 3-2.4 5.6-2.5 10.3-.5 2 .8 3.8 1.5 3.9 1.5.2 0 .2-2 0-4.5-.4-5-1.1-5.5-3-2.5-1.1 1.7-1.9 2-5 1.4-2-.4-3.9-.8-4.1-1-.3-.3 3.7-8.9 6.3-13.2 1.9-3.2 7.5-9.1 12.6-13.2 7.1-5.8 9.5-7.9 8.9-8-.3 0-2.9 1.8-5.9 4-2.9 2.2-6.8 4.2-8.6 4.6-1.9.3-14.5.1-28.1-.6-28.5-1.3-129.6-2.8-233.3-3.4-69.9-.4-122.7.6-172 3.4-10.7.6-25.1 1.3-32 1.6-15.6.7-16.9.9-17.9 3.8-.5 1.2-1.9 10.2-3 19.8-1.8 15-2.1 23.2-2.1 56 0 23.6.6 45.4 1.5 56.8.8 10.2 2.1 29.3 3 42.5s1.8 25.5 2.1 27.3l.5 3.3 11.5-.2c13.5-.2 15.4-.5 15.4-2.9 0-1.5 2-1.8 21.3-2.4 24.3-.7 34.7-1.5 34.7-2.6 0-.4-1.7-1.1-3.7-1.5s-4.7-1.5-6-2.5-4.8-2.6-7.8-3.6c-3-.9-5.5-2.1-5.5-2.5 0-.5-1.7-1.8-3.7-2.8-2.1-1.1-5.7-3.8-8-5.9-3.3-2.9-4.3-4.5-4.3-6.9 0-4.4-.9-6.3-3.1-6.3-2.1 0-3.9-2.8-3.9-6.1 0-1.2-.7-2.7-1.5-3.3s-2.1-3.7-2.9-6.9c-.9-3.5-2.8-7.3-4.5-9.3-1.7-1.8-3.8-5.7-4.8-8.5-1.2-3.3-3.6-6.9-7-10.4-2.9-3-5.3-6-5.3-6.8 0-2.8-2.2-7.7-3.5-7.7-.7 0-1.5-1.8-1.9-4.1-.6-3.9-.8-4.1-2.1-2.3-1.6 2.1-1.6 2-2.1-1.6-.2-1.4-.9-5.2-1.5-8.5-2.9-13.9-.6-66.2 3.6-85.1.8-3.6 5.1-4.7 22-5.5 26.6-1.2 86.2-1.1 90.9.3 5.1 1.4 5.4 1.7 3.6 2.9-1.1.7-.9.8 1 .7 2.2-.3 2.6.2 3.1 3.7.3 2.2.7 3.4.8 2.7 0-.7 1.5-1.2 3.6-1.2s3.5.5 3.5 1.2c0 .9.4.8 1-.2s.7-.2.3 2.5c-.6 3.7-.5 3.9 1.1 2.5 1.6-1.3 2-1.2 3.2.5.8 1 1.4 2.7 1.4 3.6 0 2.7 1.1 4.9 2.2 4.3 1.1-.7 5 2.5 4.3 3.7-.3.4.2 1.5 1.1 2.4 1.2 1.1 1.9 1.3 2.4.5.4-.6 1.1 0 1.8 1.5 1.5 3.3 1.5 3.5-.3 3.5-.8 0-1.5.4-1.5 1 0 .5.4 1 .9 1 .6 0 1.3-.5 1.6-1 .3-.6 1.7-1 3-1 2.6 0 4.5 2.5 4.5 5.9 0 1.2.5 2.1 1 2.1 1.8 0 1.1 6.1-1 8.7-2 2.6-2.7 7.3-1.1 7.3.5 0 1.2 3.5 1.6 7.7s1.3 10.1 2.1 13c.8 3 1.4 6.7 1.4 8.3 0 2.2.5 3 1.8 3 1.6 0 3.8 4.2 5.7 10.8.3 1.2 1.6 2.7 2.7 3.3 1.5.8 1.7 1.3.8 1.9s-.8 1 .7 1.8c1.1.6 2.5 2.9 3.3 5.1.7 2.3 1.8 4.1 2.4 4.1s2.2 1.4 3.6 3.1 3.7 3.7 5.3 4.5c1.5.8 2.7 2.3 2.7 3.4s.4 2 .9 2 1.2.8 1.6 1.9c.3 1 1.6 3 2.8 4.3 1.2 1.4 3.1 4.3 4.2 6.4s3 4.3 4.1 4.9c3.6 1.8 5.5 3.7 5 5.1-.3.7.1 1.8.9 2.4 1 .8 1.4.8 1.7-.2.3-.7.8.6 1.1 3 .4 2.4 1.3 4.2 2 4.2s1.8 1.5 2.5 3.2c.8 2.2 1.5 2.9 2 2.1.4-.7.9 1.1 1 4 .1 2.8.5 5.9.7 6.8.8 2.3-2.9 2.7-31.9 3.5l-24 .7-3.2 3.5-3.2 3.5-22.8.3c-30.4.5-45.4 2.4-46.8 5.9-.8 2.2 2.3 3.4 7.4 2.9 2.5-.2 64.2-.5 137.1-.7s133.1-.7 133.6-1c.6-.4 14.6-.7 31.1-.7l30-.1 4.9 4.9c2.7 2.7 6.2 5.2 7.8 5.6 3.3.8 7 3.4 16 11.2 8.8 7.5 14.1 10.6 34.2 19.9 5.2 2.4 7.8 7 6.3 11-2.4 6.3-1.4 9.7 5.5 18.8 3.6 4.8 6.9 8.7 7.4 8.7s1.2 2.5 1.6 5.5c.5 4.6 1.2 5.9 3.6 7.7s2.9 2.9 2.9 6.2c0 2.3-.7 5.4-1.5 7-1.9 3.5-1.9 6.4 0 9.6.8 1.4 1.4 3.6 1.5 4.9 0 3.8 6.1 22.4 8 24.6 1 1.1 2.9 4.1 4.4 6.7 1.5 2.5 3.3 4.9 4.1 5.2s1.5 1.1 1.5 1.8.9 2.4 2 3.8 2 3.2 2 4.1.9 2.4 2 3.4c2.9 2.6 2.5 3.3-1.6 2.6-2-.3-8-.2-13.3.2s-26.2.9-46.6 1.1c-20.3.2-47.3.9-60 1.5-53.3 2.6-69.9 3.2-106 3.7-34.5.6-39.9.5-58.5-1.5-23.2-2.4-39.4-3.9-46-4.3-4.3-.3-4.5-.2-6.4 3.7-1.9 4.1-3 7.7-4.7 15.5-.5 2.5-1.4 4.6-1.9 4.8-.6.2-1 2.2-1 4.5 0 3.1-.3 3.8-1.1 3-.9-.9-.9-2.3-.1-5.5.6-2.4 1.1-7.6.9-11.6-.2-6.1.1-7.5 1.6-8.3 2.1-1.2 2.2-2.9.2-2.9-.8 0-1.5-.7-1.5-1.5s-.6-1.2-1.3-.9c-.7.2-2.2-.4-3.2-1.6-2.2-2.5-3.2-2.5-3.8-.3-.4 1.7-.5 1.7-.6 0 0-.9-.8-1.7-1.6-1.7-3.9 0-13.8-3.5-14.2-5-.3-1.2-2.5-2-8.1-2.9-4.9-.7-8.3-1.8-9.7-3.1-1.2-1.1-3.1-2-4.4-2-3 0-1.8-1.7 1.9-2.5 3.6-.8 3.1-2.1-.9-2.7-1.9-.3-3.2 0-3.5.9-.3.8-2 1.2-4.3 1.2l-3.8-.2 4-.7 4-.7-3.7-.2c-2.7-.1-3.8-.6-3.8-1.6 0-1.1-1.1-1.5-4-1.5s-4-.4-4-1.5-1.1-1.5-4-1.5c-3.6 0-4-.3-4-2.5 0-2.5-.1-2.5-8-2.5h-8v-8h-4c-3.3 0-4 .3-4 2s-.7 2-4.4 2c-2.5 0-4.8-.5-5.1-1.1-1.2-1.8-5.7-3.1-6.9-1.9-1.3 1.3-4.6 1.3-4.6 0 0-.6 1.1-1 2.5-1 2.3 0 2.5-.4 2.5-4 0-4 0-4-3.9-4-2.9 0-4 .5-4.3 1.7-.3 1.5-.4 1.5-1.7 0-1.2-1.5-1.1-1.7.3-1.7.9 0 1.6-.7 1.6-1.5 0-1.1-1.1-1.5-4-1.5-3.6 0-4-.3-4-2.5 0-2.4-.2-2.5-6.4-2.5-7.1 0-8.4-.9-9.3-6.3-.5-3.3-.4-3.5 3.1-4.1 4.4-.8 3.8-2.6-.8-2.6-1.9 0-3.9-.7-4.6-1.5s-1.7-1.5-2.3-1.5c-1.5 0-3.6-3.3-3.7-5.8 0-2.2-.2-2.2-12.9-2.2h-12.9l-3.1-3.1c-1.7-1.7-3.1-3.5-3.1-4s-3.6-.9-8-.9c-7.3 0-8-.2-8-2 0-1.7-.7-2-4-2s-4-.3-4-2c0-1.8-.7-2-8-2-6.7 0-8 .3-8 1.6 0 1.4-.9 1.6-5.2 1.2-5.3-.6-10.8.6-10.8 2.3 0 .5-.9.9-2 .9s-2 .4-2 .9-1 1.1-2.3 1.3c-2 .4-2.3.1-1.9-1.9.2-1.3.2-2.3-.2-2.3-1 0-5.6 7.8-5.6 9.6 0 1.5-2.2 4.4-3.4 4.4-.3 0-1.5-.9-2.6-2-1.4-1.4-2.8-1.8-5-1.5-1.6.3-4.3.7-6 1-1.7.2-3.5-.1-4.3-.9-1.2-1.2-4.5-2-11.7-3-2.7-.3-2.9-1.1-1.7-8 .6-3.6.5-3.8-1.6-3.2-1.2.3-2.9.6-3.8.6-1 0-2 1.1-2.3 2.5-.4 1.4-1.1 2.5-1.6 2.5-1.2 0-1.3-1.3-.1-2.6 1.3-1.4 2.5-7.8 1.3-7-1.6.9-7.2-.5-7.2-1.9 0-1.9-3.8-4.8-5.5-4.1-.8.3-1.8 1.4-2.2 2.3-1 2.6-2.2 3.2-5.8 2.6-3.8-.6-4.2 0-8 9.5-3.1 8-4.4 9.5-5.2 6.3-.4-1.6-1.1-2-2.5-1.5-2.2.7-2.1-.4.8-7.5 2.6-6.3 1.9-8.1-4.8-11.5-3.9-1.9-5.8-1.6-5.8 1.2 0 1-1 3.5-2.1 5.7-1.6 2.9-1.9 4.3-1.1 5.6 1.1 1.7.6 2.9-1 2.9-.4 0-.8-.7-.8-1.5 0-1.9-1.4-1.9-3.3 0-1.7 1.7-2.7 1-2.7-1.9 0-1.5-.3-1.7-1.2-.8-.7.7-1.6 1.2-2 1.2-1.2 0-1-5.8.2-6.5.5-.3 1-1.9 1-3.5 0-2.4-.5-3.1-2.7-3.5-1.6-.4-3.7-1.1-4.7-1.7-1.6-.8-2.2-.6-3.3.8-2.6 3.5-6.3 11.6-5.7 12.5.3.5-.4.9-1.6.9-1.6 0-2-.4-1.5-1.9.3-1.1.1-2.2-.5-2.6-.5-.3-1 .1-1 .9 0 2-7 2.3-7 .3 0-.6-.5-.4-1.1.5-.5 1-2 1.7-3.2 1.7-1.8-.1-1.9-.2-.4-.6s1.7-1.1 1.2-4.2c-.4-2.4-.1-4.7.9-6.6 2.1-4 2-5.2-.6-5.8-2.3-.7-5.8.8-5.8 2.4 0 .6-.9 3.2-2.1 5.9-1.5 3.4-2.5 4.7-3.5 4.3-1.2-.4-1.4 0-.8 2.1.4 1.7.2 2.6-.6 2.6-1.3 0-.6-11.4 1.1-15.7 1.2-3.2 1.4-3.2-15.4-4.8-5.6-.5-5.8-.5-7.7 2.7l-2 3.3v-2.6c0-3.2-3.8-6-7.7-5.7-1.6.1-3.8-.4-5.1-1.1-2-1.1-2.7-1-4.1.3-1 .9-2.5 1.6-3.4 1.6-1 0-2.6 1.8-3.9 4.5-1.2 2.5-2.7 4.5-3.4 4.5s-1.4.6-1.7 1.2c-.2.7-.8.9-1.3.5s-.2-1.2.6-1.8c1.3-.8 1.3-1 0-1.9-1.2-.7-1.6-.4-1.8 1.3-.5 3.3-1.9 4.2-2.7 1.8-.7-2.3-2.1-2.7-2.8-.9-.3.7-.6.3-.6-.9-.1-1.2.8-4.6 1.9-7.4 1.3-3.1 2-6.9 1.8-9.3l-.3-4.1-8.5-1.2c-4.7-.6-10.5-1.4-12.9-1.8-7.2-1-9.3.5-11.9 8.4-1.2 3.8-2.2 8.5-2.2 10.5s-.4 3.6-1 3.6c-.5 0-1-.5-1-1 0-.6-.6-1-1.2-.9-3.3.4-4.1-.1-2.8-1.6.7-.9 1-1.8.7-2.2-.4-.3-7-.5-14.7-.4-8.4.1-14-.2-14-.8 0-.5-2.1-1.2-4.7-1.5-11-1.2-16.9-2.2-18-2.9-.6-.4-1.3-.2-1.5.5-.3.9-1.1.8-2.9-.4-2.3-1.4-14.9-3.4-24.1-3.7-2.1 0-5.7-.8-8-1.6-2.4-.8-5-1.5-5.9-1.5s-2.4-.9-3.4-2c-1.3-1.5-3.1-2-6.7-2-2.7 0-4.8.5-4.8 1.1 0 1.1-3.7.3-5.8-1.4-.9-.7-.9-1.3-.1-2.3.9-1.1.8-1.4-.4-1.4-.8 0-1.7.6-1.9 1.2-.4 1-1 1-3.2 0-1.5-.6-3.6-1.2-4.8-1.2s-2.9-.7-3.9-1.6c-.9-.8-3.9-1.7-6.5-2-2.7-.2-5-.9-5.2-1.4-.2-.6-2.1-1-4.2-1-4.2 0-5-1.1-5-6.6 0-4.4-2.3-4.5-3.8-.2l-1 3.3-.1-4.2c-.1-2.3-.5-4.5-1.1-4.8-.5-.3-1-1.7-1-3.1s-.6-2.4-1.4-2.4-1.6-1-1.8-2.2-1.4-2.8-2.8-3.5c-2.3-1.2-2.7-1-5.2 1.9-2 2.5-2.4 3.7-1.6 5.1 1.1 2.1.4 4.7-1.2 4.7-.5 0-1-.8-1.1-1.8-.1-.9-.5.1-1 2.3s-1.7 4.5-2.5 5.2c-.9.6-1.3 1.7-.9 2.3.4.7.3 1.5-.2 1.9-1.3.8-5.3 8.9-5.3 10.5 0 .8-.7 1.6-1.5 2-.9.3-1.5 1.8-1.5 3.8-.1 1.8-.9 5.1-2 7.3-1.9 3.9-1.9 3.9-2 1.1 0-1.6.5-4.7 1.1-7 .6-2.2 1.5-5.9 2.1-8.1.5-2.2 1.3-4.7 1.7-5.5s1.5-4.2 2.5-7.5 2.4-7.4 3.1-9c.7-1.7 2.3-5.5 3.5-8.6s3-6.6 4.1-7.7c1-1.2 1.9-2.5 1.9-2.9s2.3-3.3 5-6.3 5-5.9 5-6.4c0-1.6 17.5-19.2 24.2-24.3 2-1.5 6.3-5.2 9.6-8.1s6.3-4.9 6.6-4.4-.3 2.7-1.4 4.8c-3.9 7.9-8.1 22.4-7.3 25.4.7 2.7 3.7 3.5 23.9 6.4 9.9 1.5 25.3 4 34.4 5.6 9.1 1.7 19.9 3.4 24 4 4.2.5 12.7 1.8 19 2.9s15.6 2.5 20.7 3c5 .6 10.6 1.4 12.2 1.7 2.6.5 3.6.1 6-2.5 1.7-1.8 4.7-6.7 6.7-10.9s7.4-15.6 12-25.2 9.1-18.9 10-20.5c.9-1.7 3.8-7.1 6.4-12 2.6-5 6.6-12.6 9-17s6.2-11.6 8.5-16c2.2-4.4 6.3-11.4 9-15.5s5.5-8.6 6.2-10 3-5 5-8.1c4.5-6.6 8.7-13.1 12.5-19.1 1.5-2.4 3.3-5.2 4-6.3 1.5-2.3 15.4-22.1 21.8-31 18.2-25.5 18.4-25.8 15.8-26.7-1.2-.4-10.3.6-27.3 3.2-6.2 1-20.2 5.5-24.7 8-.9.5-5 2.6-9 4.7-4 2-10.4 5.7-14.2 8.2-3.7 2.5-8.7 5.7-11.1 7.1-2.3 1.4-7 4.4-10.4 6.7-3.5 2.4-6.7 4.3-7.2 4.3s-.9.4-.9.9-.9 1.3-2 1.6-2.6 1.2-3.2 1.8c-.7.7-4.2 3.2-7.8 5.7-3.6 2.4-6.9 4.8-7.5 5.2-8.5 6.6-11.5 8.8-12 8.8-.3 0-3.6 2.2-7.3 4.9-3.7 2.8-8.9 6.6-11.7 8.6-2.7 2-8.6 6.3-13 9.6-4.4 3.4-8.6 6.3-9.3 6.6s-2.3 1.4-3.5 2.4-5.6 4.6-9.7 8-9.1 7.6-11.1 9.3-5.1 4.2-7 5.6c-1.8 1.4-5.1 4.1-7.4 6-4.6 3.9-8.8 7.3-19 15.4-3.8 3-9.4 7.4-12.3 9.8s-7 5.4-9 6.8c-2.1 1.4-4.9 3.4-6.4 4.5-1.4 1.1-3.9 2.9-5.4 4-9.3 6.7-17.2 14.2-25.4 24.4-3.6 4.4-6.8 8-7.2 8.1-1.7.1-.6-3.8 1.6-5.9 1.3-1.2 3.2-3.9 4.2-5.9 1.1-2 3.5-6.1 5.4-9.1 1.9-2.9 4-6.1 4.5-7.1 1.2-2 5.9-8.1 9.7-12.5 1.6-1.8 4.5-3.7 7-4.4 2.4-.7 5.2-2.1 6.3-3.1s5.9-4.3 10.6-7.4c4.7-3 9.2-6.2 9.9-7.1.7-.8 1.7-1.5 2.3-1.5.5 0 3.2-1.6 5.8-3.5 2.7-1.9 5.2-3.5 5.6-3.5.3 0 1.3-.7 2.2-1.5.9-.9 4.1-3.5 7.2-5.8s11-8.5 17.5-13.8c25.6-20.7 34.3-27.6 39.8-31.4 3.1-2.2 9.4-6.7 13.9-10.1 16-11.8 40.7-28.8 57.7-39.6 32.4-20.7 33.6-21.4 43-26.1 3.6-1.8 6.7-3.4 7-3.7s3.1-1.6 6.2-2.8c7.6-3.1 29.4-6.7 63.8-10.6 8-.9 18.1-2.1 22.5-2.6s13.9-1.2 21-1.5c7.2-.3 22.7-1.2 34.5-2 41.3-2.8 80-3.7 140-3.6 33.3.1 63.7.4 67.5.6 3.9.2 25.2.6 47.5.9 22.3.4 50.2 1.1 62 1.6s31.9 1.2 44.5 1.5c21.9.6 33.5 1.3 59.5 3.5 6.3.5 19.4 1.4 29 2 30.7 1.7 45.6 2.9 61 5 10.4 1.3 30.3 3.7 44.3 5.1 13.8 1.5 14.9 1.9 12.2 5-2 2.2-2 2.2 0 1.7 2-.6 14.5-5.8 20-8.5 3.5-1.6 6.7-.9 5.8 1.3-.4 1 .3 1.4 2.4 1.4 2.9 0 10.7 5.5 12.7 9 1 1.8 12.4 13 13.2 13 .6 0-6-8.3-9.6-12.1-1.4-1.4-4.3-4.9-6.5-7.7s-5.3-5.6-6.8-6.3c-3.2-1.3-9.7-1.8-11.2-.8-2 1.3-6.4 1.9-7 .9-1-1.6 1.8-4.8 6.6-7.5 5.3-2.8 7.8-3.1 11.7-1.1 1.5.7 4.6 1.7 6.9 2.1 4.9.8 9.5 5.4 11.4 11.5.6 1.9 2.2 4.9 3.5 6.7 1.3 1.7 2.4 3.6 2.4 4.1 0 .6.6 1.2 1.4 1.5 1.4.6-2.3-9.6-4.3-11.6-.6-.6-1.1-1.7-1.1-2.5 0-2.3-5.4-9.1-7.4-9.4-4-.6-3.1-2.1 6.4-11.3 1.2-1.1 3.1-3.2 4.3-4.8 1.7-2.1 3.2-2.8 6.2-3l4-.2.3 5.1c.3 5.6-1.5 8.8-4.4 7.7-2.2-.8-.8 4.1 2.5 9.1 2.5 3.7 4.3 6.7 6.9 11.2 1.1 2.1 1.2 2.1 5.2-1.7 2.2-2.1 4-4.1 4-4.3 0-1.1 7.5-7.5 8.8-7.6.6 0 1.2-.7 1.2-1.5s.5-1.5 1-1.5c.6 0 1-.6 1-1.3 0-.6 1.3-2.1 2.9-3.2s7.5-6.4 13.1-11.8c6.2-5.9 10.8-9.6 11.6-9.3s1.4-.1 1.4-.8.7-1.9 1.5-2.6c1.9-1.6 2.4-.4 2.8 6.5.2 3.4.7 4.9 1.5 4.7 3.6-.7 12.1 7.9 16.2 16.5 3.2 6.7 5.5 9.2 4.4 4.9-.7-2.9-.5-3 3-1.4 5.5 2.5 7.9 10.1 5.2 16.9-1.9 4.8-1.9 4.9-.3 4.9 3.5 0 5-15.6 2.2-22.4-1.6-3.7-2.4-4.3-4.1-2.6-1.9 1.9-7.3-1.1-8.5-4.8-.6-1.8-2.2-4-3.5-4.9-1.3-.8-2.4-2.2-2.4-3 0-1.2.9-1.4 4.1-1 4.9.6 5.9 1.5 6.8 5.8.7 3.7 3.7 6.2 4.9 4.2 2.1-3.4 16.8 8.6 17.4 14.1.3 2.5.9 3.1 5.2 4.3 5.4 1.6 8.6 3.6 16.3 10.3 5.4 4.8 16.3 17.5 16.3 19.1 0 .6.8.9 1.7.7 2.7-.5 4.3 4 4.3 12 0 4.4.4 7.1 1 6.7 1.6-1 6 9 6 14 0 2.4 1.3 11.3 3 19.7 1.6 8.4 3.5 17.8 4 20.8 1.1 5.3 5.1 18.4 7.6 24.5.6 1.6 1.7 4.8 2.4 7 2 6.5 5.2 13.5 6.1 13.5.5 0 .9 1.7.9 3.9s.6 4.4 1.5 5.1c1.9 1.6 1.9 3.1-.1 7.3l-1.6 3.3 4.7 5c2.6 2.7 5.8 6.3 7.1 8s3.4 3.6 4.7 4.3c1.2.7 2.7 2.2 3.2 3.3 1.3 2.9 3.5 3.5 3.5.9s1.2-3.2 6.3-3.2c5.6 0 7.7-.7 7.7-2.5 0-2.7 4.9-3.4 18.8-2.9 16 .6 19.6.8 35.7 2.5 6.6.7 13.5 1.3 15.3 1.4 1.7 0 3.2.4 3.2.8 0 .5.7.8 1.5.8 1.2 0 3.5 2.8 3.5 4.4 0 .3-1.2.6-2.7.6-2 0-2.4.3-1.4.9 2.1 1.4 0 2.1-8.8 2.9-4.9.5-8.2.4-8.4-.1-.3-1-21.4.7-27.7 2.3-1.9.4-7.2 1.1-11.8 1.5-10.2.9-12.3 2.3-12.7 8.6-.3 4.3 1.7 9.9 3.5 9.9.5 0 1.1.8 1.5 1.7.3 1 3 4.4 6 7.6 5.8 6.3 9 7.7 32 14.5 20.7 6.2 30.3 7.8 53 8.7 8.3.4 15.5 1.1 16.1 1.6.7.5 4.9 1.1 9.5 1.3s9.8.7 11.4 1c3.9.7 34.2 1.8 56 2 9.4.1 17.6.5 18.3 1 .7.4 10 1 20.5 1.2 10.6.2 22.6.6 26.7.9 22.8 1.7 65.1 3.5 66.1 3 .5-.4 1.4-.3 2 0 .6.4 3.1.8 5.7 1s7.6.6 11.2.9c19.3 1.6 27.2 1.8 26.6.7-.4-.6-.2-1.1.3-1.1h1.9c.4 0 .7.4.7.9s.3 1.2.6 1.6c.8.8 19.5 2.2 40.4 3 8.8.3 16.7.8 17.5 1 4.7 1.3 76.7 3.4 84.5 2.5 1.1-.1-6.3-4-7.7-4-1 0-8.5-7.5-12.5-12.6-3-3.9-3.7-5.8-3.4-9.7.2-2.5 2.1-2.1 2.1.4 0 1.2 1.2 3.4 2.8 4.8 1.5 1.5 4.3 4.5 6.3 6.7 2.7 3.1 5.2 4.6 10.5 6.4 3.8 1.2 7.5 2.5 8.3 2.9s4.3 0 7.8-.8l6.3-1.6V248h-2.9c-2.5 0-2.8-.3-2.3-2.5.3-1.8 1.1-2.5 2.8-2.5 3.9 0 3.1-3.7-1.2-5.5-4.5-1.8-4.4-1.8-4.4 0 0 .8.6 1.5 1.3 1.5.6 0 .4.5-.6 1.1-2.5 1.5-7.5.2-7.3-1.9 0-.9-.7-1.8-1.6-2-2.1-.4-2.5 2.4-.6 3.1.7.3.3.6-.9.6-2.6.1-4.3 2.8-4.3 6.8 0 2.8 1.5 5.3 3.2 5.3.4 0 .8-.9.8-1.9 0-2.5.8-2.9 4.5-2.1l3 .7-2.7 1.3c-1.6.7-2.9 2-3 2.9s-.3 2.9-.6 4.6c-.2 1.6-.5 5.6-.6 8.8-.3 6.7-1.4 8.4-4.6 6.7-1.2-.6-3.2-.9-4.4-.6-3.2.8-5-.7-4.3-3.6.6-2.2.1-2.7-3.2-4.3-4.4-1.9-7.5-1-8.6 2.5-.9 2.7-1.9 2.5-3.3-.5-.7-1.5-.8-2.5-.2-2.5s1-.4 1-.9c0-.6-.9-.9-2-.8s-2 .5-2 .9-.7.8-1.5.8-1.5-.7-1.5-1.6c0-1.2-.7-1.4-3.2-.9-3.2.7-3.3.7-1.5-1.2 2.2-2.5 2.2-5.3 0-5.3-1.3 0-1.5.2-.5.8.9.6.1 1.4-2.6 2.7l-3.9 1.9 2.4 3.4c1.3 1.9 2.3 3.9 2.3 4.3 0 .5 1.1.9 2.5.9 1.6 0 2.5.6 2.5 1.5 0 1.6 1.4 1.8 4.5.6 1.1-.5 2.8-.3 3.8.3 1.2.8 2.2.8 3.6-.1 2.2-1.4 3.1-.8 3.1 2.1 0 1.7-.2 1.8-1 .6s-1-1-1 1c-.1 1.7-1.1 3.2-3.3 4.5-2.6 1.7-3.1 2.7-2.9 5 .1 1.7.3 3.9.3 5 .2 4.6 1 6.5 2.8 6.5 2.1 0 3.6 3.9 2.1 5.4-.5.5-1.4-.1-2.1-1.7-1.3-2.8-2.4-3.4-3.4-1.7-1 1.6-4.5 1.2-4.5-.5 0-.8-.6-1.5-1.4-1.5s-2.7-.5-4.3-1.2c-3.9-1.6-6.6-1.6-7.9.2-1 1.2-1.4 1.2-2.8.1-.9-.7-1.6-.9-1.6-.3 0 1.3 2.6 2.3 4.5 1.6.8-.4 1.5-.1 1.5.5s.6 1.1 1.3 1.1c1.7 0 6.7 2.3 6.7 3.1 0 .4-.9.9-2 1.2-2.3.6-1.7 3.7.6 3.7 1.8 0 1.8 1.4 0 3-1.2.9-2.6.6-6.7-1.5-2.9-1.4-5.8-3.3-6.4-4.2-1-1.3-2.5-1.5-8.4-1l-7.1.6-.2-2.7c0-1.5-.1-3.5 0-4.4s-.5-2.8-1.2-4.3c-1.2-2.2-1.5-2.3-2-.9-.4 1-.2 2.2.4 2.8 1.7 1.7 1.1 2.6-1.6 2.6-2.2 0-2.4.2-1.4 1.5 1.6 2 .5 4.5-2 4.5-1.1 0-2 .4-2 .9s-1 1.2-2.2 1.4l-2.3.4 2.3.2c1.5.1 2.2.7 2.2 2.1 0 1.1-.6 2-1.2 2-.9 0-.9.3.1.9 1.2.8 1.1 1.2-.3 2.7-1.1 1-2 1.3-2.4.7-.4-.5-1.6-1.2-2.7-1.5-1.8-.4-2-.1-1.7 2.9.4 3.3.4 3.3-2.2 2.2-2.5-1.2-3.1-2.8-2.7-7.2.1-.9-.4-1.7-1.3-1.7s-1.6-.9-1.6-2c0-1.9.2-1.9 2.3-.6 2.4 1.6 5.5.7 4.2-1.4-.4-.7.1-1.3 1.4-1.7 2.4-.6 2.6-2 .6-4.7-2.4-3.1-1.8-5.1 2.2-7.7 3.2-2 3.9-3.2 4.7-7.4.5-2.8 1.4-5.3 2-5.7s.2-.6-1-.6c-2.3.2-9.2-4.9-10-7.5-.3-.9-1.4-1.7-2.5-1.7-2.7 0-3.1-1.7-2.1-8.6 1-5.9 1-5.9-2.3-9.1-2.6-2.5-4.4-3.3-7.7-3.5-3.6-.3-4.4 0-5.3 1.9-.5 1.3-1.5 2.3-2.2 2.3-.6 0-1.5.9-1.8 2s-1.1 2-1.6 2-.9.7-.9 1.5c0 2.5-2 1.7-3.1-1.2-.6-1.5-1.5-3.1-2.2-3.5-.6-.4-1.6-2.2-2.2-3.9-1.2-3.5-5.2-5.4-8.8-4.3-1 .3-1.9-.1-2.3-1-.5-1.4-.8-1.4-2.1-.1-.8.9-1.8 2.7-2.2 4.2-.5 1.8-1.7 2.9-4.1 3.7-2.8.9-3.4 1.6-3.2 3.5.3 2.8 4 7.8 6.4 8.6 1 .4 1.8 1.3 1.8 2.1 0 1.6 5.6 7.1 8.3 7.9 1 .4 1.7 1.6 1.7 3.1 0 1.4.6 2.4 1.5 2.4 1.2 0 3.5 2.8 3.5 4.4 0 .3-1.8.6-4 .6-3 0-4-.4-4-1.6s-.7-1.4-3.2-.9c-1.8.4-3.9 1.2-4.6 1.8-.9.7-1.7.5-2.8-1.1-1.2-1.8-1.8-1.9-4.4-1-1.7.5-4 .8-5.2.5s-3.6 0-5.5.8c-1.8.8-3.7 1.4-4.1 1.4s-.8.7-1 1.5c-.3 1.2.5 1.6 2.7 1.6 1.7 0 3.8.8 4.8 1.9 1 1 2.8 2.2 4.1 2.5 2.6.9 3 2.9.5 2.4-1-.2-2.7.4-3.7 1.4-1 .9-2.3 1.5-2.8 1.2-.4-.3-.8-.2-.8.2 0 1.1 4.2 4.4 5.6 4.4.7 0 1.5.4 1.8.9.9 1.5-1.2 6.1-2.6 5.9-.7-.2-1.3.5-1.3 1.4 0 1-.9 2.7-1.9 3.9-1.5 1.8-1.6 2.6-.7 4.6.6 1.3 1.1 3.2 1.1 4.2 0 1.7 1.8 3.1 4 3.1 1.3 0 6-4.9 6-6.2 0-.6.3-.8.6-.5.4.3 1.4.2 2.4-.3 1.2-.6 2.3-.3 4.1 1.4s2.8 2 4 1.3c2.2-1.3 4.9-.2 4.9 2 0 1 .7 3 1.4 4.5 1.3 2.5 1.3 2.8-.1 2.8-.8 0-2.7.8-4.1 1.8-1.5 1-3.5 2.2-4.4 2.5-1.1.4-1.8 1.7-1.8 3.3 0 1.8.4 2.5 1.4 2.1s1.8.4 2.5 2.4c.5 1.6 1.5 2.9 2.1 2.9s.2.9-.9 2.1-2.3 1.9-2.8 1.6c-1.4-.9-3.6.9-2.9 2.2.4.6 1.4 1.1 2.2 1.1s1.4.6 1.4 1.3c0 .8 2.1 2.8 4.6 4.6 4.5 3.3 4.5 3.3 2.2 4.5-1.3.7-2.4.8-2.6.4-.7-1.6-3.1-.7-3.7 1.3-.4 1.2-1 1.7-1.4 1.2-.3-.6-1.6-1.3-2.8-1.7-3.8-1.2-3 2.8 1 4.8 1.7.8 2.6 1.6 2 1.6-.7 0-2.2.9-3.3 2-2 2-2 2.1-.3 4.5 1 1.3 2.1 2.5 2.6 2.5 1.8 0 .5 2-1.4 2-1.2 0-2.7.8-3.4 1.7s-2.3 1.8-3.6 1.9-3.4.5-4.7.9c-2 .7-2.1.9-.6 1.9 1.5 1.1 1.5 1.4 0 2.8-2.6 2.6-1.9 4 1 2.1 2.4-1.6 2.9-1.5 8 .2 4 1.4 5.7 1.5 6.7.7s1.7-.8 2.4-.1c1.4 1.4 3.3.3 3.3-1.7 0-.8.5-1.2 1-.9s1 0 1-.9c0-.8-.6-1.6-1.2-1.9-2.3-.8-.1-1.8 4.4-2.1 4.1-.3 4.4-.1 4.6 2.3.1 2.1-.6 2.9-3.7 4.3-2 1-4.3 1.8-4.9 1.8-.7 0-1.2 1.1-1.2 2.4 0 3.1-1.4 4-3.1 2-1.1-1.4-1.4-1.3-2.5.8-.8 1.3-1.3 1.8-1.4 1.2 0-.9-1.1-.9-4-.2-4.2 1.1-5.4 2.8-2.1 2.8 2.3 0 3.7 3.5 2.3 5.3-1.2 1.4 1.1 7.7 2.8 7.7.5 0 1 .9 1 2.1 0 1.1.5 1.7 1 1.4.6-.4.8-1 .5-1.5-.3-.4.9-1.3 2.7-1.9 3.9-1.4 3.8-1.4 3.8.4 0 .8-.5 1.5-1.1 1.5-.5 0-.7.4-.4 1 .4.6 1.5.2 2.7-1 2.5-2.3 7.6-4.2 8.3-3 .3.4 1.3.6 2.3.3 1-.2 2.4.3 3.1 1.1.8.9 2 1.6 2.7 1.6.8 0 1.4.7 1.4 1.6 0 1.2.8 1.4 4.4.9 5-.8 6.7.6 4.2 3.4-.9 1-1.4 2-1.1 2.3s-.1 1.1-1 1.8c-1.3 1-1.5.9-1.5-.9s-.4-2-2.7-1.5c-3.8.9-5.3 2.2-5.4 4.8-.1 1.5-.4 1.1-1-1.2-1-3.3-2.3-4.1-3.3-2-.3 1-.9.8-1.9-.5-2-2.4-9.7-1.4-9.7 1.3 0 .9-.9 2.5-2 3.5s-1.7 2.1-1.5 2.6c.6.8-2.2 3.9-3.5 3.9-.5 0-1.2-.9-1.5-2-.7-2.3-2.5-2.6-4.3-.8-1 1-1.5 1-2.2-.2-.5-.8-1-1-1-.3 0 .6-1.3 1.6-3 2.2-2.4.8-3 1.6-3 4 0 2.5.4 3.1 2.1 3.1 1.6 0 1.9-.4 1.4-2.1-.6-1.7-.3-2 1.2-1.7 1.4.3 1.7 1.1 1.5 3.7-.1 1.8.3 4 .9 4.7.9 1.1.9 1.4 0 1.4-.8 0-1 .8-.6 2.2.6 2.2.6 2.2-.9.4-.9-1.1-1.6-2.5-1.6-3.2 0-2.1-3.3-2.6-4.7-.8-1.1 1.6-1.3 1.2-1.3-2.4 0-2.4-.5-4.2-1.1-4.2s-2-1.1-3.1-2.5c-2.5-3.2-5.1-3.2-7.6 0-2.2 2.8-4.2 3.3-4.2 1 0-1.3-2-1.5-12-1.5h-12v-2.5c0-2.5.1-2.5 8-2.5h8v-16h-18.8l-.4 4.7c-.3 3.6.1 5.1 1.4 6.2 2.3 2 2.3 5.1.1 5.1-1 0-2.9-1.2-4.2-2.5-2.6-2.8-4.9-3.2-5.7-1-.9 2.3-4.4 1.9-4.4-.5 0-1.1.7-2 1.5-2s1.5-.5 1.5-1c0-.6 1.1-1 2.5-1 2.9 0 3.2-.8.8-2.5-1.2-.9-1.7-2.8-1.7-7.3-.1-5.7-.2-6.1-2.2-5.6-1.7.4-2.3 0-2.8-2.1-.4-1.5-.5-3-.1-3.3.3-.3.5.2.5 1.1 0 1.3.9 1.7 4 1.7 2.2 0 4 .4 4 1 0 .5.5 1 1 1 .6 0 1-.8 1-1.7 0-1.4.4-1.2 2.5.7 1.4 1.3 2.8 2 3.2 1.7.3-.4.2-.7-.3-.7s-.9-1.2-.9-2.8c.1-2.1.7-2.8 2.8-3 1.5-.2 2.7.1 2.7.7s.9 1.1 2 1.1 2-.5 2-1c0-.6-.9-1-1.9-1s-2.1-.6-2.4-1.4c-.4-1 0-1.2 1.3-.9 1.7.4 1.8.1 1.4-2.8-.7-4.3 2.3-7.9 6.6-7.9q3 0 3-1.5c0-1.1 1.1-1.5 4-1.5h4v-10h-8v4.9c0 5.2-.8 6.1-5.6 6.1-1.3 0-2.4.6-2.4 1.2 0 2-1.3 3.5-3.6 4.2-1.7.5-2.3.2-2.7-1.5-.3-1.2-1-1.8-1.6-1.4-.7.4-1.4-.6-1.7-2.4-.7-3.2-1.9-4.1-2.7-1.9-.3 1-.7 1-1.9.1-.8-.7-1.9-.9-2.3-.5-.5.4-.5.1-.1-.6.5-.9 0-1.9-1.3-2.8-1.7-1.2-1.9-1.9-1.1-3.5.9-1.6.7-1.9-1-1.9-1.6 0-2 .4-1.5 1.9.7 2.4-2.2 5.1-3.1 2.8-.3-.9-.3-2-.1-2.5.3-.4.1-2.8-.4-5.2-.7-3.2-.7-4.5.2-5.1 1-.6 1-1.6 0-4.7-1.3-3.8-1.2-4.1 1.3-6.7 1.4-1.4 2.6-3.4 2.6-4.4 0-2.2 2.5-4.5 4-3.6.6.3 1-.3 1-1.6 0-1.8-.2-1.9-1.5-.9-1.2 1-1.8 1-3 0-1.3-1-1.3-1.5-.3-2.1 2-1.3.2-2.1-5.4-2.5-2.9-.2-5.4-.8-5.6-1.4s-1.1-.6-2.4.1c-2.5 1.3-3.5.5-1.8-1.6.7-.8 1.4-3.6 1.6-6.2.2-2.7.8-4.9 1.4-5.1 1.6-.6 1.2-3.2-.5-3.2-2 0-1.9-1.7.3-3 1.3-.8-.5-1-7.1-.8-7.4.3-8.8.6-9.3 2.1-.7 2.1-2.8 1.7-3.2-.6-.2-1 .3-1.7 1.2-1.7 1.8 0 2.1-1.6.5-2.5-1.6-1-5 3-3.7 4.3 1.5 1.5.2 4.2-2 4.2-1.1 0-3.2 1.2-4.7 2.6-1.8 1.7-3.1 2.2-3.8 1.5-1.5-1.5-.1-3.9 2.5-4.3 2-.3 2.3-.9 2.3-4.2 0-2.8.5-4.2 2-5 2.3-1.2 3.5-2.6 3.5-4 0-.6-.6-.1-1.4.9-1.2 1.6-1.6 1.7-2.9.6-.9-.7-1.4-1.8-1.1-2.5.6-1.5-2.2-3-3.7-2-.5.3-1.2-.2-1.5-1.1-.8-2 1.3-4.3 4.3-4.8 3.1-.4 5.3-2.6 5.3-5.3 0-2.1.5-2.4 4-2.4h4v-24h-7.8l-.8-7.8c-.6-5.6-.9-6.7-1.2-4l-.3 3.8H1648v13h-3.9c-2.2 0-4.1-.5-4.4-1.3-.3-1-.9-1-2.6 0-1.1.7-2.8 1.3-3.6 1.3-2.1 0-1.9-3.8.3-4.3.9-.3-.9-.5-4-.6-4.4-.1-5.8.2-5.8 1.3 0 .9-1.5 1.5-4.4 1.7l-4.4.4.5-3.5c.3-2.9.2-3.2-.7-1.8-.6 1-1.8 1.8-2.5 1.8-.9 0-1.5.9-1.5 2.1 0 1.6-.5 2-2 1.6-2-.5-7.5 1.6-8.5 3.4-.8 1.2-5.5 1.2-5.5-.1 0-.6.7-1 1.5-1 2.2 0 4.3-4.9 2.6-5.9q-1.2-.9-.3-1.5c.6-.3 1.2 0 1.5.6.3.9.9.8 1.8-.5.8-1 2.3-1.7 3.4-1.6 4.6.5 7.5-.2 7.5-1.5 0-1.7-3.1-2.9-5.3-2.1-.8.4-1.8.2-2.2-.4q-.6-1.05 4.2-1.2c6.4-.1 2.8-1.7-3.9-1.8-2.7-.1-4.8-.6-4.8-1.1 0-.6 1.6-1 3.5-1s3.5-.4 3.5-.9c0-.4 1.5-1.3 3.3-1.9 3-.9 2.8-1-3-1.1l-6.3-.1v-4c0-3.2.4-4 1.9-4 1.2 0 2.2 1.1 2.9 3.2.5 1.9 1 2.5 1.1 1.5.1-1.5.9-1.8 4.4-1.7 2.3.1 4.7.1 5.3.1 1.6-.1 3.4-7.8 3.4-14 0-3.9.4-5.1 1.5-5.1.9 0 1.5-.9 1.5-2.2 0-1.2.7-3 1.7-4 1.5-1.7 1.5-1.8-1-1.8s-2.7-.3-2.7-4c0-2.2.5-4 1-4 .6 0 1 1.1 1 2.5s.4 2.5.9 2.5 1.8-1.1 2.9-2.5c1.2-1.5 3-2.5 4.6-2.5 2.4 0 2.6-.4 2.6-4s.3-4 2.5-4c2.3 0 2.5-.4 2.5-4v-4h-13v-4c0-2.9-.4-4-1.5-4s-1.5-1.1-1.5-4v-4h8v8h8v-8h8v-8h8v-16h-8v-8h8v-16h-8v-8h-8v11h-4c-2.2 0-4 .4-4 1 0 .5-1.8 1-4 1-3.6 0-4-.3-4-2.5 0-2.3-.4-2.5-4-2.5-2.2 0-4-.4-4-.9s-.5-2.2-1.2-3.8c-.6-1.5-1.1-3.1-1-3.5.1-.3-.5-3.8-1.3-7.6l-1.5-7.1 3.1-3c2.2-2.3 4-3.1 6.5-3.1 3 0 3.4.3 3.4 2.5 0 2 .5 2.5 2.3 2.5s2.8 1 4.2 4c1.8 3.9 1.9 4 7.2 4h5.3v-20c0-11 .3-20 .8-20 .4 0 2.5-1.8 4.7-4 2.2-2.1 4.8-3.9 5.8-4 1.3 0 1.7-.8 1.7-3.5 0-2.8.7-4.2 3.5-6.6 1.9-1.7 3.5-3.7 3.5-4.5 0-.9-1.2-1.4-3.5-1.4-3.1 0-3.5-.3-3.5-2.5 0-2.3-.4-2.5-4-2.5h-4v21h-2.5c-2.2 0-2.5-.4-2.5-4 0-2.2.5-4 1-4 1.5 0 1.2-7.7-.2-8.3-1-.4-.9-.8.2-1.7s1.2-1.3.3-1.7c-.7-.2-1.3-1.3-1.3-2.4 0-1.6.7-1.9 4.1-1.9 3.2 0 3.9-.3 3.2-1.3-.6-.6-1.6-3-2.3-5.2-1.5-4.5-6-10.7-6-8.1 0 .9-.5 1.6-1.1 1.6s-.9-.7-.5-1.5c.3-.9 0-1.5-.9-1.5-1.1 0-1.5 1.3-1.7 4.2l-.1 4.3-.4-3.9c-.3-2.7-1.2-4.5-3-5.9-2.1-1.7-2.4-2.6-2-6.1.3-2.3.3-3.3 0-2.4-1 3.9-8.1.7-10.9-4.8-.8-1.5-1.4-3.9-1.4-5.5 0-3.6-3.1-10.3-4.1-8.8-.5.8-1.3.5-2.5-1-1.5-1.7-2.9-2.1-8.3-2.1h-6.4l.7 6.1c.3 3.4.6 7.7.6 9.5 0 3.3.1 3.4 4 3.4 2.2 0 4 .4 4 1 0 2.1-6.9 1-9.4-1.5-1.4-1.4-3.4-2.5-4.6-2.5-1.8 0-2-.6-2-8V0H0zM1611.4 6.5c.2.7-.4 2.1-1.5 3.1-1.8 1.7-1.9 1.6-1.9-1.9 0-2.7.4-3.5 1.4-3.1.8.3 1.7 1.2 2 1.9m5.3 7.7c-.2 1.3-.4.3-.4-2.2s.2-3.5.4-2.3c.2 1.3.2 3.3 0 4.5m-391.9 19c4.3 1.3 16.2 12.8 13.3 12.8-1.6 0-2.1.6-2.1 2.5 0 1.4-.2 2.5-.4 2.5-1.7 0-3.6-1.5-3.6-2.8 0-1.2-.3-1.3-1.1-.5-.9.9-.6 1.9.8 4 2.5 3.7 6.6 14 6.1 15.4-.2.6-1.9-1.4-3.8-4.5-1.9-3-3.9-5.6-4.3-5.6-.5 0-.7 1.9-.5 4.2.4 5.9-2.2 6.4-4.7.8-1-2.3-3.8-6.2-6.2-8.7-2.4-2.6-4.3-4.8-4.3-5s-.9-1.3-1.9-2.5c-1.1-1.3-3.1-3.7-4.5-5.3l-2.6-3 4.7-.5c4.1-.4 4.4-.7 3-1.9-2.4-1.9-2.1-2.9 1.1-3.4 3-.4 6.2 0 11 1.5m-31.8 8.3c0 1.7 1.2 1.9 2.6.5 2.2-2.2 14 3.3 18.6 8.5 2.7 3.1 8.9 16.5 8.2 17.7-.4.7-1 .4-1.6-.6-.9-1.6-1.1-1.6-2.9 0-1.7 1.6-1.9 1.6-1.9.1 0-1-.5-1.7-1.1-1.7s-2.5-1.1-4.1-2.5c-1.9-1.7-3.7-2.3-4.9-2-1.1.4-1.9.2-1.9-.4s-.9-1.5-2-2.1c-1.9-1-2.1-.9-1.8 1.6.4 3.7-1.7 4.1-3.9.7-.9-1.5-3.3-4.8-5.3-7.2-3.3-4.2-3.4-4.4-1-3.7 1.4.4 3.4 1.8 4.5 3 2.4 2.5 5.5 4 5.5 2.6 0-1.7-7.1-11.8-8.6-12.4-1.9-.7-1.8-3.6.1-3.6.8 0 1.5.7 1.5 1.5m45 11.5c0 .5-.2 1-.4 1-.3 0-.8-.5-1.1-1-.3-.6-.1-1 .4-1 .6 0 1.1.4 1.1 1m229.2 8.6c1.7 1.6 1.7 1.8-.6 3.9-1.6 1.5-2.6 3.6-2.8 6.1l-.3 3.8-1.4-2.8c-1.2-2.1-1.3-3.3-.4-5.7 1-2.6.9-2.9-.9-2.9-2 0-2.1-.1-.3-2 2.2-2.4 4.2-2.5 6.7-.4m7.4 10c1.3 1 1.3 1.7 0 5.5-.8 2.4-1.6 5.3-1.9 6.4s-.5.3-.6-1.8c-.1-2.7-.8-4.4-2.7-6-2.2-1.9-2.4-2.6-1.5-5 .6-1.5 1.7-2.7 2.6-2.7.8 0 1.6-.6 1.6-1.3.1-.6.4-.1.6 1.3s1.1 3 1.9 3.6m-296 5.1c1.5 4.9 2.8 11.5 2.9 14.8s.3 6.3.3 6.6c.1.4 1.9.3 4-.2 5.3-1.2 7.5-.3 6.8 2.7-.4 1.6-.2 2.4.6 2.5.7.1 2.7.3 4.3.4 4.9.5 9.6 1.9 9.6 3 0 1.2-3.4 2.3-7.9 2.4-4.8.1-3.1 1.7 2.6 2.5 6.9.9 11.4-.1 10.7-2.5-.8-2.5 1.2-5.9 3.5-5.9 1.1 0 2-.5 2-1 0-.6-.4-1-.9-1-1 0-2.4-7.7-1.6-9.1 1.8-2.9 7.4 6.7 7.5 13 .1 2.2 2.9-2.8 3-5.2 0-.9.4-1.7 1-1.7 1.8 0 2.1 4.5 1.1 13-1.3 10.4-1.3 11-.1 11 .6 0 1-.7 1-1.5 0-2.2 3-6.5 4.5-6.5.6 0 1.9.8 2.8 1.8 1.6 1.7 1.6 2.1-.3 6-2.4 5-3.9 6-5.6 3.8-1.1-1.6-1.3-1.6-2 .6-.9 3.1-.7 3.4 2.4 3 3.3-.5 6.6-3.4 8.3-7.4 1-2.4 1.4-2.7 2.1-1.5.9 1.8.2 3.8-3.2 8.9-3.3 4.9-6.6 6.4-9 4.3-2.1-1.9-2.3-1.7-4.4 5.3-3.2 11.1-17.8 26.5-28.8 30.7-5 1.9-12.9 1.6-13.6-.4-.2-.6-.9-1.1-1.5-1.1-1.7 0-7.7-5.3-7.7-6.8 0-.7-.6-1.2-1.2-1.2-1.7-.1-8.5-9.8-12.6-18-3.1-6.1-6.2-16-7.6-24l-.6-3.6 4.7-.1c2.7-.1 6.9-.5 9.6-.9l4.7-.6v4c0 2.3-.5 4.4-1 4.7-.6.3-.7 1.7-.4 3 .3 1.2.1 2.6-.4 2.9-2.1 1.3.9 7.3 4.7 9.4 2.8 1.6 6.9.3 8.9-2.8 1.1-1.9.9-2-2.7-2-5.1 0-6.1-1.4-5.1-7.5 1.2-7 1.2-17.3 0-21.7-.7-2.5-2.7-5-6.2-8-4.3-3.5-6.2-4.4-11.7-5.3l-6.6-1.1-.3-4.2c-.2-2.3.1-4.2.6-4.2s1.2-1.7 1.6-3.9c.3-2.1 1.3-4.4 2.1-5.1 1.3-1.1 8.6-2.1 20.2-2.9 1.9-.1 2.5 1 4.9 8.6m15.3-5.5c.5 1.3 1.7 4.9 2.7 8.1 1.6 5 1.6 5.9.4 6.7-2.2 1.4-3 .2-3-4.3-.1-2.3-.7-6-1.5-8.2-1.8-4.8-1.7-4.5-.5-4.5.6 0 1.4 1 1.9 2.2m-3.4 12.7c.7 3.2-1.4 8.1-3.5 8.1-1.1 0-1.3-9.1-.4-14l.7-3.2 1.2 2.9c.7 1.7 1.6 4.4 2 6.2m25.1-2.3c.6 4.7-1 2.7-2.1-2.6-.5-2.6-.4-3.2.4-2.4.7.6 1.4 2.8 1.7 5m-6.1.4c0 3.2-2.1 3.7-2.7.6-.3-1.4-.3-2.8 0-3.1 1.2-1.1 2.7.3 2.7 2.5m425.5 2c0 2.2-.4 4-1 4-.5 0-1-1.8-1-4s.5-4 1-4c.6 0 1 1.8 1 4m4.7 2.2c-.2 1.3-.4.3-.4-2.2s.2-3.5.4-2.3c.2 1.3.2 3.3 0 4.5m-427 6.4c.2.7-.3 1.8-1.1 2.6-1.1 1.2-1.2 1.8-.3 2.7.8.8.6 1.1-1 1.1-2.7 0-6.1-5.9-4.1-7.2 1.8-1.1 6.1-.6 6.5.8m-9 2.1c-.5 3.8-2.4 4-2.5.3 0-2 .4-3 1.4-3s1.4.8 1.1 2.7m-6.4 1.8c-.5 1.3-2.3 2.2-2.3 1.1 0-1.5 1.4-3.5 2.1-3.1.4.3.6 1.2.2 2m-39.3.5c0 .5-.7 1-1.5 1s-1.5-.5-1.5-1c0-.6.7-1 1.5-1s1.5.4 1.5 1m474 0c0 .5-.2 1-.4 1-.3 0-.8-.5-1.1-1-.3-.6-.1-1 .4-1 .6 0 1.1.4 1.1 1m0 6c0 .5 1.1 1 2.5 1 2.3 0 2.5.4 2.5 4s-.2 4-2.5 4c-2.2 0-2.5-.4-2.5-4v-4h-4c-2.2 0-4-.5-4-1 0-.6 1.8-1 4-1s4 .4 4 1m-462.1 6c-.7.5-1.9.6-2.7.2-1.2-.4-1-.9.9-2.5 2.2-1.8 2.4-1.8 2.7-.2.2 1-.2 2.1-.9 2.5m-10.1-1.5c.2.2-.1 1.3-.8 2.4-.8 1.5-2 2.1-4.5 2.1-4 0-5-1.2-3.5-4.1 1-1.8 1.7-2 4.8-1.4 2.1.4 3.8.8 4 1m81 .7c.7.7 1.2 3 1.2 5.2v4.1l-2.2-3.3c-1.6-2.6-2.6-3.3-4.5-2.9-3.1.6-4-1-1.7-2.8s5.6-1.9 7.2-.3m334.9 10c-.2 1.3-.4.3-.4-2.2s.2-3.5.4-2.3c.2 1.3.2 3.3 0 4.5m14.3-2.2c0 3.3-.3 4-2 4-1.6 0-2-.7-2-3.3 0-3.6.6-4.7 2.7-4.7.9 0 1.3 1.3 1.3 4m34 62c0 1.1-.9 2.9-2 4s-2.9 2-4 2c-1.5 0-2 .7-2 2.5 0 3-1.1 3.2-3.5.5-1.7-1.9-1.7-2 .6-4 1.3-1.1 3.4-2.5 4.7-3 1.2-.5 2.2-1.6 2.2-2.5 0-.8.9-1.5 2-1.5 1.3 0 2 .7 2 2m8 25.5c0 2.2-.4 2.5-4 2.5s-4-.3-4-2.5c0-2.3.4-2.5 4-2.5s4 .2 4 2.5m-613 15.1c19 .5 35.6.9 37 1 1.4 0 3.7.2 5.3.2 2.9.2 3.4 1.3 1.5 3.4-6.1 6.4-10.6 13.6-19 30.2-1.1 2.2-2.6 4.6-3.4 5.4-1.7 1.6-1.7 1.8-.3 4.3.7 1.5.6 4.1-.6 9.7-2.8 13.9-4.9 22.7-5.5 23.2-.3.3-1.4 4.7-2.4 9.9-1 5.1-2.7 11-3.8 13-2.7 4.8-3 5-2.7 2.1.1-1.4.1-4.1 0-6-.2-2.7-.4-3-1-1.6-.7 1.7-.8 1.7-2.3.2-.9-.9-2.4-1.6-3.3-1.6-1.6 0-9.6-5.6-10.3-7.2-.2-.5-1-.8-1.7-.8s-1.5-.7-1.9-1.5c-.3-.8-1.2-1.5-2.1-1.5s-2.8-1.1-4.3-2.5-3.7-2.5-4.9-2.5c-1.6 0-2.3-.6-2.3-1.8 0-2.6-2.5-5.8-3.4-4.4-.8 1.3-4.2-.2-6.2-2.7-.6-.8-2.8-1.6-4.8-1.7-4.6-.4-5.9-1.2-5.1-3.2.4-1-.2-2.2-1.4-3.2-1.2-.8-2.2-2.7-2.3-4.3-.1-1.5-.6-2.7-1-2.7s-.8-.7-.8-1.5q0-1.5-3-1.5c-1.6 0-3-.4-3-.9s-1.3-1.4-3-2.1c-1.6-.7-2.8-1.6-2.5-2s-.2-1.3-1-2c-1.3-1.1-1.5-.7-1.6 2.1-.1 2.6-.3 2.8-.6.9-1.1-7.7-1.5-9-2.2-9-.5 0-1.2 1-1.6 2.2l-.8 2.3-.4-2.3c-.3-1.4-1.2-2.2-2.4-2.2-1 0-1.9-.7-1.9-1.5s-.4-1.5-1-1.5c-.5 0-1 .7-1 1.5 0 3.6-2 1-3-4-.6-3-1.5-5.3-2-5-1 .6-7-1.4-7-2.4 0-.4-1.8-2.7-4-5.1-2.9-3.2-3.9-4.9-3.4-6.4.4-1.5.3-1.7-.4-.7-.8 1.1-1.5 1-4.1-.5-1.7-1-3.1-2.1-3.1-2.5 0-1.1 6.3-3.8 7.4-3.2.5.4.6.1.1-.7s-2-1-4.6-.6c-4.3.7-5.2-.5-1.6-2.2 2-1 1.9-1.1-1.5-1.1-2-.1-4-.5-4.3-1.1-1-1.7 45.8-1.8 110.5-.4m-115 .4c0 .5-.8 1-1.7 1-1.5 0-1.6-.2-.3-1 1.9-1.2 2-1.2 2 0m685.3 20.7c-.7.2-1.9.2-2.5 0-.7-.3-.2-.5 1.2-.5s1.9.2 1.3.5m10.7 4.9c0 .8-.4 1.2-1 .9-.5-.3-1-1-1-1.6 0-.5.5-.9 1-.9.6 0 1 .7 1 1.6m-534.5 11.2c.8 2.2-1.2 3.9-2.7 2.4-1.6-1.6-3.8-1.5-3.8.2 0 .7 1.3 1.6 2.9 1.9 2.5.5 2.9 1.1 3.4 5.6.3 2.8.3 8.8 0 13.4-.6 8.8.3 18.1 1.6 17.2.5-.2 1.1 1.2 1.5 3.3.4 2 1.3 5 2 6.7l1.4 3 .1-3c.1-1.7-.4-4.6-1-6.5-1.5-4.9-1.9-7.9-2.5-21-.6-13.4 0-15.3 4.3-12.5 8.3 5.4 17.3 18.2 14.1 20.1-1.3.8-.5 10.3 1.6 19.4 2.3 9.4 5.9 20.4 7.1 21.2.6.5.6.8 0 .8-.5 0-.4.5.3 1.2s1.2 2.2 1.2 3.4.7 2.7 1.5 3.4c2 1.6 1.9.5-.5-6.4-1.1-3.2-2.6-9.4-3.5-13.9-.8-4.4-1.9-8.5-2.4-9.1s-1.1-3.9-1.5-7.4-1-7.1-1.3-8c-.6-1.5-.5-1.5 1-.3 1.5 1.1 7.7 12.9 7.7 14.4 0 .2 2 4 4.4 8.4 5.1 9.2 6.5 15.2 5.9 24.8-.6 9.7-1 10.6-3.4 7.6-2.6-3.1-2.4-1.1.6 7.8 2.1 6.2 2.4 7.9 1.5 11.3-.6 2.1-.8 5.9-.5 8.3.4 2.4.4 4.9 0 5.5-1.3 2.1-3.3-.9-4-5.9-.8-5.8-5.3-15.9-5.4-12.2-.1 1.3.6 5 1.4 8.3.9 3.3 1.3 6.8 1 7.8s.3 4 1.5 6.5c1.8 4 1.9 4.9.8 7.3-1 2-2.3 2.9-5.3 3.4-2.2.4-5.6 1-7.5 1.3-4.7.9-6.4 1.4-5.8 2.1.3.2 4.5-.3 9.3-1.2 7.1-1.4 8.8-1.5 9.5-.4 1.5 2.4 0 3.7-7.3 6-6.2 2-9.8 2.4-25.5 2.8l-18.2.4-9.3-3.2c-16.7-5.8-26.7-12-26.7-16.5 0-3.4 1.2-3.7 4.4-1 2.8 2.4 12.9 7.6 22.6 11.5 3.5 1.4 8.8 2.5 14.5 2.9 10.3.8 23.5.3 23.5-.9 0-.5-4.4-.9-9.7-.9-12-.1-28.8-2.5-29.9-4.2-.3-.5-1.4-.9-2.5-.9-1 0-1.9-.4-1.9-.9s-1.5-1.5-3.2-2.2c-4.6-1.9-14-7.7-15-9.1-1.9-3.1.6-13.8 5.2-22 .6-1 1-3.3 1-5.1 0-4.5 1.8-9.8 4.1-12 1.1-1 1.9-2.6 1.9-3.7 0-1 .5-2.2 1-2.5.6-.3 1-2.6 1-5.1 0-3.2.6-5 2.2-6.6 1.3-1.3 2.3-2.7 2.3-3.3.1-.5.5-1.8.9-2.7s.3-3.7-.2-6.2c-.6-3.1-.6-5.9.1-8.6 1-3.5 1.5-4 3.3-3.6 1.9.5 2.2.1 2.6-3.1.3-2.5-.1-4.2-1.2-5.3-2.3-2.3-.8-9.9 2.5-12.3 1.8-1.4 2.5-2.8 2.5-5.3 0-1.9-.4-3.4-1-3.4-1.5 0-1.2-2.2.6-5.9.9-1.8 2.3-3.1 3.2-3 3.1.2 6.3-1.3 5.8-2.8-.3-.8-.1-1.1.4-.8 2.2 1.4 3.1-.8.9-2.3-2.1-1.5-2.2-1.6-.3-2.2 2.3-.8 8.1 1.7 8.9 3.8m845.8-.1c-.7.2-1.9.2-2.5 0-.7-.3-.2-.5 1.2-.5s1.9.2 1.3.5m-838.8 4.5c1.8 2.1 2.3 3.4 1.5 3.6-1.4.5-7.1-4.8-6.4-6 .9-1.5 2.2-.9 4.9 2.4M750 261.5c0 1.4-.4 2.5-1 2.5-.5 0-1-1.1-1-2.5s.5-2.5 1-2.5c.6 0 1 1.1 1 2.5m851 3.9v2.9l-2-2.3c-1.5-1.8-1.7-2.7-.9-4.3.9-1.6 1.3-1.7 2-.6.5.8.9 2.7.9 4.3m271 .7c0 1.8-.2 2-1.5.9s-1.3-1.5-.3-2.1c1.8-1.2 1.8-1.2 1.8 1.2m-274.2 1.6c-.4 2-1.8 2.6-3.7 1.4-1.8-1.2-.5-3.1 2-3.1 1.4 0 1.9.6 1.7 1.7M1640 280q0 3-1.5 3c-.8 0-1.5.4-1.5 1 0 .5.7 1 1.5 1 2 0 1.9 2.6-.1 3.4-2.4.9-3.6.7-2.9-.5.4-.6-.2-1.3-1.4-1.6-2.7-.7-2.7-3.9-.1-4.6 1.2-.3 2-1.4 2-2.6 0-1.4.6-2.1 2-2.1 1.6 0 2 .7 2 3m-98.2 2.3c.3 2.2-.1 2.7-1.8 2.7-2.3 0-3.5-2.2-2.6-4.6 1-2.5 4.1-1.2 4.4 1.9m277.7-1.3c-.3.5-1 1-1.6 1-.5 0-.9-.5-.9-1 0-.6.7-1 1.6-1 .8 0 1.2.4.9 1m-221.5 3.2c0 .5-.4.8-1 .8-.5 0-1-1-1-2.3 0-1.8.2-1.9 1-.7.5.8 1 1.8 1 2.2m-53.3 1c-.3.7-.5.2-.5-1.2s.2-1.9.5-1.3c.2.7.2 1.9 0 2.5m73.3-1.2c0 .5-.4 1-1 1-.5 0-1-.5-1-1 0-.6.5-1 1-1 .6 0 1 .4 1 1m-17.3 2.2c-.3.8-.6.5-.6-.6-.1-1.1.2-1.7.5-1.3.3.3.4 1.2.1 1.9m167.3-.6c0 .8-.5 1.2-1 .9-.6-.4-.8-1.1-.5-1.6.9-1.4 1.5-1.1 1.5.7m37.5.4c1.8 1.9 1.7 2-.3 2-3.1 0-5.2-1.1-5.2-2.6 0-2.1 3.4-1.7 5.5.6m-32.5 1.5c0 .3-.9.5-2 .5s-2-.7-2-1.5c0-1.3.4-1.4 2-.5 1.1.6 2 1.3 2 1.5m24.1-1.7c.9.1 1.9.9 2.3 1.7.9 2.4-5.9 5.3-8.4 3.7-1.4-.8-2.1-.9-2.6 0-1 1.6-3.3-1.8-2.7-4 .4-1.6 4-2 11.4-1.4m-144.8 6.9c.5 2.5.3 3.3-.8 3.3s-1.5-1.2-1.5-4.2c0-4.7 1.4-4.1 2.3.9m3.4 0c-.3 1-.5.2-.5-1.7s.2-2.7.5-1.8c.2 1 .2 2.6 0 3.5m112.9-3.9c.7.4 2.2 2.6 3.4 4.9 2 4 2 4.3.5 6.7-1 1.4-2.2 2.6-2.7 2.6s-.6.4-.3 1c1.3 2.1-.7 2.9-3.2 1.3l-2.5-1.7 2.2-1.8c1.2-1 2.8-1.8 3.6-1.8 2.3 0 1.6-1.6-2.1-4.4-2.3-1.8-3.5-3.5-3.5-5.2 0-2.4 2.2-3.2 4.6-1.6m-162 4.3 2.8 2.9h-2.6c-1.4 0-3.8.6-5.2 1.4-3.2 1.6-6.2 1.1-8-1.6-1-1.5-1.5-1.6-2-.6-.3.7-.4.2-.3-1.2.1-1.9.9-2.6 3.2-3.1 6.6-1.3 9.2-.8 12.1 2.2m289.4-.5c0 .8-.4 1.2-1 .9-.5-.3-1-1-1-1.6 0-.5.5-.9 1-.9.6 0 1 .7 1 1.6m-760.7 4.1c-.7.2-1.9.2-2.5 0-.7-.3-.2-.5 1.2-.5s1.9.2 1.3.5m667.1 2.2c.8 1.2-.3 4.1-1.5 4.1-.5 0-.9-1.1-.9-2.5 0-2.5 1.4-3.4 2.4-1.6m-4.4 1.1c0 .5-.4 1-1 1-.5 0-1-.5-1-1 0-.6.5-1 1-1 .6 0 1 .4 1 1m-642.6 4.3c.3 1.2.2 2.5-.3 3-1.4 1.4-5.6.3-5.9-1.6-.9-4.4 5-5.7 6.2-1.4m500.6-1.8c0 .9-.9 1.5-2.3 1.5s-2.6.9-3.2 2.2c-.6 1.4-2.1 2.4-3.7 2.6-3.2.4-3.9-1.7-.8-2.5 1.1-.3 2-1.1 2-1.7 0-.7 1.5-1.7 3.3-2.3 4.6-1.5 4.7-1.5 4.7.2m236 1.5c0 .5-.2 1-.4 1-.3 0-.8-.5-1.1-1-.3-.6-.1-1 .4-1 .6 0 1.1.4 1.1 1m-112.2 1.2c.8.8 1.5.8 2.5 0 2-1.7 3.7.5 3.1 3.7-.4 1.9.1 3.2 2 5 1.4 1.4 2.6 2.8 2.6 3.3 0 1.2-3.8 1-4.5-.2-.4-.6-1.1-.8-1.6-.5-.5.4-1-.1-1-.9-.1-.9-.3-2.1-.4-2.6-.1-.6-.3-1.2-.4-1.5 0-.4-.8-.2-1.7.3-2 1.1-7-3.1-5.9-4.9.6-.8 1-.8 1.7.2s.8.8.5-.9c-.6-2.4 1.1-3 3.1-1m103.9 4c-.3.8-.6.5-.6-.6-.1-1.1.2-1.7.5-1.3.3.3.4 1.2.1 1.9m-34.1 3.8c2.5 0 1.6 3.7-1.1 4.4-1.4.4-2.5 1.1-2.5 1.6 0 1.6-5.6 1.1-7.1-.6-1-1.3-1-1.7.2-2.5.8-.5 2.4-.9 3.7-.9 1.5 0 2.6-.9 3.4-2.8.9-2.1 1.2-2.3 1.5-1 .3 1 1.1 1.8 1.9 1.8m-738.5 4.1c1 1.2 1.9 2.8 1.9 3.6 0 2.7-1.6 1-4.3-4.5-1.5-3.1-2-4.7-1.1-3.5s2.4 3.2 3.5 4.4m473.8-3.8c0 .9-.2.9-.5 0-.3-.7-1.3-.9-2.2-.6-1.4.4-1.4.3-.2-.5 1.6-1.2 3-.7 2.9 1.1m-464.1 7.9c-1.4 2.9-2.8 6.1-3.2 7-.3 1-1 1.8-1.6 1.8-1.2 0-.4-4.2 1.6-8.2.8-1.5 1.4-3.3 1.4-4.1 0-2 2.2-3.9 3.4-2.7.6.6.1 2.8-1.6 6.2m677.2-1.7c0 2.5.5 4.5 1 4.5.6 0 1 .4 1 1 0 1.6-2.6 1.2-6.4-1.1-2-1.2-3.6-2.8-3.6-3.6 0-2 3.8-5.3 6.2-5.3 1.5 0 1.8.8 1.8 4.5m-246 4.9c-1.4 1.4-2.4 0-1.6-2.1.6-1.5.8-1.5 1.6-.3.6.9.5 1.9 0 2.4m18.4 6.3c-1.6 1.2-3.7 2.9-4.6 3.8-1 .8-2.2 1.5-2.7 1.5-1.7 0 .2-4.1 2.6-5.7 1.9-1.3 2.1-1.8 1.1-2.5s-.9-.8.4-.4c1 .3 2 .1 2.4-.5q.6-.9 2.1.3c1.3 1.1 1.1 1.5-1.3 3.5m46.3-2.2c.9 2.4-.1 2.7-1.5.5-.8-1.3-.8-2-.2-2s1.3.7 1.7 1.5m35.3 4c-.8 2.1-1.4 2.5-2.2 1.7-.9-.9-.8-1.8.1-3.8 1.7-3.7 3.6-1.8 2.1 2.1m-30.4 2.2c-1.1 1.1-1.9-.6-1.1-2.4.8-1.7.8-1.7 1.2 0 .3 1 .2 2.1-.1 2.4m-4.9.3c-.5 2.3-.3 3 .9 3 3.8 0-2.8 5.8-6.8 5.9-2 .1-1.5-2.2 1.1-5.3 1.2-1.4 1.3-2 .4-2.3-.7-.3-1.3-1.1-1.3-1.9 0-1.7.5-1.7 3.1-.4 1.5.8 1.9.7 1.9-.5 0-.8.3-1.5.6-1.5.4 0 .4 1.3.1 3m9.8-2c-.3.5-1 1-1.6 1-.5 0-.9-.5-.9-1 0-.6.7-1 1.6-1 .8 0 1.2.4.9 1m165.2 2.2c-.3.7-.5.2-.5-1.2s.2-1.9.5-1.3c.2.7.2 1.9 0 2.5m118.6 2c1.3-1.2 2-1.3 2.8-.5 1.8 1.8.2 4.6-2.1 4-1.1-.3-2.3-.1-2.6.4-.5.9-10.3.2-11.4-.8s2.6-2.1 5.2-1.6c2.1.4 2.9.1 3.4-1.2.7-1.6.8-1.6 1.9-.2 1.1 1.5 1.3 1.5 2.8-.1m-121 1.2c.4 1.1-2.9 3.6-4.8 3.6-1.3 0-.3-3 1.3-3.9 2.3-1.4 2.9-1.3 3.5.3m-228.9 1.1c-.5 1.2-1 1.3-2 .4-1.9-1.5-1.8-1.9.6-1.9 1.3 0 1.8.5 1.4 1.5m233.7 3.2c1.7-1 2.2-.9 3.3.5.7 1 2.5 2.2 3.9 2.7 1.5.6 2.7 1.5 2.7 2 0 1.6-5.4 2-7.1.5-.8-.8-2.1-1.4-2.8-1.4s-2.1-.5-3.2-1c-1.6-.9-1.8-1.4-.7-3.3 1-1.9 1.3-2 1.6-.5s.7 1.5 2.3.5m-98.8 2c-.7.2-1.9.2-2.5 0-.7-.3-.2-.5 1.2-.5s1.9.2 1.3.5m125.7.2c0 .6-.4 1.3-1 1.6-.5.3-1-.1-1-.9 0-.9.5-1.6 1-1.6.6 0 1 .4 1 .9m-346.3 3.7c-.3.3-1.2.4-1.9.1-.8-.3-.5-.6.6-.6 1.1-.1 1.7.2 1.3.5M1589 351c0 .5-.4 1-1 1-.5 0-1-.5-1-1 0-.6.5-1 1-1 .6 0 1 .4 1 1m-88 2.5c0 .9.7 1.8 1.5 2.1.8.4 1.5 1 1.5 1.5s-1.3.3-3-.6q-2.85-1.5-2.4-3c.8-2 2.4-1.9 2.4 0m296-.5c0 .5-.4 1-1 1-.5 0-1-.5-1-1 0-.6.5-1 1-1 .6 0 1 .4 1 1m11.7 3.2c-.3.8-.6.5-.6-.6-.1-1.1.2-1.7.5-1.3.3.3.4 1.2.1 1.9m-195.7.4c0 .9-.7 1.4-1.7 1.2-2.5-.5-2.8-2.8-.4-2.8 1.2 0 2.1.6 2.1 1.6m3.1 4.7c-1.6 1.6-2.5.1-1-1.6.8-.8 1.6-1.1 1.8-.5.2.5-.2 1.5-.8 2.1m-118.5 2.2c-1.6 1.2-1.7 1.7-.6 3 .7.9 1.9 1.4 2.7 1.1 2.4-1 1.3 1.9-1.2 3-2 1-2.7.9-3.7-.4-1-1.2-1-1.6 0-1.9.6-.3 1-.9.6-1.4-.9-1.6.7-4.9 2.4-4.9 1.5.1 1.5.2-.2 1.5M1866 365c0 .5-.7 1-1.5 1s-1.5-.5-1.5-1c0-.6.7-1 1.5-1s1.5.4 1.5 1m-36 2c0 .5-.4 1-1 1-.5 0-1-.5-1-1 0-.6.5-1 1-1 .6 0 1 .4 1 1M60.5 368c.3.5-.7.8-2.4.7-1.6-.1-2.7-.5-2.4-1 .6-1 4.1-.9 4.8.3m1607.5.9c0 1.6-1.4 2-2.7 1-1.9-1.7-1.6-2.8.7-2.2 1.1.3 2 .9 2 1.2m158.3-.1c3.9.1 5.7-.2 5.7-1s.6-.6 1.6.4c1.9 1.9 1.1 3.8-1.8 3.8-1.2 0-2.2.8-2.5 2.1-.5 1.6-1.1 1.9-3 1.4-1.4-.3-2.2-.2-2 .2.3.4-1.5.8-3.9.8s-4.4.4-4.4 1c0 .5-.4.4-.8-.3-.5-.7-.6-2.6-.4-4.3.3-2.2.7-2.7 1.3-1.8.7 1.1.9 1.1.9-.2 0-1.8 2.2-4.2 2.9-3.1.3.4 3.2.8 6.4 1m-133.8 1.4c-.4 1.3-.7 4-.7 6 .2 4.1-1.3 5.9-2.3 2.8-1-3.3.5-11 2.2-11 1.1 0 1.3.6.8 2.2m219.2 0c-.3.8-.6.5-.6-.6-.1-1.1.2-1.7.5-1.3.3.3.4 1.2.1 1.9M1686 375c0 .5-.7 1-1.6 1-.8 0-1.2-.5-.9-1 .3-.6 1-1 1.6-1 .5 0 .9.4.9 1m2 3.1c0 1.8-.2 1.9-1.5.9-1.5-1.2-1.2-3 .6-3 .5 0 .9 1 .9 2.1m220.8 3.4c1.1 1-1.4 2.6-6.3 4.1-3 .8-5.7 2-6 2.5-.4.5-1.5.9-2.7.9-2.2 0-15.8 13.2-15.8 15.4 0 .8-.7 1.9-1.5 2.6s-1.7 2.7-2.1 4.6c-.3 1.9-1 3.2-1.4 2.9-.4-.2-1.5.4-2.5 1.5-1.9 2.1-4.5 2.7-4.5 1.1 0-.5.6-1.2 1.3-1.4.8-.4.9-.6 0-.6-.6-.1-1.8.5-2.6 1.3-1 1.1-1.7 1.2-2.5.4s-1.3-.6-1.9.8c-1.3 3.3-2.1-6.3-.9-11 .6-2.2 1.3-4.3 1.6-4.6s3.6-4 7.3-8.2c7.2-8.1 11-10.8 16.1-10.9 1.7 0 4.9-.6 7.1-1.3 3.5-1.2 16.2-1.2 17.3-.1m-251.6 9.7c-.9.9-1.2.7-1.2-1.2s.3-2.1 1.2-1.2.9 1.5 0 2.4m-3.7-.2c.3.6-.4 1-1.7 1-1.8 0-2-.2-.8-1 1.9-1.2 1.8-1.2 2.5 0m136.5 0c0 .5.7 1 1.5 1 .9 0 1.2.6.9 1.5-.4 1 0 1.5 1.5 1.5 2.8 0 2.7 1.2-.4 3.8-2.9 2.5-8.5 2.1-8.5-.7 0-1.2-.2-1.3-.9-.3-.6 1-1 1-2.1-.3-1-1.2-1-1.5.2-1.5.7 0 2.2-1.4 3.1-3 1.7-2.9 4.7-4.1 4.7-2m-184.5.9c.7 1.2-1.2 2.4-2.5 1.6-1.1-.7-.4-2.5 1-2.5.5 0 1.1.4 1.5.9m194.8.6c-.3.9-.8 1.4-1 1.1-.3-.3-.2-.9.2-1.5.9-1.6 1.5-1.3.8.4m-131.6 6.5c-.1 1.2-.5 1.6-1 1.1s-.6-1.4-.3-2c1.1-1.6 1.5-1.3 1.3.9m-1040 .6c-.3.3-1.2.4-1.9.1-.8-.3-.5-.6.6-.6 1.1-.1 1.7.2 1.3.5m1157.3 2.8c0 .3-.4.8-1 1.1-.5.3-1 .1-1-.4 0-.6.5-1.1 1-1.1.6 0 1 .2 1 .4m-148 6.4c0 .5-1.3 1.8-3 3-3.3 2.5-4.1 1.4-1.2-1.7 1.8-2 4.2-2.7 4.2-1.3m-113 5.7c0 1-1.1 1.5-3.5 1.5-2.3 0-3.3-.4-3-1.3.8-1.8 6.5-2 6.5-.2m115 .5c0 .5-.5 1-1.1 1-.5 0-.7-.5-.4-1 .3-.6.8-1 1.1-1 .2 0 .4.4.4 1m13 6.9c0 1.1-.5 2.1-1.2 2.3-.9.3-.9 1.2 0 3.8 1.4 3.9.8 5.1-1.3 2.4-1.1-1.4-1.7-1.6-2.3-.7-.6 1-1.6 1-4.5.1-4.5-1.4-4.6-2.3-.7-4.3 1.7-.9 3-2.2 3-3 0-1.3 1.8-2.2 5.3-2.4 1-.1 1.7.6 1.7 1.8m158 1.8c0 .9-.6 1.3-1.4 1s-1.6-.1-1.8.5c-.3.7-1 .8-1.7.4-.9-.6-.9-1.2.4-2.6 1.9-2.1 4.5-1.6 4.5.7m-116.6 4.2c.3.4-.1 1.7-.9 2.7-1 1.5-1.6 1.6-2.6.7-.6-.6-.9-1.9-.6-2.7.7-1.7 3.2-2.2 4.1-.7m125.6.6c0 .8-.4 1.5-1 1.5-.5 0-1-.7-1-1.5s.5-1.5 1-1.5c.6 0 1 .7 1 1.5m-31 2.6c0 .5-.7.9-1.5.9-1.5 0-2-1.2-.9-2.3.8-.8 2.4.1 2.4 1.4m9 0c0 .5-.7.9-1.5.9-1.5 0-2-1.2-.9-2.3.8-.8 2.4.1 2.4 1.4m-94-.1c0 .5-.9 1-2.1 1-1.1 0-1.7-.5-1.4-1 .3-.6 1.3-1 2.1-1s1.4.4 1.4 1m112 0c0 .5-.8 1-1.7 1-1.5 0-1.6-.2-.3-1 1.9-1.2 2-1.2 2 0m12.3.5c.7 1.6.3 2-3.5 2.9-2 .4-2.8.3-2.8-.7 0-3.2 5.3-5.1 6.3-2.2m-181.8 1.5c-.3.5-1.2 1-2 1s-1.7-.5-2-1c-.4-.6.5-1 2-1s2.4.4 2 1m-1526.8 6.2c-.3.8-.6.5-.6-.6-.1-1.1.2-1.7.5-1.3.3.3.4 1.2.1 1.9M1581 447c0 .5-.5 1-1.1 1-.5 0-.7-.5-.4-1 .3-.6.8-1 1.1-1 .2 0 .4.4.4 1m149.7 1.6c-.3.3-1.2.4-1.9.1-.8-.3-.5-.6.6-.6 1.1-.1 1.7.2 1.3.5m8.6.1c-.7.2-1.9.2-2.5 0-.7-.3-.2-.5 1.2-.5s1.9.2 1.3.5m-1 7c-.7.2-2.1.2-3 0-1-.3-.4-.5 1.2-.5 1.7 0 2.4.2 1.8.5m8.2 1.3c-.3.5-1 1-1.6 1-.5 0-.9-.5-.9-1 0-.6.7-1 1.6-1 .8 0 1.2.4.9 1m9.8-.3c-.7.2-1.9.2-2.5 0-.7-.3-.2-.5 1.2-.5s1.9.2 1.3.5m-4.6 1.9c-.3.3-1.2.4-1.9.1-.8-.3-.5-.6.6-.6 1.1-.1 1.7.2 1.3.5m-657.3 13c-.2 10.3-.5 12.8-1.4 11.4-1.5-2.3-1.3-15.3.2-14.8.7.3 1.2 1.8 1.2 3.4m13.6 4.1c1.4.7 3 1.3 3.7 1.3.6 0 1.5.5 1.9 1.2.5.8.2.9-.9.5-1-.3-1.7-.2-1.7.3 0 .6-.7 1-1.5 1s-1.5-.7-1.5-1.5c0-1.7-4.6-3.9-6.1-2.9-1.7 1 .2 2.5 2.3 1.8 1.2-.4 1.8-.2 1.4.4-.3.5-1.7 1.2-3.1 1.4-2.4.5-2.5.3-2.5-4v-4.4l2.8 1.8c1.5 1 3.8 2.4 5.2 3.1m11.4 4.8c.8.8 2 1.5 2.6 1.5 1.9 0 11 5 11 6s-1.4 1.4-3.7 1.1c-.7-.1-1.3.5-1.3 1.4 0 .8.9 1.5 2 1.5 1 0 2.4.9 3 1.9 1.8 3.4 1.1 4.5-1.1 1.7-1.1-1.4-2.6-2.6-3.3-2.6-.8 0-1.6-1.7-2-4-.6-3.7-.9-4-3.9-4-1.7 0-3.8-.4-4.6-.9-1.5-1-4.1-.4-4.1.9 0 .4 1 1 2.2 1.3 2.6.7 2.3 1.2-1.4 2.1-2.5.6-2.8.4-2.8-1.8 0-1.9-.4-2.3-2-1.9-1.5.4-2 0-2-1.6 0-2.2 1.4-2.8 2.5-1.1.9 1.5 2.5 1.2 2.5-.4 0-2.6 4.1-3.3 6.4-1.1m-15.8 4.4c2-.3 2.4.2 1.4 2.1-.8 1.4-.8 2 0 2 .6 0 .8.5.5 1-.4.6-1 .8-1.5.5-.4-.3-1 0-1.2.7-.6 1.6-3.8-4.9-3.8-7.5 0-1.9.1-1.9 1.9-.3 1 .9 2.2 1.6 2.7 1.5m21.2 5.1c.1 1.6-.2 3-.7 3-1.2 0-2.3-2.9-1.5-4.1.8-1.3-1-1.1-2.4.3-.8.8-1.2.9-1.2.1 0-1.2 1.6-2.1 4-2.2 1-.1 1.7.9 1.8 2.9m-767.7.7c-1.2 2-1.4 1.4-.5-1.2.4-.9.9-1.4 1.1-1.1.3.2 0 1.3-.6 2.3m753.3-1.2c-.4.8-.1 1.5.5 1.5s1.1.4 1.1 1c0 .5-.7 1-1.5 1-1.9 0-1.9 1.7-.1 3.6 1.2 1.2 1.8 1.2 4.3-.1 3.8-2 5-1.9 5.8.5.9 2.7-.5 4.8-1.7 2.6-.5-.9-.6-2.1-.2-2.7.4-.8 0-.7-1.5 0-1.8 1-1.9 1.5-1 3.2 1.5 2.8.3 3.6-2.1 1.4-1.1-1-2-1.5-2-1 0 .4-.9-.4-2.1-1.9-1.1-1.4-2.7-2.6-3.5-2.6-2.1 0-1.7-2.3.6-3.8 1.1-.7 1.7-1.8 1.4-2.7-.4-.9 0-1.5 1-1.5s1.3.6 1 1.5m6.6 3.5c0 2.1-1.5 2.7-2.5 1-.7-1.2.2-3 1.6-3 .5 0 .9.9.9 2m154 4c0 .5-.4 1-1 1-.5 0-1-.5-1-1 0-.6.5-1 1-1 .6 0 1 .4 1 1m11 .5c0 .9-1.1 2-2.4 2.5s-2.6 1.4-2.8 2.1c-.3.9-.6 1-1.1.2-.9-1.4 3-6.3 4.9-6.3.8 0 1.4.7 1.4 1.5m-879.3 1.7c-.3.8-.6.5-.6-.6-.1-1.1.2-1.7.5-1.3.3.3.4 1.2.1 1.9m862 2c-.3.7-.5.2-.5-1.2s.2-1.9.5-1.3c.2.7.2 1.9 0 2.5m37 0c-.3.8-.6.5-.6-.6-.1-1.1.2-1.7.5-1.3.3.3.4 1.2.1 1.9m-178 1c-.3.8-.6.5-.6-.6-.1-1.1.2-1.7.5-1.3.3.3.4 1.2.1 1.9m-712.4-.5c-.7.2-1.9.2-2.5 0-.7-.3-.2-.5 1.2-.5s1.9.2 1.3.5m857 2.3c.7 3.4 0 6-1.7 6-1.5 0-4.4-2-3-2 .7 0 1.5-1.6 1.8-3.5.8-4.3 2.1-4.5 2.9-.5m15.2-1.1c-.3.6-1.1 1.1-1.7 1.1s-.6-.6.2-1.5c1.4-1.7 2.6-1.3 1.5.4M492 503c0 .5-.4 1-1 1-.5 0-1-.5-1-1 0-.6.5-1 1-1 .6 0 1 .4 1 1m629 1.7c0 2-.3 2.4-1.1 1.6-.7-.7-.9-1.9-.6-2.7 1-2.4 1.7-1.9 1.7 1.1m-686.3-1.1c-.3.3-1.2.4-1.9.1-.8-.3-.5-.6.6-.6 1.1-.1 1.7.2 1.3.5m679 4.5c2.1 1 3.1 1.9 2.4 2.3-.6.4-1.7.4-2.3-.1-.7-.4-1.5-.8-1.8-.9-3.3-.6-6-2.7-6-4.5 0-2.2 0-2.2 2.1-.3 1.1 1 3.7 2.6 5.6 3.5m-924.9-.2c2.3 1.2 5 2.1 6.2 2.1 1.1 0 2 .4 2 1 0 .5.6 1 1.3 1 1.5 0 4.7 5.1 4.7 7.4 0 .9.6 1.9 1.4 2.2 1.3.5 6.1 10.2 5.4 10.9-.2.2-1.4-1.3-2.8-3.2-1.4-2-3.7-4.9-5.2-6.5-1.6-1.6-2.8-3.5-2.8-4.1-.1-1.5-2.4-4.7-3.5-4.7-.4 0-1.8-.9-3.2-2-2.1-1.6-4-2-10.7-1.9-8.2 0-8.9.3-16 5.3-1.5 1-3 1.5-3.4 1.2-.9-1 4.4-5.6 6.4-5.6.8 0 1.4-.7 1.4-1.5s.8-1.5 1.9-1.5c1 0 2.4-.7 3.1-1.5 1.7-2 8.5-1.3 13.8 1.4m1092.2-2.1c0 1-2.2 3.2-3.2 3.2-1.3 0-.9-2.8.5-3.3 1.9-.8 2.7-.8 2.7.1m-814 2c0 1.3-1.2 2.2-2.2 1.6s-.1-2.4 1.3-2.4c.5 0 .9.4.9.8m657 .2c0 .5-.2 1-.4 1-.3 0-.8-.5-1.1-1-.3-.6-.1-1 .4-1 .6 0 1.1.4 1.1 1m184.5 1.8c-.6.7-5.5-1.1-5-1.8.3-.5 1.6-.3 2.9.3 1.4.7 2.3 1.3 2.1 1.5m-175 2.7c4 1.8 1.6 1.9-2.6 0-1.9-.8-2.7-1.4-1.9-1.4s2.9.6 4.5 1.4m178.5 0c0 .8-.2 1.5-.4 1.5s-.6-.7-1-1.5c-.3-.8-.1-1.5.4-1.5.6 0 1 .7 1 1.5m-1152.4 8.3c-.8.9-1.9 1.2-2.3.8s-.3-1 .3-1.4 1.4-1.6 1.9-2.7c.8-1.9.8-1.9 1.3-.1.2 1-.3 2.5-1.2 3.4m1112.1-2.1c-.3.4-2.3 1.7-4.4 2.8-2.1 1-4.5 2.5-5.3 3.1-.8.7-3.3 1.5-5.5 1.7s-5.1.9-6.5 1.4c-1.4.6-5.1 1.3-8.2 1.7-7.1.9-8-.9-1-1.9 2.6-.4 5.2-1 5.7-1.5.6-.4 2.8-1 5-1.4 7.4-1.2 9.5-1.9 16.5-5.6 3.5-1.8 4.7-1.9 3.7-.3m-95.7 1.7c0 .2-.9.6-2 .9s-2 .1-2-.4.9-.9 2-.9 2 .2 2 .4m56 3.6c0 .5-.2 1-.4 1-.3 0-.8-.5-1.1-1-.3-.6-.1-1 .4-1 .6 0 1.1.4 1.1 1m3.7-.4c-.3.3-1.2.4-1.9.1-.8-.3-.5-.6.6-.6 1.1-.1 1.7.2 1.3.5m-1081.1 5.1c-1 1-1.9-.5-1-1.8.6-1.1.8-1.1 1.2 0 .2.7.1 1.5-.2 1.8m1033.2 0c-1 .2-2.8.2-4 0-1.3-.2-.5-.4 1.7-.4 2.2-.1 3.2.1 2.3.4m30.7 1.4c.8.8-23.7.6-25.5-.2-.3-.1 2-.5 5-.9 6.6-.9 19.1-.2 20.5 1.1m13.8-.4c-.7.2-1.9.2-2.5 0-.7-.3-.2-.5 1.2-.5s1.9.2 1.3.5M216 546.3c1.7 3.7 3.5 6.9 4.1 7.3.6.3.8 1.2.5 1.9-.7 2 5.1 5 12 6.3 7 1.4 18.5 3.9 23.4 5.2 4.6 1.3-16 .3-28.5-1.3l-9-1.2-2.5-8.5c-1.4-4.7-3.3-10.4-4.3-12.8-.9-2.3-1.7-5-1.7-5.9 0-2.5 2.2.9 6 9m1095.7-7.1c-.3.7-.5.2-.5-1.2s.2-1.9.5-1.3c.2.7.2 1.9 0 2.5M91.5 543.3c.7.7 3.8 1.9 6.9 2.6s5.6 1.7 5.6 2.3c0 1.2-6.4.2-9.5-1.5-1.1-.6-2.4-1-2.9-.9-1.2.4-3.7-1.9-3-2.9.7-1.2 1.3-1.1 2.9.4m53.6 1c-1 .9-1.1.8-.5-.6.3-1 .9-1.5 1.2-1.2s0 1.1-.7 1.8m-1.5 7.5c-1 .9-8.9 1.1-10.5.2-.9-.5-.1-1 2.5-1.4 2.1-.4 4.7-1.4 5.8-2.2 1.9-1.3 2.1-1.3 2.4.7.2 1.1.1 2.3-.2 2.7m-26.6-1.9c0 .9-10.9.3-11.9-.5-.2-.2 2.3-.4 5.7-.4s6.2.4 6.2.9m10.3 1.8c-.7.2-1.9.2-2.5 0-.7-.3-.2-.5 1.2-.5s1.9.2 1.3.5m519.3.4c.5.8.8.8 1.3 0 .5-.7 2-.9 4-.5 2.4.5 2.9.9 1.9 1.6-.8.5.2.6 2.7.2 3.6-.6 3.9-.5 2.7.9-1.1 1.3-.9 1.5 2.5 1 2.8-.4 4.3-.1 5.2 1.1.8 1 2.9 1.6 5.3 1.6 3.9 0 3.9.1 3.3 3-.4 1.9-.3 3 .4 3 .6 0 1.1.9 1.1 2s.5 2 1 2c.6 0 1-.5 1-1 0-.6 1.1-1 2.5-1s2.5-.5 2.5-1c0-.6.9-1 2-1s2 .4 2 1c0 .5-.9 1-2.1 1-1.6 0-1.9.4-1.3 2.2.3 1.3 1.2 2.9 1.8 3.7s1 2.4.8 3.5c-.2 1.7-.1 1.8.7.6s1.3-1.2 2.3-.2c.9.9.9 1.5 0 2.4-1.3 1.3.1 4.7 2.5 6.1q1.5.9.9 3.3c-.5 1.7-.2 2.4.7 2.4s1.4 1.2 1.5 3.2c.1 3.1.5 4.2 3.9 11.4.8 1.7 1.3 4.4 1.1 6-.3 2.7-.6 2.4-3.6-3.6-1.9-3.5-4.2-7.5-5.3-8.8-1-1.4-1.9-3-1.9-3.7 0-3.8-16.9-26.3-19.8-26.4-.7-.1-2.2-1-3.4-2.1-4.2-3.8-9.7-7.2-13.5-8.1-4.5-1.1-19.6-1.3-25.8-.3-2.8.4-4.5.2-4.5-.4 0-1.1 3.3-2.2 6.7-2.2 1.2 0 2.9-.7 3.8-1.6.9-1 2.6-1.4 4-1.1 1.4.2 2.5 0 2.5-.4 0-1.3 5.8-1.1 6.6.2m598.1 7.9c1.3 0 2.3 2.4 2.3 5.6 0 3.3-1.7 3-2.5-.5-.4-2.1-1.4-3.1-3.3-3.6-2.1-.5-2.3-.8-1.1-1.6 1.1-.8 1.1-1.2.2-1.6-.7-.2-1.3-1-1.3-1.6s1-.1 2.3 1.1 2.8 2.2 3.4 2.2M617 561.7c-1.9 1.6-4.2 3.6-5.2 4.5-2.2 2.2-2.8 2.2-2.8.3 0-.9.8-1.9 1.8-2.2.9-.4 3-1.7 4.5-3 1.6-1.3 3.4-2.3 4-2.3s-.4 1.2-2.3 2.7m65.5.3c.3.5-.1 1-.9 1-.9 0-1.6-.5-1.6-1 0-.6.4-1 .9-1 .6 0 1.3.4 1.6 1m21.5 1.5c0 1-1 1.5-2.9 1.5-3.4 0-5-1.6-2.4-2.3 3.6-.9 5.3-.7 5.3.8M277 569c0 1.1-4 1.1-8.5 0-2.5-.6-2-.8 2.8-.9 3.2 0 5.7.3 5.7.9m329.4 1.4c-.5 1.3-3.4 3.1-3.4 2.2 0-1.6 1.4-3.6 2.6-3.6.7 0 1.1.6.8 1.4M287 571c0 1.2-2.7 1.2-5.5 0-1.6-.7-1.3-.9 1.8-.9 2-.1 3.7.3 3.7.9m19 1c6.3.6 14 1.1 17 1.3 3 .1 6.1.6 6.8 1 .6.5 1.6.6 2.1.2.5-.3 1.2-.1 1.6.5.3.5 3.1 1 6.1 1 3.1 0 6.5.5 7.6 1.1 1.6.9 2.3.8 2.9-.2s1.1-1.1 1.7-.3c.6 1 2.1 1.4 6.5 1.5.9 0 1.7.3 1.7.7s2.8.8 6.2 1c3.4.1 6.4.6 6.8 1.1.3.5 1.9.8 3.5.8 1.7 0 5.5.5 8.5 1.2 3 .6 7.3 1.3 9.5 1.5s5.4.6 7 .9c9.4 1.6 17.5 2.9 21.5 3.3 2.5.2 5.4.7 6.5 1.1s2.5.7 3 .8c8.9.9 16.9 2.1 25.4 3.7 5.7 1 10.5 1.7 10.8 1.4.2-.2 1.9 0 3.6.5 2.7.8 11 2 15.5 2.2.6 0 1.2.4 1.2.9 0 .4 2.4.8 5.3.8 2.8.1 6.3.7 7.7 1.5s3.6 1.4 4.9 1.5c1.7 0 2.2.3 1.5 1-.6.6-2.3.6-4.4.1-1.9-.5-9.8-1.7-17.5-2.6s-14.9-2.1-16-2.5c-1.1-.5-4-1.1-6.5-1.3-9.5-1.1-20.6-2.8-23-3.7-1.4-.5-4.5-1.1-7-1.4-13.3-1.5-29.3-3.8-35.5-5.1-3.8-.8-10.1-1.7-13.9-2-3.8-.4-9.4-1.1-12.5-1.6-3.1-.6-7.2-1.2-9.1-1.5s-6.4-1-10-1.5-8.5-1.1-11-1.3c-4.9-.5-16.1-2-25.5-3.6-4.7-.8-27.1-4-28.2-4-.2 0-.3-.5-.3-1 0-.7 1.3-.9 3.3-.5 1.7.3 8.4 1 14.7 1.5m294.7 3.7c-.9 1-2.3 1.3-3.3.9-1.6-.6-1.5-.9.7-3 2-1.9 2.5-2.1 3.3-.9.5 1 .3 2.1-.7 3m655.7.2c-.6 2.9-.8 3.1-2.2 1.7s-1.4-1.7.4-3.5c2.4-2.3 2.6-2.2 1.8 1.8m2.6 1.6c0 .9.9 1.5 2.5 1.5 2.3 0 2.4.2 1.5 2.1-.7 1.1-.8 2.4-.4 2.7.4.4.9.1 1.1-.6.7-1.9 2.4-1.4 4.9 1.5s2.9 7.3.7 7.3c-.8 0-1.3-1.2-1.3-3 0-2.4-.4-3-2.2-3-1.3 0-3-.6-3.8-1.3-2-1.6-5.2-8.7-4-8.7.6 0 1 .7 1 1.5m-662.1.7c0 1.5-5.9 6.4-5.9 5 0-.5.7-1.5 1.5-2.2.8-.6 1.4-1.5 1.3-1.8-.2-1.6.3-2.2 1.7-2.2.8 0 1.5.6 1.4 1.2m-493.1 10.2c2.9 1.4 11.9 3.2 22 4.2 6.8.7 6.7.4 5.2 8.5-.5 3-1.4 8.3-2.1 11.9-.6 3.6-1.6 7.4-2.1 8.4-1 1.9-1.1 1.9-2.4.1-.8-1-2.4-1.9-3.6-2.1-1.3-.1-2.4-.3-2.6-.3-.1-.1.2-1 .7-2 .9-1.7.8-1.8-1.2-1.4-1.2.3-2.8 1-3.4 1.6-.7.5-2.1.6-3 .2-1-.4-4-.9-6.8-1.2-2.7-.2-5.4-.8-6-1.3-.5-.4-2.8-1-5-1.4-5.6-.8-7.7-1.2-9.8-2.1-1.2-.5-2.9 0-5 1.6-2.5 1.8-4.5 2.3-9.9 2.4-3.7.1-7.3-.2-7.9-.6-2.2-1.3-.4-4.3 3.6-5.7 13.6-4.8 14.4-5.3 18.6-11.2 3.8-5.4 4.3-5.8 8.9-6.4 3.5-.5 5.3-1.3 6-2.6 1.3-2.4 2.2-2.5 5.8-.6M1273 595c0 .5-.4 1-.9 1-.6 0-1.3-.5-1.6-1-.3-.6.1-1 .9-1 .9 0 1.6.4 1.6 1m-1032.7 1.6c5.5 1 4.5 2.1-2.5 2.9-5.2.6-6.3.5-7.4-1-1.9-2.5-.7-3.8 3-3.1 1.7.3 4.8.9 6.9 1.2m1040 2.5c1.5 2.1 2.7 4.4 2.7 4.9 0 .6.6 1 1.4 1 2.3 0 2.9 3.3 1 4.7-2.6 1.9-3.6 1.6-2.4-.7.6-1.1.8-2.5.5-3-.9-1.4-3.5-1.2-3.6.2 0 .7-.6.2-1.2-1.1-.9-1.9-.9-2.5.1-2.9 2.1-.7 1.3-2.3-1-1.9-1.3.2-1.7.2-1.1 0 1-.3.9-.8-.2-1.9-1.8-1.9-1.9-3.4-.2-3.4.6.1 2.4 1.9 4 4.1m249.1-.5c.3.9.6 2.5.6 3.6v2.1l-74.7-.7c-41.2-.3-76.6-1-78.8-1.4-2.6-.5-4.1-1.3-4.3-2.5-.2-1 .3-1.7 1.2-1.7s1.6.4 1.6 1c0 .5 1.2.7 2.8.5 5.8-1 16.2-1.1 17.1-.2.7.7 1.4.7 2.3 0 .8-.7 12.9-1.1 33.7-1.2 17.9-.1 32.7-.3 32.9-.6.3-.2 15-.5 32.7-.5 28.5 0 32.4.2 32.9 1.6m-1258.2 2.6c1 .2 2 .7 2.4 1.1 1.1 1-10.2 0-12.2-1.2-1.5-.8-.9-1 3.1-.7 2.8.2 5.8.6 6.7.8m1095.8 3.7c.5 3 .4 3.8-.6 3.4-1.5-.6-2.8-5.8-1.9-7.3 1-1.6 1.7-.6 2.5 3.9m-844.3.2c1.5.6 5.7 1.2 9.3 1.5s7.2.7 8 1c3.8 1.4 17.8 3.1 22.4 2.8 7.6-.5 8-.6 8.7-1.7.4-.5 1.1-.8 1.7-.6.7.3.5 1.6-.4 3.8l-1.4 3.4-6.3-.7c-7.1-.8-25.6-4.4-27-5.3-.6-.3-4.2-.8-8.1-1-3.9-.3-7.3-.8-7.6-1.2s-2.7-.9-5.5-1c-2.7-.1-5.4-.6-5.9-1.2-1.4-1.3 8.5-1.2 12.1.2m771.2 11.6c2.3 2.9 4.1 5.5 4.1 5.8s1.1 1.8 2.5 3.3c1.4 1.6 4.4 5.6 6.8 9 2.3 3.4 6.5 9.4 9.2 13.4 2.8 4 7.4 9.6 10.4 12.5 3.2 3.1 5.1 5.7 4.8 6.6-.4 1.2 1.3 7.4 3.8 13 .4 1 .5 2.1.1 2.4-.3.4-.6-.1-.6-1 0-2.9-2.1-1.9-7.5 3.8-2.9 3-5.8 5.5-6.4 5.5-1.4 0-3.1-3.4-2.9-5.7.2-3.3-.2-5.3-1.2-5.3-.6 0-.8 1.1-.4 2.5.5 1.9.2 2.5-1 2.5-.9 0-1.6-.4-1.6-.9 0-.4-1.2-2.5-2.6-4.6-2.2-3.3-2.5-4.5-1.9-8.7.4-2.7.3-5.4-.3-6.1-1.7-2.1-2.5-8.7-1-8.7q1.2-.15-.6-1.5c-1.3-1-1.7-2.3-1.4-4.5s.1-2.9-.8-2.6c-.6.2-2.6-.5-4.2-1.8-2.4-1.7-2.8-2.4-1.7-3.2 2-1.4.8-7.2-1.7-8-1.1-.3-1.7-1.1-1.5-1.8.3-.6-.1-2-.9-3.1-.8-1-1.4-2.7-1.4-3.7s-.4-1.8-1-1.8c-.5 0-1-.6-1-1.3s-.9-2.3-2-3.5-2-2.6-2-3.1-.6-1.1-1.4-1.3c-1-.2-1.1-.9-.5-2.6 1.1-3 2.5-2.2 7.8 4.5M708 623c0 .5 1.5 1 3.3 1.1 2.5 0 2.8.2 1.3.8-2.7 1-6.6.2-6.6-1.5 0-.8.5-1.4 1-1.4.6 0 1 .4 1 1m-635.6 5c.9 0 1.6.4 1.6 1 0 1.5-2.2 1.2-8.1-1.2-6.5-2.6-6.2-2.4-5.5-3.7.4-.6 2.5-.1 5.5 1.5 2.7 1.3 5.6 2.4 6.5 2.4m713.4-1.2c.2.7-.3 1.2-1.2 1.2s-1.6-.7-1.6-1.6c0-1.7 2.2-1.4 2.8.4m747.8 7.9c-.7.7-2.6-.7-2.6-1.9 0-.6.6-.6 1.5.2.9.7 1.3 1.5 1.1 1.7M906.5 641c-.8 1.3-12.5 1.3-14.5 0-1-.7 1.1-1 6.8-1 5.3 0 8.1.4 7.7 1m613 .3c2.8.1 23.9 0 47-.1s44.3.1 47 .3c8 .6 43.6 2.4 61 3.1 20.5.8 23.9 1.1 30 2.2l5 .9-4 .3c-7.1.4-10.8.7-23 2-6.6.7-12.7 1.2-13.5 1.2s-2.2.2-3 .5c-2 .7-11.4 1.1-45 1.8-15.7.4-30.7.9-33.5 1.1-7.2.7-99.5 1-99.5.4 0-.3-8.9-.6-19.8-.8-21.6-.3-56.5-1.8-67.9-2.8-4.8-.4-7.3-1.1-7.3-1.9 0-1.4 10.5-2 49.8-3.1 13.2-.4 22.8-1.1 22-1.5-.7-.5-3.2-.9-5.5-.9-4 0-6-1.1-4.9-2.8.3-.6 14.5-.6 65.1.1m-832.9 8.3c3.4.9 2 2.4-2.2 2.4-2.4 0-3.4.5-3.4 1.5 0 1.4-1.1 1.9-3.7 1.6-1.7-.2-1.6 1.8.2 5.3.8 1.5 1.2 3.3.8 3.9-.3.5-.1.7.4.4.6-.4 1.4.1 1.9 1.1.8 1.7.9 2.7 1.2 8.9.2 2.5.7 3.3 2.1 3.3 1.2 0 2.3 1.1 2.9 2.7.7 1.8 1.1 2.2 1.1 1 .1-2.1 2.1-2.3 2.1-.2 0 1 1 1.5 2.9 1.5 1.7 0 3.3.4 3.6 1 .7 1.1-12.2 1.4-14.9.4-1.2-.4-1.6-2-1.6-5.4 0-2.7-.4-5.1-.9-5.4s-.7-1.5-.4-2.7 0-2.5-.7-2.9c-1.4-.8-4-7.4-4-10 0-.9-.9-3.3-2-5.5s-2-4.1-2-4.3c0-.5 13.6.7 16.6 1.4m351.6.7c31.7.1 57.1.5 56.5.9-1.7.9-170.9 2.1-182.8 1.3-9.7-.7-12.6-1.9-7.1-2.9 1.5-.2 19.1-.2 39.2 0s62.5.5 94.2.7M768 652c8 .6 23.3 1.6 34 2.4s26.8 1.7 35.8 2.1c9 .3 16.9.8 17.5 1 .7.2 21.5.6 46.2 1 37.4.5 45.4.9 47.3 2.1 1.9 1.3 11 1.5 63.7 1.4 40.8 0 61.5.3 61.5 1 0 1-1.1 1.1-79.1 1.4-23.9.1-44 .6-44.7 1-.8.5-1.2 4.8-1.2 14.2 0 10-.3 13.4-1.2 13.5-.7 0-13.4 0-28.3-.1-24.2-.1-33.8-.5-39.3-1.5-.9-.2-2.7-.4-3.9-.4-1.4-.1-2.3-.7-2.3-1.7 0-1.4.3-1.4 1.5-.4 1.1.9 1.8 1 2.8.1.8-.6 1.6-.9 1.8-.6.3.2.6-3.3.7-7.8.3-9.4-1.1-13.2-4.7-13.2-1.5 0-2.7-.8-3.2-2-.8-2-.8-2-.8 0-.1 1.6-.3 1.7-1.1.5-.6-.9-2.8-1.5-6.7-1.6-9.1-.3-28.5-1.4-42.8-2.4-7.1-.5-16.6-1.2-21-1.5s-18.1-1.2-30.5-2c-12.4-.9-29.7-1.7-38.5-1.9-19.1-.5-17.5-.3-17.5-2 0-1.6-5.3-2.5-15.3-2.7-3.7-.1-6.9-.5-7.2-.9-.6-1 58.1-.2 76.5 1m340.5-1c.3.5-.3 1-1.5 1s-1.8-.5-1.5-1c.3-.6 1-1 1.5-1s1.2.4 1.5 1m278.5 2c0 .5-.5 1-1.1 1-.5 0-.7-.5-.4-1 .3-.6.8-1 1.1-1 .2 0 .4.4.4 1m365.6 6.5c1.5 2.3 1.6 3.9.3 17.8l-1.4 15.2-10.9.3c-8 .2-11.1-.1-11.7-1-.4-.7-.5-5.7-.2-11 .4-6.7.2-11.6-.7-15.3-.7-3-1-5.8-.7-6.2.8-.7 11.4-1.9 18.9-2.2 4.1-.1 5 .3 6.4 2.4m-349.6.9c0 .2-.9.6-2 .9s-2 .1-2-.4.9-.9 2-.9 2 .2 2 .4m-322.6 2.5c.3.4-.6.6-1.9.3-1.4-.2-2.5-.6-2.5-.8 0-.8 3.9-.4 4.4.5m304.3 3.3c-.3.8-.6.5-.6-.6-.1-1.1.2-1.7.5-1.3.3.3.4 1.2.1 1.9m-327.2 2c4.2-.5 19.2-.9 20.2-.5 1.9.8 1.6 3.8-.7 5.8-1.9 1.7-2.1 1.7-3.9.1-1.9-1.7-6.8-1.8-10.4-.1-1.1.4-2.3.3-3-.4-1.5-1.5-4.2-1.4-5.6.3-1 1.2-1.6 1.2-3.9 0-1.5-.8-3.9-1.4-5.4-1.4-2 0-2.8-.5-2.8-1.8 0-3 1-3.3 7.9-2.6 3.6.4 7.1.6 7.6.6m590 0c5 .3 10.5.6 12.3.7 4.7.2 3.9 1.8-1.2 2.5-3.7.6-4.3 1-3.9 2.6.3 1.2 0 2-.7 2-.6 0-1.4-.9-1.7-2-.6-2.3-1.4-2.5-3.1-.8-.9.9-1.2.8-1.2-.5 0-1.5-.6-1.7-3.5-1.1-2.5.4-3.5.3-3.5-.6s-.3-1-1.4-.1c-.7.6-1.6 4.3-2 8.8-.3 4.2-1 8.1-1.4 8.5-1.9 1.9-15.6 2.7-26.7 1.4-6.5-.7-9.9-1.6-6.1-1.6 2.1 0 7.1-4.5 5.9-5.3-.5-.3-2.1 0-3.5.7-2.5 1.3-2.6 1.2-3.2-1.8-.3-1.7-1-5.3-1.6-8-.5-2.6-.7-5.2-.4-5.8.6-.9 29.2-.7 46.9.4m-812.7 20.5c-3.2.2-8.4.2-11.5 0-3.2-.2-.6-.3 5.7-.3s8.9.1 5.8.3m18.2.3c0 .5-.4 1-.9 1-.6 0-1.3-.5-1.6-1-.3-.6.1-1 .9-1 .9 0 1.6.4 1.6 1m6 .6c0 .2-.7.4-1.5.4s-1.5-.4-1.5-1c0-.5.7-.7 1.5-.4.8.4 1.5.8 1.5 1m485.7 9.9c2.5 3.8 4.8 8.6 5 10.6.5 3.5.4 3.6-2.3 3.2-2.3-.3-3.8.5-7 3.4-2.2 2.1-4.3 4.6-4.7 5.5-.3 1-1.2 1.8-1.9 1.8s-2.2 1.7-3.3 3.7c-1.1 2.1-2.7 3.9-3.6 4.1-1.8.3-3.6-3.1-2-3.6.6-.2 1.1-1 1.1-1.8s.9-2.8 2-4.4c1.1-1.7 2.9-4.3 4-6 1.1-1.6 2-3.2 2-3.6s1.2-3.2 2.6-6.2c2.6-5.5 2.9-10 .9-15.7l-.6-2 1.6 2c.8 1.1 3.6 5.1 6.2 9m-705.3 28.1c.5 2 .4 3.4-.3 3.8-.6.4-1.3-.5-1.6-2.1-.4-1.5-1.1-3.8-1.6-5.1-1.3-3.2-1.1-7.9.4-10.5 1.1-2 1.3-1.5 1.8 4.3.3 3.6.9 7.9 1.3 9.6m711.3-.9c-.3 1-.5.4-.5-1.2 0-1.7.2-2.4.5-1.8.2.7.2 2.1 0 3m17.4 26.8c.3 3.9-.2 11.1-1.2 16.5-1.7 9.2-5.2 22-6 22-.4 0-.9 1.2-1.1 2.7-.2 1.6-.7 2.7-1.3 2.5-.5-.2-.9-1.4-.7-2.7.2-1.8-.1-2.5-1.3-2.5-.9 0-1.3.4-1 1 .3.5.2 1.8-.4 2.7-.9 1.7-1 1.7-1.7 0-.4-1.2.1-2.8 1.3-4.5 1.1-1.5 2.5-5.5 3.3-8.9.7-3.5 1.6-6 2.1-5.8.4.3 1 .1 1.3-.4.4-.5.2-1.2-.4-1.6-1.4-.9-1.2-3.5.5-6.9 1.6-3 3.5-17 2.8-19.6-.3-.8.4-.4 1.6 1 1.1 1.4 2.1 3.4 2.2 4.5m-12.3 3.3c-.4.2-.8 1.8-.8 3.5l-.1 3.2-1.4-3.2c-1.5-3.6-2.5-10.9-1.6-11.8.3-.4 1.5 1.3 2.6 3.7s1.7 4.4 1.3 4.6m13.1 31.2c-1 .7-1 1.1 0 2.4.8.9 1 1.6.7 1.6-.4 0-.1.6.6 1.3.7.8 1.9 4.2 2.6 7.8.7 3.5 2.3 10 3.7 14.4 1.3 4.4 2.6 10 3 12.5.5 4.4 2.3 10.5 3.7 12.5.3.6 2.5 6.6 4.8 13.5s4.8 13.2 5.5 14 1.6 2.6 2 4c1.6 5.4 5.8 14.6 7.4 16.1.9.9 3 3.2 4.8 5.2 1.8 1.9 6.4 5.9 10.2 8.8l7 5.2 1.1 6.8c1 5.8.9 7.3-.4 10-.9 1.8-1.6 3.9-1.6 4.7 0 3.5-1.1 0-1.4-4.4-.5-6-2.3-10.2-4.8-10.9-1-.4-1.8-1.1-1.8-1.6s-.3-.8-.7-.7c-.5.1-2.2-.5-3.9-1.5-1.8-.9-5-1.9-7.3-2.3s-4.1-1.1-4.1-1.6c0-.4-2-2.9-4.5-5.4-2.5-2.4-4.5-5.1-4.5-5.8s-.7-1.9-1.6-2.7c-2.3-1.9-4.5-6.7-4.9-10.7-.2-2-.8-3.8-1.4-4s-1.1-2.1-1.1-4.3c0-2.1-.4-3.9-1-3.9-.5 0-1-.8-1-1.8s-.3-2.2-.7-2.6c-.8-.7-3.3-7.4-3.7-9.6-.2-.8-.6-4-1-7-.5-3-1.3-6.1-1.8-6.8-.7-.8-.7-1.2.1-1.2.6 0 1.1-1.7 1.1-4 0-2.8-.4-4-1.4-4-.8 0-1.7-1.4-2.1-3.3-.4-1.7-1.4-4.3-2.2-5.6s-1.3-3.4-1-4.7c.2-1.3 0-2.1-.4-1.8-.5.3-.9-.2-.9-1.1s.5-1.3 1-1c.6.4 1-.7 1-2.7 0-2.5-.3-2.9-1-1.8-.8 1.3-1 1.3-1-.1 0-.9.7-2.2 1.5-2.9s1.5-2.2 1.5-3.4c-.1-1.9-.2-1.8-1.6.6-.8 1.6-1.9 2.8-2.4 2.8-1.7 0-1.1-2.6 1-4.5 1.1-1 2-2.5 1.9-3.4 0-1-.2-1.2-.6-.4-.2.7-.9 1.3-1.4 1.3-.6 0-.6-.8.1-1.9.5-1.1 1-3.6 1-5.6 0-4.1 2-8.9 2.8-6.6.2.7-.1 1.7-.9 2.1m-14.7 13.5c-.2 1.4-.8 2.8-1.3 3.1-1 .6-1.1-.2-.3-3.4.9-3 2.2-2.8 1.6.3m253.8 26.9c0 .5.6.3 1.4-.3 1.8-1.5 6.6-.4 6.6 1.6 0 1-.6 1.2-2.1.8-1.3-.4-2.5-.2-2.9.5s-2.1 1.2-3.6 1.1c-1.6 0-6.1-.1-9.9 0-6.7 0-13.9-2.1-11.7-3.5.5-.3 1.8.1 2.8.9 2.4 1.8 3.4 1.9 3.4.1 0-.8 1.2-1.6 2.8-1.8 4.9-.7 13.2-.3 13.2.6m-8 8.6c0 .5-.4 1-.9 1-.6 0-1.3-.5-1.6-1-.3-.6.1-1 .9-1 .9 0 1.6.4 1.6 1m2.7 2.6c-.3.3-1.2.4-1.9.1-.8-.3-.5-.6.6-.6 1.1-.1 1.7.2 1.3.5m-674.2 10.3c2.8.6 8.8 1.4 13.5 1.8l8.5.8v6.9l-5.5-.3c-3-.2-13.6-.6-23.5-1s-18.6-1-19.2-1.4c-2.6-1.6 1.4-4.9 9.7-8 1.9-.8 10.1-.2 16.5 1.2m629 5.2c.7.7.4 1.5-.9 2.5-2.5 1.8-22.9 1.9-32.5.2l-6.6-1.2 4-.8c11.1-2.4 33.9-2.9 36-.7M923 875.9c0 1.2-2.8 1.8-5.7 1.3-3.8-.7-2.6-2.2 1.7-2.2 2.2 0 4 .4 4 .9m733 1.6c0 1.9-3.7 3.8-6.3 3.1-1.2-.3-2.7 0-3.4.6-1.1.9-1.8.7-3-.4-1.4-1.5-1.3-1.8 1.3-3.2 3.8-2 11.4-2.1 11.4-.1m.7 9.1c-.3.4-1.4.3-2.4 0-1.5-.6-1.5-.8-.3-1.6 1.6-1 3.9.4 2.7 1.6m-19.3-.4c.4-.4 1.2.1 1.7 1.1q1.05 1.8 3 1.2c1.1-.4 2.6-.1 3.4.5.9.7 3.2 1 5.7.8 5-.6 29.3 1.8 31.6 3.1 1.1.6.4 1.1-2.6 1.6-8.9 1.5-2.6 3.6 9.1 3 4.2-.2 6.7 0 6.7.7 0 .6 1.1.7 2.8.3 1.5-.4 6.5-.9 11.2-1.1s9.1-.6 9.8-.9 1.1-.1.8.4 2 1.1 5.2 1.4c12.7 1.3 15.4 1.9 15.9 3.8.4 1.5 1.2 1.8 4.1 1.4 1.9-.2 4-.1 4.6.3 1.2.8 10.4 1.3 27.1 1.6 6.1.2 13.2.6 15.8 1 2.7.4 9.2.9 14.5 1.1s10.8.8 12.2 1.3 8.2 1.6 15.2 2.3l12.6 1.3-1.5 2.3c-1.8 2.7-7.3 3.2-9.2.9-1-1.2-4.3-1.4-17.9-1.1-9.2.2-17.8.6-19.2.8-1.4.3-3.7.5-5.2.6-1.7 0-2.8.7-2.8 1.5 0 2.1-2.4 2.5-12.8 2.3-8.3-.2-9.7-.5-11.8-2.6-2.3-2.2-2.9-2.3-16.6-2-9.6.2-18.1-.2-25.8-1.4-18.7-2.7-27.1-3.8-34-4.3-3.6-.3-7.8-1-9.5-1.5-1.6-.5-6.4-1.2-10.5-1.5-9.1-.6-20.1-2.4-21.5-3.4-.5-.4-4.7-1-9.2-1.2-10.3-.4-11.1-1.1-8.9-7.5 1-2.6 2-5.8 2.3-7.1.4-1.6.9-2 1.8-1.2.6.5 1.5.7 1.9.2m155.7 14.8c3.4 0 2 1.7-1.8 2.3-3.6.6-6.3-.5-6.3-2.5 0-.6 1.3-.8 3.1-.4 1.7.3 4 .6 5 .6m-115.3 11.6c3.1.6 2.8 2.4-.5 2.4-5.2 0-10.5-1.2-9.2-2.1 1.4-.8 5.7-.9 9.7-.3m180.2 3.5c0 1.2-6.7 1.2-7.5 0-.3-.5.9-1.1 2.7-1.3 3.7-.4 4.8-.1 4.8 1.3m-26 2.9c0 .5-.5 1-1.1 1-.5 0-.7-.5-.4-1 .3-.6.8-1 1.1-1 .2 0 .4.4.4 1m-81.7 4.4c.9.7 1.7 1.6 1.7 2 0 .3-3.6.6-8 .6s-8-.4-8-.9c0-.4 2.4-1.3 5.3-1.8 7.1-1.4 7-1.4 9 .1M1413 929c0 .5 1.1 1 2.4 1s2.6.7 3 1.5c.3.8 1.2 1.5 2.1 1.5s1.5.9 1.5 2.4c0 1.4.5 2.8 1 3.1.6.3 1 1.7 1 3.1 0 4-4.9 3.3-9.9-1.6-4.3-4.2-4.8-5.4-3-6.6.6-.3.8-1.7.5-3-.4-1.4-.2-2.4.4-2.4.5 0 1 .4 1 1m384.7 3.6c-.3.3-1.2.4-1.9.1-.8-.3-.5-.6.6-.6 1.1-.1 1.7.2 1.3.5m106.3 10.3c0 1.3-3 2.2-4.3 1.4-.7-.4-.2-1 1.3-1.4 1.4-.4 2.6-.7 2.8-.8.1-.1.2.3.2.8m-18.5 1.1c.4.6-1 1-3.5 1s-3.9-.4-3.5-1c.3-.6 1.9-1 3.5-1s3.2.4 3.5 1m-466.9 2c1.4 0 1.9 1.2.8 2.3-1.2 1.2-3.4-.6-3.3-2.7 0-1.1.3-1.5.6-.9.2.7 1.1 1.3 1.9 1.3m9.9 32c-.3.5-2.1 1-3.8 1-2.4 0-2.8-.3-1.7-1 2-1.3 6.3-1.3 5.5 0m-7.5 2c0 .5-.7 1-1.6 1-.8 0-1.2-.5-.9-1 .3-.6 1-1 1.6-1 .5 0 .9.4.9 1m28 3.2c0 1.4-1.9-.1-3.1-2.5-1.2-2.2-1.2-2.2 1-.3 1.1 1.1 2.1 2.3 2.1 2.8m-18 2.8c0 .5-.7 1-1.6 1-.8 0-1.2-.5-.9-1 .3-.6 1-1 1.6-1 .5 0 .9.4.9 1m7.4.6c.9.3 1.6 1 1.6 1.6 0 1.4-4.3.5-4.8-1-.4-1.3.7-1.5 3.2-.6m-4.4 2.4c0 .5-.4 1-.9 1s-1.6.3-2.5.6-1.6.1-1.6-.4c0-.9 1.6-1.7 4.3-2.1.4 0 .7.3.7.9m28 3.5c0 .9-.6 1.2-1.6.8-1.3-.5-1.3-.7-.2-1.4 1.7-1.1 1.8-1.1 1.8.6m-14.6 3.4c1 1.1 2.9 2.4 4.4 3 2.2.9 2.7 1.8 2.8 4.6 0 1.9-.3 3.5-.7 3.5-1.4 0-3.1-3.1-2.6-4.9.3-1.3-.3-2.2-2.2-3.1-5-2.4-5.5-2.7-5.9-3.8-.6-1.9 2.3-1.4 4.2.7m-4.8 1.6c1.5 1.4 2.2 2.5 1.5 2.5-1.9 0-6.1-3.1-5.5-4.1.8-1.3 1-1.2 4 1.6m-5.7.9c.9 1 .6 1.3-1.6 1.3-1.6 0-3.9.3-5.3.7-2.5.6-2.5.6-.2-.5 1.2-.7 2.2-1.6 2.2-2.1 0-1.3 3.6-.9 4.9.6m23.6 5.6c1.4 1.6 1.5 2 .4 2-1.6 0-3.9-1.9-3.9-3.2 0-1.4 1.6-.9 3.5 1.2m-23.4 2c.4 1.4.7 4.3.6 6.5v4l-.4-4c-.3-2.6-1.4-5-3.1-6.8l-2.7-2.9 2.5.4c1.6.2 2.7 1.2 3.1 2.8m23.6 1.5c1.8 1.1 3.4 2.8 3.7 3.8.4 1.7.3 1.8-1.3.3-1-.9-2.1-1.6-2.6-1.6-1.2 0-4.5-3.1-4.5-4.2s.3-1 4.7 1.7m-8.7 2.2c0 1.6 1.6 1.7 2.5.2.5-.6 1.9.1 3.7 2 1.7 1.7 3.8 3.1 4.8 3.1s2.6.3 3.5.6c1.4.6 1.6.2 1.3-2.1-.4-3.5 1.9-4.5 3.1-1.3.6 1.2 1 1.9 1 1.4.2-1.9 3.1 1.8 3.1 4 0 1.7.4 2.2 1.5 1.8.8-.4 1.5-.1 1.5.5 0 1.6-2.9 2.6-4.1 1.4s-10.8 0-11.7 1.4c-.4.6-2.1 1.3-3.8 1.7-2.4.5-3.1.3-3.1-.8 0-.8.5-1.3 1-.9.5.3 1.9.1 3-.5 5-2.4 11.6-4.4 12.6-3.7 1.3.7 1.4.3.5-1.9-.3-.9-1.1-1.3-1.6-1-.6.4-2.7 1-4.7 1.5-3 .7-4 .4-5.8-1.3-1.2-1.1-2.8-1.8-3.6-1.5s-2 0-2.6-.6c-.8-.8-1.5-.6-2.5.8-.8 1.1-1.2 2.3-1 2.7.3.5-.2.8-1 .8-.9 0-1.6-.5-1.6-1 0-.6.5-1 1-1 .6 0 1-1.8 1-4s-.4-4-1-4c-.5 0-1-.5-1-1 0-.6.8-.5 2 .2 1.1.7 2 1.8 2 2.5m14-1.7c0 .5-.4 1-.9 1-.6 0-1.3-.5-1.6-1-.3-.6.1-1 .9-1 .9 0 1.6.4 1.6 1m-16.5 12c.3 0 .5.4.5 1 0 1.4-6.3 0-7.3-1.7-.4-.7-1.5-1.3-2.2-1.3-.8 0-1.5-.4-1.5-1 0-.5 2.3-.1 5 1 2.8 1.1 5.3 2 5.5 2m7.4-2.6c1 1.1.8 1.6-.9 2.1-2.3.7-4.4-.5-2.2-1.2.6-.3 1-.9.6-1.4-.9-1.5 1.2-1 2.5.5m32.6 5.4c2.3 1.7 5.7 7.6 6.2 10.8.3 1.9 1 3.7 1.4 4 1.3.8 1.1 2.4-.3 2.4-.7 0-2.1-1.8-3.1-4-2.3-5-3.7-5.1-3.7-.4 0 2.9-1.1 6.6-2.6 8.3-.1.2-1.6-.6-3.2-1.8-2.9-2-3-2-2.5-.2.7 2.7-3.1 3.7-6.2 1.7-1.3-.9-3-1.6-3.7-1.6s-1.8-1.2-2.5-2.6c-1.1-2.4-1-2.7 3-4.5 2.3-1 5.6-2.8 7.2-3.9 1.7-1.1 3.8-2 4.8-2s1.7-.8 1.7-1.9c0-4.1 1.4-5.9 3.5-4.3m-17.5 2.2c-2.7 2.4-3.4 2.5-4.9.6-1.2-1.5.1-2.1 5.3-2.5 1.7-.1 1.7.1-.4 1.9m25.2 18.2c-.7.7-1.2.8-1.2.2 0-1.4 1.2-2.6 1.9-1.9.2.3-.1 1.1-.7 1.7m-5.2 1.3c0 1.5-2.6 3.2-3.6 2.3-.2-.3-.2-1.3.2-2.2.8-2 3.4-2.1 3.4-.1m-8 2c0 .8.8 1.5 1.8 1.5 1.4 0 1.5.2.2 1-.9.6-1.9.5-2.9-.3-1.1-.9-1.5-.9-1.8 0-.4 1-.7 1-1.7 0-1.1-.9-.9-1.4.8-2.3 2.9-1.7 3.6-1.6 3.6.1m10.5 1.5c-.3.5-1 1-1.6 1-.5 0-.9-.5-.9-1 0-.6.7-1 1.6-1 .8 0 1.2.4.9 1m-4 3c-.3.5-1 1-1.6 1-.5 0-.9-.5-.9-1 0-.6.7-1 1.6-1 .8 0 1.2.4.9 1"/><path d="M1172.3 143.7c-.7.3-1.3 1.6-1.3 2.9v2.4l10.1-.4c5.5-.2 10.3-.6 10.6-.9 1.9-1.9-15.5-5.5-19.4-4m1.2 8.3c-.4.7.2 2.1 1.4 3.3 2.5 2.5 9.5 2.5 12.3 0 2.8-2.6 2.1-3.3-2.9-3.2-2.7.1-6-.2-7.4-.6-1.7-.4-2.9-.2-3.4.5M641.8 552.7c.7.3 1.6.2 1.9-.1.4-.3-.2-.6-1.3-.5-1.1 0-1.4.3-.6.6m668.7 99.3c-.3.5-.1 1 .4 1 .6 0 1.1-.5 1.1-1 0-.6-.2-1-.4-1-.3 0-.8.4-1.1 1m171.3-6.3c.6.2 1.8.2 2.5 0 .6-.3.1-.5-1.3-.5s-1.9.2-1.2.5m-57.7 275.9c0 1.1.3 1.4.6.6.3-.7.2-1.6-.1-1.9-.3-.4-.6.2-.5 1.3m182.4-90.6c-.3.5-.1 1 .4 1 .6 0 1.1-.5 1.1-1 0-.6-.2-1-.4-1-.3 0-.8.4-1.1 1m113.2 71.6c-1.1 1.1.3 2.4 1.8 1.8.8-.4 1.2-1 .9-1.5-.6-1.1-1.8-1.2-2.7-.3m-305.5 34.5c.2.6.8 1 1.3 1s1.1-.4 1.3-1-.4-1.1-1.3-1.1-1.5.5-1.3 1.1M1622.8 12c.2 2.2.6 4 .8 4s.4-1.8.4-4-.3-4-.8-4c-.4 0-.6 1.8-.4 4m16.3 10.6c0 1.1.3 1.4.6.6.3-.7.2-1.6-.1-1.9-.3-.4-.6.2-.5 1.3m24.9 21.5c0 5.2 2.4 4.8 2.8-.4.2-2.8-.1-3.7-1.2-3.7-1.2 0-1.6 1.1-1.6 4.1m0 40.4c0 1.9.5 3.5 1 3.5.6 0 1-1.6 1-3.5s-.4-3.5-1-3.5c-.5 0-1 1.6-1 3.5m-439.9 94.6c-.1 3.3.5 5.4 2.3 7.8 1.3 1.8 2.7 4.7 3 6.6.4 1.9 1.2 3.7 1.8 4.1.7.5.9-.4.4-3-.4-2.3-.3-3.6.4-3.6 2 0 .9-2.7-2.4-6.1-1.9-1.9-3.9-5-4.4-6.9l-1-3.5zm-780.4 21.3c-2.1 1.3-4.5 3.4-5.5 4.7-.9 1.3-2.1 2.9-2.7 3.6-.5.6-2 2.7-3.3 4.5s-5.4 7.6-9.3 12.8c-3.8 5.2-7.9 11-9.1 12.8-1.3 1.8-3.9 5.4-5.9 8-3.2 4.1-8.1 11.8-13.9 21.7-9 15.3-17.7 29.7-20 33-2.9 4.4-5.9 10-11.3 21.5-6.1 13-12.8 27.2-16.7 35.5-2.1 4.4-5.7 12.5-8 18-2.2 5.5-4.5 10.9-5 12-11.6 25.7-13.6 32.4-11.1 36.4 1 1.5 6 2.5 21.6 4.1 14.6 1.6 50.4 7.5 94.5 15.5 7.4 1.4 16.6 2.9 20.4 3.5s7.3 1.3 7.6 1.5c2.6 1.6 25.1 4.3 53.9 6.5 13.1 1 13.5 1 15.7-1.1 2.8-2.6 6.9-11.1 7.8-16 .3-2.1 0-9-.8-15.5-.8-6.6-1.9-20.2-2.5-30.4s-1.6-26.2-2.1-35.5c-1.3-21.7-1.3-87 0-95.5.6-3.6 1.3-15.1 1.6-25.5l.6-19-2.9-3.2c-4.1-4.7-16.8-9-34.7-11.9-10-1.6-42.2-4.4-50.1-4.3-3.3.1-6.3.8-8.8 2.3m39.8 4c5 .8 12.2 2.2 16 3.1 3.9.9 9.4 2.1 12.4 2.6 3 .6 6.9 1.6 8.5 2.3 1.7.8 4.7 1.9 6.6 2.6 7.6 2.8 7.4 1.9 6.6 26.5-1.8 60.4-1.8 80.7 0 105.5 1.7 24.2 2 35.9 1 38.7-.9 2.2-6.6-1.1-6.6-3.8 0-1.2-1.1-6.4-2.5-11.6s-3.7-17.9-5.1-28.2c-2.5-18.2-2.6-19.4-1.9-55.1 1.1-56.5 1.1-55.1-.7-58.5-4.8-8.9-37.9-16.4-70-15.8-11.3.2-11.8-.3-5.8-6l4-3.7h14.2c7.9 0 18.4.7 23.3 1.4m5 168.9c12 2 17.1 3 18 3.7.6.4 2.2 1 3.8 1.4 3.1.7 3.4 2.4 1.1 6.8l-1.6 3.1-9.6-.7c-12.8-.8-18.3-1.6-20.7-2.9-1.3-.8-11.7-1.2-30.5-1.4-15.7-.1-29.5-.5-30.7-.9-1.3-.3-2.3-1.4-2.3-2.5 0-3.7 8-6.3 23-7.3 7.1-.4 45.6.1 49.5.7m743.6-171.7c0 1.1.3 1.4.6.6.3-.7.2-1.6-.1-1.9-.3-.4-.6.2-.5 1.3m-143.3 2.4c-3.9 2.1-5.7 4-3.7 4 1.3 0 9.9-4.8 9.9-5.5 0-1-2.6-.3-6.2 1.5m83.6 3c.3 1.7 1.8 5.7 3.3 8.9 2.5 5.4 3 5.9 5.4 5.4 1.5-.3 3 0 3.3.6.4.6 1.5 1.1 2.4 1.1s-.7-1.5-3.6-3.2c-2.8-1.8-5.2-3.8-5.2-4.5s-.4-2.1-.9-3.1c-.5-.9-1.5-3.2-2.1-5-1.6-4.1-3.5-4.2-2.6-.2m701.6-1c1.4 1.1 2.8 2 3.3 2 .4 0 .7.5.7 1 0 .6-1.5 1.3-3.2 1.7-3.2.7-3.2.7-.8 1.3 1.8.4 2.5 1.3 2.5 3 0 2.7 2.3 3.9 3.6 1.9 2.3-3.6-2.7-12.9-6.9-12.9-1.3 0-1.2.5.8 2m-642.4 1.6c-.3.9-.6 2.3-.6 3.1 0 1.3.3 1.3 1.5.3 1.6-1.3 2.1-5 .6-5-.5 0-1.2.7-1.5 1.6m-40.6 2c0 1 .3 1.4.6 1.1.4-.4 2 .3 3.5 1.4 3.1 2.2 6.9 1.8 6.9-.6 0-1.4-1.2-1.9-7.2-3-3.2-.5-3.8-.3-3.8 1.1m65.7.2c-2.5 2.7-2.1 4.7.4 2.3 1.2-1.1 1.9-2.5 1.7-3.1-.2-.7-1-.5-2.1.8m631.4.9c0 .7-.8 1-1.6.7-.9-.4-1.5 0-1.5 1s.6 1.3 1.5 1c.9-.4 1.5 0 1.5.9 0 .8-.5 1.7-1 1.9-.7.2-.8 1.9-.4 4.7.5 3.3.9 3.9 1.6 2.7 1-1.8 3.8-2.2 3.8-.6 0 .5.5 1 1.1 1s.9-1 .7-2.3c-.2-1.2-.8-2.2-1.5-2.2-1.9 0-2.6-1.3-3.4-5.8-.3-2.3-.7-3.7-.8-3m-637.6 5.3c-.8 1.6-1.5 4-1.5 5.5s-.6 2.5-1.5 2.5c-2.3 0-9.8-4.1-11.8-6.4-1.7-2.1-1.7-2.1-3.2-.2-2.1 2.7-2.1 5.3 0 3.6.9-.7 1.7-1.1 1.9-.9 1.1 1.1.9 8.9-.3 10.2-.9 1.2-1 2.5-.2 5.4 2.2 7.6 5.3 24 5.7 30.3.9 12.6 1.9 16.9 3.5 15.3.8-.8.6-3.6-.5-9.4-2.6-14.2-4.9-31-5.3-39.7-.4-7.5-.3-8.2 1.4-8.2 1 0 3.4 1.3 5.3 3 1.9 1.6 4 2.9 4.6 3 .6 0 1.4-2 1.7-4.4.4-2.4 1.3-6.2 2-8.5 1.7-4.7.5-5.5-1.8-1.1m-27.1 1.1c-1.9 2.1-1.9 2.1.9.8 1.5-.7 2.7-1.6 2.7-2.1 0-1.4-1.6-.9-3.6 1.3m424.6.5c0 1.4.3 1.4 1.5.4.8-.7 1.5-1.4 1.5-1.6s-.7-.4-1.5-.4-1.5.7-1.5 1.6m1 2.4c-.9.6-1 1-.3 1 .6 0 1.5-.5 1.8-1 .8-1.2.4-1.2-1.5 0m-482.4.8c-.3.5.5 2.6 1.9 4.6 3.9 5.7 5.6 9.6 4.9 10.7-.4.7-1.6 0-3-1.7-1.3-1.6-2.3-2.4-2.4-1.7 0 .6 1.2 2.5 2.8 4.1 4.3 4.5 6.2 7.5 6.2 9.4 0 3.1 1.6 1.9 2.8-2.1 1.6-5.1 1.6-5.4-1-8.4-1.3-1.4-3.3-4-4.6-5.9-5.8-8.4-7-9.9-7.6-9m667.4.9c0 1.4 2.3 6.9 5.1 12.5.5 1 .9 3.2.9 5-.1 3-.2 3.1-1.4 1.5-2.1-2.7-3.5-2.1-2.7 1 .5 1.8 1.5 2.9 3 3.1 1.2.2 2.5 1 2.8 1.8s1 1.4 1.6 1.4 2 .9 3.2 2c1.9 1.8 2.6 1.9 4.9.9 1.4-.7 2.6-2 2.6-3.1 0-1.2.7-1.8 2.3-1.8 4.7-.1 8.9-5.9 6.1-8.7-.8-.9-1.2-2.3-.9-3.1s0-1.9-.7-2.3c-.9-.6-.9-1.1.1-2.3 1.7-2 .2-2-2.3-.1-1 .8-2.4 1.1-3 .8-.6-.4-.5 0 .2.9 1 1.3 1 1.8.1 2.4-.7.4-1.5.2-1.7-.4-.2-.7-1.7-1.2-3.4-1.2-2.4 0-2.8-.3-1.9-1.3.6-.7.9-2.8.8-4.5-.2-3.5-2-4.4-11.4-5.5-3.4-.4-4.3-.2-4.3 1m-644.2 1c.7.3 1.6.2 1.9-.1.4-.3-.2-.6-1.3-.5-1.1 0-1.4.3-.6.6m4.9 1.3c1.2.5 3.4.5 5 0 2.4-.7 2.1-.8-2.2-.9-3.8 0-4.5.2-2.8.9m625.1 1c-5.2.6-6.4 1.3-5.3 3 .6.9.9.9 1.5 0 .5-.8 1.5-1 2.6-.6 1.5.6 1.6.9.4 1.6-1.1.7-.8 1 1.3 1.5 1.4.4 2.5 1.2 2.4 1.9-.1.6.4 1 1.1.8.7-.1 3 .7 5.2 1.8s4 1.9 4 1.6c0-1.9-4.4-9.6-5.5-9.6-.8 0-1.8-.6-2.2-1.3-.6-.8-2.3-1.1-5.5-.7m6.9 6.6c-.3.3-1.2.4-1.9.1-.8-.3-.5-.6.6-.6 1.1-.1 1.7.2 1.3.5m-645-2c.7 4.5 1.9 6.4 4 6.4 2.2 0 .8-4.9-2.2-7.9l-2.4-2.5zm36.1-1.3c-2.9 1.1-3.8 2.7-1.5 2.7 2.9 0 5.7-1.3 5.7-2.6 0-1.6-.4-1.6-4.2-.1m-25.1 3.8c.6.6 4.5 1.3 8.5 1.5 8.8.5 6.5-1-3.2-2-5-.6-6.2-.5-5.3.5m709.8.9c.3.5 1 1 1.6 1 .5 0 .9-.5.9-1 0-.6-.7-1-1.6-1-.8 0-1.2.4-.9 1m-4.2 1.2c-.8 1-.8 1.8.2 3.1 1.5 2.1 2.6.3 1.6-2.6-.6-1.6-.9-1.7-1.8-.5m10.4 1.5c-1.5 1.4-.7 4.3 1.2 4.3 1.4 0 1.7-.6 1.3-2.5-.4-2.5-1.3-3.1-2.5-1.8m-44.7 5.8c0 .8.2 1.5.4 1.5s.6-.7 1-1.5c.3-.8.1-1.5-.4-1.5-.6 0-1 .7-1 1.5m4.5 7c-.3 1.4-.7 3.5-1 4.8-.2 1.2 0 2.8.4 3.6 1.7 2.6 3 0 2.8-5.4-.2-5.8-1.3-7.3-2.2-3m-798.3 2.1c1 1 2 1.5 2.4 1.2.3-.4-.5-1.2-1.8-1.8-2.2-1.2-2.2-1.2-.6.6"/><path d="M1252.7 252.3c-.3.9-.9 4-1.3 6.8-.5 4-.4 5.5.8 6.3.8.6 1.7 3.4 2 6.6.6 6.2.2 8-1.7 8-1.6 0-2.5-2.2-2.6-6.3-.1-5.6-1.7 0-1.8 6.3-.2 7-1.5 9.6-3 5.7-1.2-3-3.1-2.8-3.1.4 0 1-.3 1.9-.7 1.9-.5 0-.9 1.8-1 4-.1 3.5.2 4 2.2 4 2.6 0 5.1 4.7 4.1 7.7-.4 1-3.8 3.3-7.6 5.1-4.6 2.2-6.7 3.7-6.4 4.6.3.8.1 1.7-.5 2.1-.6.3-1.1 1.6-1.1 2.8 0 1.6.3 1.8.9.9.4-.8 1.7-1.3 2.7-1.2 4.7.5 7.4-.1 7.4-1.6 0-.8.5-1.2 1-.9.6.3 1 1.3 1 2 0 1.6-5.7 8.5-7 8.5s-11 9.5-11 10.8c0 .7 1.2 1 3 .7 1.7-.2 3 .1 3 .7s.6.6 1.5-.2c.8-.7 1.5-2 1.5-2.8 0-1.3.2-1.3 1.3.3 1 1.2 1.6 1.4 2.1.7.4-.7 1.8-1.2 3.1-1.2 1.2 0 2.6-.7 2.9-1.6.8-2 2.6-.8 2.6 1.7 0 3.5-4.2 9.5-6 8.4-.5-.3-1 0-1 .8 0 2.5-2.7 3.8-8.2 4-4.8.2-5.3 0-5.6-2.1-.2-1.2-.7-2-1.1-1.8-.4.3-.7-1.3-.7-3.4.1-2.2-.2-4-.5-4-1.2 0-3.6-11.6-2.8-13.7.4-1.2 2-2.3 3.8-2.6 2.7-.6 3-.9 2.2-2.9-.5-1.3-1.6-2.3-2.5-2.3s-2.1-.6-2.5-1.3c-.5-.8-1.2-1.4-1.7-1.4-1.8 0-3.1-1.4-3.7-3.8-.3-1.4-1-4.1-1.5-6-.9-3.2-1-3.3-1.1-.8-.1 1.5.4 5 1 7.9.9 3.9.8 5.7-.1 7.5-1.1 1.9-1 2.7.2 4.6 4.7 7.5 11.6 34.8 13.3 52.8.4 3.8 1.5 7.8 2.6 9.7 2 3.2 2 3.4.3 6.3-1.8 3-4.4 4.1-4.4 1.8 0-1.1-5.8-10.8-7.1-11.8-.7-.6-1.6-4.3-2.9-11.5-.4-2.8-1.3-6.1-1.8-7.5-1.3-3.1-.5 10.1.8 14 .5 1.4 1.1 3.8 1.5 5.4.3 1.6 1.7 4.3 3 6 3 4 7.7 15.6 7 17.4-.3.7.9 2.5 2.5 3.9 2.7 2.2 4.4 6.3 2.1 4.8-.5-.3-1.3 0-1.7.6-.7 1.2-10.6.5-14.7-1-4.3-1.6-7.7-2.1-7.7-1.2 0 .4 3.2 1.9 7 3.1 3.9 1.3 6.8 2.5 6.6 2.7-.6.7-17.5-1.6-20.1-2.6-1.1-.5-3.3-1.4-4.8-2-3.4-1.3-6.7-1.4-6.7-.2s10.8 5.3 12 4.6c.5-.3 2.1 0 3.7.6 3.9 1.5 23.5 3.9 30.5 3.7 4.8-.1 5.8-.5 5.8-1.9 0-1-.9-1.9-2.2-2.1-3.4-.5-3.1-2.3.7-3.7 4-1.4 5.5-.9 5.5 2 0 2.7 3.9 2.5 6.7-.5 2.6-2.7 1.9-4.4-.8-2-1.7 1.6-4.9 1.3-4.9-.3 0-.4 1.4-1.7 3-2.8s3-2.5 3-3.1c0-1.3-4.8-2.5-5.5-1.4-.7 1.2-8.4 5-10 5-1.5 0-3.8-3.4-2.9-4.3.3-.3-.4-1-1.5-1.7-3-1.5-2-4.8 4.6-14.8 5.9-8.8 7.9-10.4 5.7-4.5-1.7 5-1.7 6.3.1 6.3.8 0 1.5-.9 1.5-1.9 0-1.1.5-2.3 1-2.6.6-.3 1-1.7 1-3 0-1.4 1.7-4 4.5-6.8s4.3-5.1 3.9-6c-.3-.8.4-4.6 1.6-8.4 2.5-7.8 2.1-17.8-.8-21.3-1.7-1.9-1.7-1.9-4.5.5-3.1 2.7-8.1 13-7.1 14.6.4.7 1.5.3 2.8-.8 2.9-2.6 7.5-4.8 8.2-4 .4.3.3 1.8 0 3.3-.5 1.9-1.2 2.5-2.6 2.1-1.1-.3-2.6.3-3.5 1.3-1 1.1-2.5 1.5-4.1 1.2-2.8-.5-4.3.9-7.5 7.5-2.3 4.6-2 7.7.6 6.7.8-.3 1.5-1 1.5-1.6 0-.5.4-.6 1-.3.5.3 2-.1 3.4-1 1.9-1.2 2.6-1.3 3.2-.4.7 1.2-2.3 4.3-9 9.1l-2.9 2.2.6-2.6c.6-2.2.4-2.5-1.7-2.1-3.2.6-3.9-1.4-4.2-12-.2-8.1-.1-8.7 1.8-8.7 2.4 0 9.8-4 9.8-5.3 0-.5.9-2 2-3.4s2-3.5 2-4.7c0-1.1 1.2-4.6 2.6-7.6 2.5-5.4 2.6-5.5 3.8-3.1.7 1.3 1.5 2 1.8 1.5.6-.9-1.5-13.6-3.5-21.4-1.6-6.5-2.1-20-.7-20 .6 0 1.4-1 1.9-2.3.9-2.2.9-2.1 2.1.8 2.6 6.7 3.7 8.1 7.2 9.8 3.4 1.7 4.3 1.7 14.4.3 6-.8 11-1.3 11.2-1.1.3.2.7 2.4.9 5 .3 2.5.8 4.5 1.2 4.5.3 0 1.6-2.3 2.8-5l2.1-4.9-2.1.2c-3.4.3-2.2-2.9 2.9-8.2 3.9-4.1 4.4-5.1 4.4-9.4 0-5.4-1.6-5.6-2.6-.3-.8 4.3-4 9.6-5.8 9.6-2.1 0-2.5-3.5-.9-8.2 2.2-6.1 4.1-15.8 3.3-16.3-.4-.2-1.3 2-1.9 5.1-1.1 4.8-1.5 5.4-3.3 4.9-1.4-.5-2.1-.1-2.5 1.4-.9 3.4-5.8 5.1-14.6 5.1-7.4 0-7.9-.1-7.4-2 .3-1.2-.1-2.1-1.2-2.5-1.7-.5-3.5-5.8-4.5-13-.9-6.5-4.2-16-4.9-14.2M1263 290c0 1-3.1 2.3-3.8 1.5-.8-.7 1.9-3.5 2.9-2.9.5.3.9.9.9 1.4m18 .9c0 1.6-.6 3.1-1.2 3.4-2.2.8-4.8-1.3-4.8-3.8 0-2.1.5-2.5 3-2.5 2.6 0 3 .3 3 2.9m-31.6 28.7c.5 1.6 0 2.3-2 3.3-3.2 1.4-3.9 1-2.5-1.6.5-1 1.2-2.7 1.6-3.7.6-2.2 1.9-1.3 2.9 2m573.2-64.8c-.8 1.3 1.1 3.5 2.3 2.8.6-.4 1.1-1.1 1.1-1.6 0-1.1-2.8-2.1-3.4-1.2"/><path d="M1285.1 260.7c0 3.6.3 4.3.9 2.8 1.2-2.8 1.2-7.5 0-7.5-.5 0-1 2.1-.9 4.7m559.4-3.8c-.3.6-1.5 1.1-2.5 1.1-1.1 0-3.7 1.7-6 3.8-2.2 2.2-4 3.5-4 3 0-1.4-4.9 2.6-5 4 0 .8.3 1.2.8 1 7.1-3.3 10.2-5 10.2-5.9 0-.6.7-.9 1.5-.6.8.4 1.7.2 2.1-.4.3-.5 1.4-.7 2.4-.4 2.6.8 4.3-2.4 2.5-4.8-.8-1.2-1.5-1.4-2-.8m-544.8 5.8c-.4 2.1-.2 4.2.3 4.7.7.7 1-.7 1-3.7 0-5.7-.5-6-1.3-1m519.8 1.3c-.3.5-.1 1 .4 1 .6 0 1.1-.5 1.1-1 0-.6-.2-1-.4-1-.3 0-.8.4-1.1 1m-616.5.5c0 .5.5 1.7 1 2.5s1 1 1 .5c0-.6-.5-1.7-1-2.5s-1-1.1-1-.5m641.1 3.9c-.7.8-.9 2.1-.5 2.7.5.9 1 .5 1.6-1.1 1-2.8.5-3.6-1.1-1.6m-653 2.2c0 1.1.3 1.4.6.6.3-.7.2-1.6-.1-1.9-.3-.4-.6.2-.5 1.3m648 3.1c0 1.2-1 2.7-2.1 3.3-2.5 1.3-2.8 5.3-.3 4.8 1.8-.3 3.7-5.9 3-8.6-.3-1.2-.5-1-.6.5M1680 290.3c0 11.2.2 13.4 1.5 13.4 1.2 0 1.5-2 1.5-11.9V280h2.5c1.6 0 2.5-.6 2.5-1.5 0-1.1-1.1-1.5-4-1.5h-4zm-469.8-4.8c0 1.6.2 2.2.5 1.2.2-.9.2-2.3 0-3-.3-.6-.5.1-.5 1.8m94.9 1.1c0 1.1.3 1.4.6.6.3-.7.2-1.6-.1-1.9-.3-.4-.6.2-.5 1.3m528.7 1.1c.7.3 1.6.2 1.9-.1.4-.3-.2-.6-1.3-.5-1.1 0-1.4.3-.6.6m-532.8 3.8c-.7.9-1.1 1.7-.8 2 .2.2 1.2-.4 2.1-1.5s1.3-2 .8-2-1.4.7-2.1 1.5m-6 5.7c0 .7.3 2.4.7 3.7.6 2.2.6 2.2 1.9-.9 1.8-4.1 1.8-4-.6-4-1.1 0-2 .6-2 1.2m.6 8.5c-.6 1.4-.5 1.5.5.6.7-.7 1-1.5.7-1.8s-.9.2-1.2 1.2M1662 308c0 .5.5 1 1 1 .6 0 1-.5 1-1 0-.6-.4-1-1-1-.5 0-1 .4-1 1m-438.9 21.6c0 1.1.3 1.4.6.6.3-.7.2-1.6-.1-1.9-.3-.4-.6.2-.5 1.3m65.6-.9c-.4.3-.7 1.1-.7 1.7s.5.5 1.2-.2c.6-.6.9-1.4.7-1.7-.3-.3-.9-.2-1.2.2M1702 340c0 .5.5 1 1 1 .6 0 1-.5 1-1 0-.6-.4-1-1-1-.5 0-1 .4-1 1m-473 1c0 .5.5 1 1 1 .6 0 1-.5 1-1 0-.6-.4-1-1-1-.5 0-1 .4-1 1m-66 5.5c1.3 1.4 2.6 2.3 2.8 2 .7-.7-2.9-4.5-4.1-4.5-.6 0 0 1.1 1.3 2.5m-6.4.3c-.8 1.3 2.7 6.5 3.8 5.5.3-.3.6.5.6 1.8 0 2.1 3.1 6.9 4.5 6.9.2 0 0-1.3-.5-2.9-.9-3.3-3.9-8.1-5-8.1-.4 0-1.1-1-1.7-2.2-.6-1.5-1.2-1.8-1.7-1m53.6 3.2c0 1.4.2 1.9.5 1.2.2-.6.2-1.8 0-2.5-.3-.6-.5-.1-.5 1.3m-57.7 1c-.3.5-.2 1 .3 1 .6 0 1.8 1.9 2.8 4.2 1.7 4.1 1.8 4.2 2.2 1.5.2-1.6-.3-3.4-1.2-4.3-.9-.8-1.6-2-1.6-2.5 0-1.2-1.7-1.2-2.5.1m45.2 5.6c-1.9 5.8-1.6 10.4.9 12.5.8.6 1.4 1.7 1.4 2.4 0 1.7 7 8.6 8.1 8 1.6-1 1-2.7-2.4-6.9-5.1-6.3-6-8.4-5.4-13.5.9-7.5-.5-8.9-2.6-2.5M1699 359c0 .5.5 1 1 1 .6 0 1-.5 1-1 0-.6-.4-1-1-1-.5 0-1 .4-1 1m63.8.7c.7.3 1.6.2 1.9-.1.4-.3-.2-.6-1.3-.5-1.1 0-1.4.3-.6.6m-501.2 1.9c-.9 2.4-.7 2.8.9 1.4 1.7-1.4 2-3 .6-3-.5 0-1.2.7-1.5 1.6m-95.6 1.3c0 .6.5 1.3 1.1 1.6.6.4.8 1.3.5 2.1s.1 1.4.9 1.4c1.8 0 1.8-.2.3-3.5-1.1-2.5-2.8-3.4-2.8-1.6M45.8 364.7c.7.3 1.6.2 1.9-.1.4-.3-.2-.6-1.3-.5-1.1 0-1.4.3-.6.6m1708.2 1.7c0 1.8 5.8 3.2 7.2 1.8.6-.6.7-1.6.2-2.3-.5-.9-.9-.8-1.5.7-.7 1.7-.8 1.7-.8.1-.1-2.1-5.1-2.4-5.1-.3m-578 .8c0 .4.4.8.9.8s1.6.3 2.5.6c1.1.4 1.6.1 1.6-1s-.8-1.5-2.5-1.4c-1.4.1-2.5.6-2.5 1m-6 4c0 1.8 1.8 3.4 2.8 2.4.3-.4-.2-1.4-1.1-2.3-1.6-1.6-1.7-1.6-1.7-.1m558 1.3c0 1.1 1.1 1.5 4 1.5s4-.4 4-1.5-1.1-1.5-4-1.5-4 .4-4 1.5m-429.2 3.2c1.2.2 3.2.2 4.5 0 1.2-.2.2-.4-2.3-.4s-3.5.2-2.2.4M1760 377c0 .5.5 1 1.1 1 .5 0 .7-.5.4-1-.3-.6-.8-1-1.1-1-.2 0-.4.4-.4 1m-433.5 3c.3.5.8 1 1.1 1 .2 0 .4-.5.4-1 0-.6-.5-1-1.1-1-.5 0-.7.4-.4 1m-206.5 3c0 .5.5 1 1.1 1 .5 0 .7-.5.4-1-.3-.6-.8-1-1.1-1-.2 0-.4.4-.4 1m137.8 1.8c-2.5 1.5-3.9 4.2-2.2 4.2 1.3 0 7.4-4.2 7.4-5.1 0-1.4-2.2-1-5.2.9m-72.3.2c.3.5.8 1 1.1 1 .2 0 .4-.5.4-1 0-.6-.5-1-1.1-1-.5 0-.7.4-.4 1m184.5 5c.6 1.1 1.7 2 2.5 2 1.3 0 1.3-.3.3-2-.7-1.1-1.9-2-2.6-2-1 0-1 .5-.2 2m-238.2 1.7c.7.3 1.6.2 1.9-.1.4-.3-.2-.6-1.3-.5-1.1 0-1.4.3-.6.6m62.7.3c.3.5 1.1 1 1.6 1 .6 0 .7-.5.4-1-.3-.6-1.1-1-1.6-1-.6 0-.7.4-.4 1M632 393.6c0 .8.5 1.2 1 .9.6-.3 1-1 1-1.6 0-.5-.4-.9-1-.9-.5 0-1 .7-1 1.6m567 .9c.1 1.7 5 4.7 6.6 4.1 2.1-.8.8-2.6-2-2.6-1.2 0-2.7-.5-3.4-1.2s-1.2-.8-1.2-.3m43.7 4.8c-.4 3.1.5 4.7 3.1 4.7.6 0 1.2-.9 1.2-2s-.4-2-1-2c-.5 0-1-.6-1-1.4 0-3-1.8-2.5-2.3.7m-118.6 5.1c1.2 8 1.1 11.8-.3 11-.6-.4-.8-.3-.5.4.4.5 1.6.8 2.6.5 2.4-.6 3.3-5.9 1.4-7.8-.7-.8-1.3-2.9-1.3-4.8 0-2-.6-3.7-1.3-4-1-.4-1.2.6-.6 4.7M132 401c0 .5.4 1 .9 1 .6 0 1.3-.5 1.6-1 .3-.6-.1-1-.9-1-.9 0-1.6.4-1.6 1m1608 0c0 .5.5 1 1 1 .6 0 1-.5 1-1 0-.6-.4-1-1-1-.5 0-1 .4-1 1m4.8-.3c.7.3 1.6.2 1.9-.1.4-.3-.2-.6-1.3-.5-1.1 0-1.4.3-.6.6m7.7 0c-1.1.3-2.5 1.1-3.1 1.8-.6.8-2.2 1.9-3.6 2.4-2 .7-2.8 1.9-3.3 5-.7 4.4-1.8 5.1-3.5 2.3-.9-1.3-1-.9-.6 2.2.7 5.3 2.4 6.8 6.5 6 2.5-.5 3.1-1.1 2.9-2.8-.2-1.1.5-2.9 1.4-3.8 2.5-2.5 3.4-6.8 1.7-7.9-.8-.5-.9-.9-.3-.9.5 0 1.9.7 3 1.5 2.3 1.7 4.3 2 2.6.3s-1.5-3.9.6-5.4c1.6-1.3 1.6-1.3-.3-1.3-1.1.1-2.9.3-4 .6m-1623.8 4.8c-1 1.4-1.5 3-1.2 3.5.3.6-.1 1.3-.9 1.6-2.3.9-2 2.3.4 1.7 1.1-.3 2-1.3 2-2.3s.7-2.5 1.5-3.4c1.6-1.5 2-3.6.8-3.6-.5 0-1.6 1.2-2.6 2.5m991.4 1.1c0 1.1.3 1.4.6.6.3-.7.2-1.6-.1-1.9-.3-.4-.6.2-.5 1.3m591.9-.6c0 .5.4 1 .9 1 .6 0 1.3-.5 1.6-1 .3-.6-.1-1-.9-1-.9 0-1.6.4-1.6 1m-604.5.9c-.3.5-.1 1.2.5 1.6 1.2.7 3-.2 3-1.6 0-1.2-2.7-1.2-3.5 0m-3.5 3.6c0 .8.7 1.5 1.5 1.5s1.5-.4 1.5-.9-.7-1.1-1.5-1.5c-.9-.3-1.5 0-1.5.9m598.6 1.2c-.3.4-.6 1.5-.6 2.5 0 1.3.7 1.8 2.5 1.8 1.4 0 2.5-.6 2.5-1.3 0-1.4-3.5-3.9-4.4-3m57.6 2.3c0 1.4.2 1.9.5 1.2.2-.6.2-1.8 0-2.5-.3-.6-.5-.1-.5 1.3M123 416.5c0 .8.5 1.5 1 1.5.6 0 1 .9 1 2 0 2.5-1.8 2.6-3.6.2-1.2-1.5-1.3-1.5-1.4-.1q0 3 5.1 4.2c2.6.7 2.6.6 2.6-4.3 0-4.6-.2-5-2.3-5-1.5 0-2.4.6-2.4 1.5m914.3 0c-.3.9-.3 1.9.1 2.2.3.4.6-.1.6-1 0-.8.6-1.8 1.3-2 .9-.4.9-.6-.1-.6-.7-.1-1.5.6-1.9 1.4m75.4 1.2c.6 1.5 3.3 1.8 3.3.4 0-.5.8-1.1 1.8-1.4.9-.2.1-.4-1.9-.3-2.5.1-3.5.5-3.2 1.3m5.3 2.6c-1.2 2-1.2 2.1.2.9 1.3-1 1.7-1 2.1 0 .4.9.6.7.6-.4.1-2.6-1.4-2.9-2.9-.5m-231.3 2.4c-1.2 1.1-.7 4 .9 5.3 2.1 1.8 10.6 3 12.2 1.8 1.7-1.5 1.5-4.2-.6-6.1-1.9-1.7-11.1-2.4-12.5-1m235.8.3c-.3.5.2 1 1.2 1 1.1 0 2.4.5 3.1 1.2.9.9 1.2.8 1.2-.4 0-2.4-4.3-3.8-5.5-1.8m628 0c-.3.5-.1 1 .4 1 .6 0 1.1-.5 1.1-1 0-.6-.2-1-.4-1-.3 0-.8.4-1.1 1m20.1-.1c-.3.5.5 1.1 1.9 1.3 2 .4 2.3.3 1.4-.8-1.3-1.6-2.5-1.8-3.3-.5m-1655.1 1c-.3.5-.1 1.2.5 1.6.5.3 1-.1 1-.9 0-1.8-.6-2.1-1.5-.7m1127.5 0c0 .5.5 1.3 1 1.6.6.3 1 .2 1-.4 0-.5-.4-1.3-1-1.6-.5-.3-1-.2-1 .4m-118.9 3.4c.2.1 1.1.8 2 1.5 1.3 1 1.8 1 2.2-.1.3-.8-.4-1.4-2.1-1.5-1.4-.1-2.4-.1-2.1.1m617.5 2.3c-1.8 1.8-1.8 1.9-.2 2.2 2.2.5 2.9-.2 2.4-2.4-.3-1.6-.4-1.6-2.2.2m-551.6.2c0 .8 4.3 3.2 5.7 3.2.3 0-.2-.9-1.2-2-1.8-2-4.5-2.7-4.5-1.2m58.2-.1c.2.4 1 2 1.7 3.6 1.3 2.4 1.2 3.2-1 7.8-1.3 2.9-3.5 5.9-4.9 6.8s-3.3 2.3-4.3 3.2c-1.7 1.6-1.7 1.7.3 2.2 1.4.4 2 1.3 2 3.4 0 2.7 4.9 15.2 6.1 15.3.5 0-.8-6.6-3-15.5-.8-3.5 2.1-8.5 5-8.5 2 0 3.3-4.5 3-10-.2-5-.8-6.3-3.2-7.8-1.2-.8-1.9-1-1.7-.5m-113.5.9c-1.1 1.1.3 2.4 1.8 1.8.8-.4 1.2-1 .9-1.5-.6-1.1-1.8-1.2-2.7-.3m123.1 1.6c-.8 1.3-1.9 3.4-2.3 4.8l-.7 2.5 2-2.4c2.2-2.4 3.7-5.9 2.9-6.7-.2-.3-1.1.6-1.9 1.8m494.2 1.3c0 .8.2 1.5.4 1.5s.6-.7 1-1.5c.3-.8.1-1.5-.4-1.5-.6 0-1 .7-1 1.5m-550.6 3c2.2 1.7 3.6 1.9 3.6.6 0-1-2.4-2.1-4.3-2.1-.7 0-.3.7.7 1.5M139 444c0 .5.5 1 1 1 .6 0 1-.5 1-1 0-.6-.4-1-1-1-.5 0-1 .4-1 1m1093.7 7.7c-1.4 1.3-.6 2.3 1.8 2.3 2.8 0 3.4-1.5.9-2.4-1.9-.7-1.9-.7-2.7.1m22.1 2c-1.5.4-1.8 1.6-1.8 7 0 4.7.3 6.4 1.3 6 .6-.2 1.3-1.9 1.3-3.8.1-1.9.5-4.9.9-6.7.4-1.7.6-3.1.4-3.1-.2.1-1.2.3-2.1.6m-5.4 18.4c-.4.7-.8 2.8-.9 4.8-.2 2-.6 5.8-1 8.5-.6 3.6-.5 4.7.4 4.2.6-.4 1.1-1.8 1.1-3 0-1.3.7-2.9 1.5-3.6 1-.8 1.5-3.1 1.5-6.6 0-5.1-1-6.8-2.6-4.3m12 5.2c.3 1 .6 3.4.6 5.3s.4 3.4.9 3.4c1.2 0 .4-8.1-1-9.4-.9-.8-1-.7-.5.7m-18.4 6.4c0 2.1-.4 4.5-.9 5.3-.6.8-.7 1.8-.4 2.3.8 1.4 3.3-5 3.3-8.4 0-1.6-.4-2.9-1-2.9-.5 0-1 1.7-1 3.7m326.5-1.6c-3.1 1.9-8 2.5-8.9 1.1-.3-.5-2.7-.6-5.3-.2s-6.1.4-7.7-.1c-3.7-1.1-3.6-1.1-3.6-.1 0 .8 2.3 2.2 15 8.9 13.2 7 19.5 10.5 23.7 13.4 2.4 1.6 4.8 2.9 5.2 2.9s2.7 1.4 5 3c2.3 1.7 5.3 3.5 6.7 4 1.3.5 2.4 1.4 2.4 2 0 .5.5 1 1 1 .6 0 1.8.8 2.9 1.7 1 1 3.8 2.9 6.2 4.3 9 5.3 29.6 19.6 35.2 24.5.9.8 2 1.5 2.3 1.5.9 0 14.8 10.1 15.6 11.3.3.6 1.4 1.2 2.3 1.3 1 .1 3 1.4 4.4 2.8 1.5 1.4 3 2.6 3.4 2.6 1.7 0 13.2 12.8 20.1 22.4 3.7 5.1 6.9 8.1 7.4 6.8.5-1.5 4.4-1.6 5.9-.1 1.1 1.1 8.5-.5 10.9-2.3.8-.5 1.4-.1 1.7 1.3.5 1.8 1.1 2.1 3.7 1.6 2.6-.6 3.2-.3 4 1.8 1.3 3.5 3.4 4 7.2 1.7 3.1-1.8 3.5-1.9 7-.3 2 .9 4.6 2.8 5.7 4.2 2 2.4 2 2.4 3.5.4.8-1.1 1.6-2.8 1.6-3.7 0-2.4 3.6-3.2 6.2-1.4 2.8 2 5.4 2 6.2.1.8-2.3 4.6-1.8 7.2 1 1.3 1.4 3.3 2.5 4.4 2.5 1.7 0 2 .4 1.5 2-.8 2.4 2 2.9 2.9.5.3-.8.9-1.4 1.3-1.4.4.1 1.6-.1 2.6-.6.9-.4 2.6-.5 3.7-.2 1 .3 2.1 0 2.2-.5.6-1.6 4.8.9 4.8 2.7 0 .8.6 1.5 1.4 1.5s1.7.6 1.9 1.2q.6 1.5.6 0c.1-.6.8-1.2 1.6-1.2s1.5-.6 1.5-1.4c0-.9 1.5-1.4 5.3-1.5 2.8 0 6.5-.3 8.1-.7 2.6-.5 2.8-.4 2.4 1.4-.7 2.5 1.6 3.7 3.2 1.7.7-.8 1.6-1.2 2.2-.9.5.3 1.6 0 2.5-.7 1.3-1.1 1.7-1 2.8.4.9 1.3 1.4 1.4 1.7.5.4-1 1.6-.9 6 .1 3.1.8 6.1 1.1 6.7.7.7-.5 1.1.1 1.1 1.3s.5 2.1 1 2.1c.6 0 1-.5 1-1.1 0-.8.5-.8 1.5.1 1.2 1 1.8 1 3 0 .8-.7 1.5-.8 1.5-.4 0 .5 1.9 1.5 4.2 2.2 3.6 1.1 4.4 1.1 5.3 0 .8-1.1 2.4-1.3 7-.8 7.3.8 9.5 1.7 9.5 3.9.1 1.4.2 1.4 1.1-.2 1.4-2.4 4.3-2.1 6.3.5.9 1.3 1.3 1.6 1 .6-.5-1.3.4-1.8 4.9-2.3 3-.4 6.5-.4 7.8 0 1.3.5 4 .9 5.9 1 1.9.2 4.2.4 5 .5.8.2 3 .2 4.8.2l3.2-.2-.2-53.3-.3-53.2-4 .2c-2.2.1-7.5-.1-11.9-.4-6.6-.4-7.9-.8-8.3-2.4-.6-2.3-.1-2.3-5.7.2-2.8 1.2-5.5 1.8-6.4 1.3-.9-.3-5.2-.8-9.4-1-4.2-.1-9.4-.7-11.5-1.3s-6-1.1-8.6-1.1c-2.7 0-5.7-.5-6.8-1-1-.6-9.4-1.3-18.6-1.5-9.3-.3-19.4-1-22.6-1.6-4.2-.9-6.1-.9-6.9-.1-.7.7-1.7.8-2.9.2-1-.6-2-.6-2.3-.2-.8 1.3-11.2.4-15.3-1.3-2.9-1.3-7.2-1.7-18.3-1.7-8 0-15.4.1-16.5.3-1.3.3-1.9-.1-1.7-.9.2-.9-.4-1.1-1.8-.7-1.1.4-3.6.1-5.6-.5-2.6-.9-3.8-.9-4.8 0-1.1.8-1.5.8-1.8-.1s-2.4-1-8.6-.3c-5.6.7-8.6.6-9.3-.1-.8-.7-1.3-.6-1.6.2-.3.7-1.1 1.3-1.9 1.3s-1.4-.6-1.4-1.3c0-.9-.2-.9-.9.1-.7 1.1-.9 1.1-1.4-.2s-2.5-1.6-11.1-1.6c-6.5 0-12.2-.6-14.8-1.4-4.5-1.6-13.2-2-20.8-1.2-2.5.3-7.2-.2-10.5-1s-9.6-1.3-14-1.2c-12.8.4-23.5-.4-23.5-1.6 0-.6-1-1.7-2.2-2.5-2-1.2-2.4-1.1-4.4 1.2-1.8 2.1-2.4 2.3-3.5 1.2-.9-.8-5.2-1.5-10.9-1.8-8-.5-9.7-.9-11.1-2.6-2.1-2.5-2.5-2.5-6.4 0m-329.9 1.8c-.4.7-.5 1.5-.2 1.8.9.9 1.9-.4 1.4-1.8-.4-1.1-.6-1.1-1.2 0m-3.6 5.7c-1.1 2.7-1.3 5.1-.5 4.2.8-.8 2.5-6.8 1.9-6.8-.2 0-.9 1.2-1.4 2.6m-800.9 4c0 1.1.3 1.4.6.6.3-.7.2-1.6-.1-1.9-.3-.4-.6.2-.5 1.3m810.5-.1c-.9 2.6-.7 3.2.5 1.2.6-1 .9-2.1.6-2.3-.2-.3-.7.2-1.1 1.1m-754.6 1c-1 1.2-1 1.5.4 1.5.9 0 1.6-.7 1.6-1.5s-.2-1.5-.4-1.5-.9.7-1.6 1.5m61 .5c0 .5.5 1 1.1 1 .5 0 .7-.5.4-1-.3-.6-.8-1-1.1-1-.2 0-.4.4-.4 1m686.6 3.3c-2 5.3-2.1 6.8-.1 4 2.2-3.1 3.5-7.2 2.6-7.7-.5-.3-1.6 1.4-2.5 3.7m-6.6-.3c-.6 1.2-.9 2.4-.7 2.7.3.2 1.1-.5 1.7-1.7s.9-2.4.7-2.7c-.3-.2-1.1.5-1.7 1.7m-74.3 4.4q-.6 1.5.9.9c1.5-.6 1.9-2.3.5-2.3-.5 0-1.1.7-1.4 1.4m50.3.5c-1.4 2.6-1.3 3.8.2 2.3.7-.7 2.1-1.2 3.3-1.2s2.6-.5 3.3-1.2c.8-.8 1.5-.9 2.2-.2.6.6.1 1.9-1.5 3.6-3 3.3-3.1 3.8-.4 3.1 2.5-.7 5.3-4.8 4.5-6.8-.9-2.4-10.2-2.1-11.6.4m-581.5.1c-.4.6-.3 1.6.3 2.2s1.2.6 1.7-.2c.4-.6.3-1.6-.3-2.2s-1.2-.6-1.7.2m535.5 2.5c0 .8.7 1.5 1.5 1.5s1.5-.7 1.5-1.5-.7-1.5-1.5-1.5-1.5.7-1.5 1.5m-10 .5c0 .5.5 1 1 1 .6 0 1-.5 1-1 0-.6-.4-1-1-1-.5 0-1 .4-1 1m74.5.9c-.6.5-3.4 2.1-6.2 3.6-5.3 2.7-7 5.5-3.4 5.5 1 0 2.4-.7 3.1-1.5.9-1.1 1.6-1.3 2.4-.5 1.3 1.3 5.6-3.4 5.6-6.2 0-2-.2-2.2-1.5-.9m-596 1c-.3.5-.1 1.2.5 1.6.5.3 1-.1 1-.9 0-1.8-.6-2.1-1.5-.7m535.5.1c0 1.3 5 3.3 5.9 2.4.7-.7-2.8-3.4-4.6-3.4-.7 0-1.3.5-1.3 1m43.7 9.7c-.4.3-.7 1.1-.7 1.7s.5.5 1.2-.2c.6-.6.9-1.4.7-1.7-.3-.3-.9-.2-1.2.2M720 559c0 .5 1.8 1 4 1s4-.5 4-1c0-.6-1.8-1-4-1s-4 .4-4 1m600 7c0 1.1.5 2 1 2 .6 0 1-.9 1-2s-.4-2-1-2c-.5 0-1 .9-1 2m-573 6c0 .5.5 1 1.1 1 .5 0 .7-.5.4-1-.3-.6-.8-1-1.1-1-.2 0-.4.4-.4 1m609.6 8.5c.8 3.7 1.2 4.1 2.4 2.9.5-.5.1-1.9-1.1-3.4l-2-2.5zM1336 583c0 .5.5 1 1.1 1 .5 0 .7-.5.4-1-.3-.6-.8-1-1.1-1-.2 0-.4.4-.4 1"/><path d="M1768 601c0 .5.7.7 1.5.4.8-.4 1.5-.8 1.5-1s-.7-.4-1.5-.4-1.5.4-1.5 1m13.8 9.7c.7.3 1.6.2 1.9-.1.4-.3-.2-.6-1.3-.5-1.1 0-1.4.3-.6.6m-42.1 12.4c-1 1.1-1.6 2.3-1.3 2.6.8.8 3.8-2.5 3.4-3.7-.2-.6-1.1-.1-2.1 1.1m49-.4c-.4.3-.7 1.2-.7 2 0 1.7 2.6 1.7 3.3-.1.8-2.1-1.1-3.5-2.6-1.9m-66.7 11.7c0 .2.8 1 1.8 1.7 1.5 1.3 1.6 1.2.3-.4s-2.1-2.1-2.1-1.3"/></svg>