<?xml version="1.0" standalone="no"?>
<!DOCTYPE svg PUBLIC "-//W3C//DTD SVG 20010904//EN"
 "http://www.w3.org/TR/2001/REC-SVG-20010904/DTD/svg10.dtd">
<svg version="1.0" xmlns="http://www.w3.org/2000/svg"
 width="1920.000000pt" height="1080.000000pt" viewBox="0 0 1920.000000 1080.000000"
 preserveAspectRatio="xMidYMid meet">

<g transform="translate(0.000000,1080.000000) scale(0.100000,-0.100000)"
fill="#000000" stroke="none">
<path d="M0 9017 l0 -1784 163 -12 c89 -6 230 -14 312 -17 172 -5 224 -11 241
-25 8 -7 14 -7 19 1 8 13 113 1 141 -17 14 -9 77 -15 210 -19 104 -3 201 -7
217 -8 15 -1 37 -3 50 -4 22 -2 22 -2 -3 -15 -45 -24 -98 -28 -109 -9 -8 13
-12 14 -25 3 -10 -9 -16 -10 -16 -2 0 7 -7 7 -25 -1 -19 -9 -28 -9 -37 0 -7 7
-45 12 -94 12 -57 0 -84 4 -87 13 -3 10 -9 10 -26 0 -11 -7 -30 -13 -40 -13
-11 0 -25 -8 -30 -17 -9 -16 -13 -15 -39 15 -28 33 -30 33 -103 32 -41 -1 -86
-2 -101 -1 -81 2 -118 1 -163 -6 -33 -6 -62 -4 -86 4 -20 6 -46 9 -58 6 -25
-6 -29 -33 -4 -33 9 0 14 -2 11 -5 -12 -12 -57 8 -63 28 -6 17 -8 18 -11 6 -4
-13 -13 -14 -50 -9 -26 4 -50 13 -54 20 -5 8 -15 10 -26 5 -18 -6 -17 -8 4
-16 12 -4 22 -15 22 -24 0 -21 -37 -19 -49 3 -6 9 -11 11 -11 5 0 -8 -15 -13
-40 -13 l-40 0 0 -3560 0 -3560 9600 0 9600 0 0 709 0 709 -50 11 c-28 6 -60
11 -71 11 -11 0 -29 5 -40 11 -14 7 -24 7 -33 0 -9 -8 -20 -7 -39 2 -36 16
-34 26 6 23 17 -1 40 5 49 13 15 11 29 12 84 3 36 -6 72 -8 80 -5 18 7 20 109
2 117 -10 5 -10 7 -1 12 10 4 13 285 13 1355 l0 1349 -39 0 c-22 0 -41 -5 -43
-12 -3 -9 -12 -9 -36 1 -18 7 -41 11 -52 8 -13 -3 -18 -1 -13 5 4 8 -12 9 -50
5 -31 -3 -59 -2 -62 2 -8 13 -66 22 -82 12 -10 -5 -42 -3 -81 6 -42 10 -72 12
-86 6 -29 -13 -122 -9 -139 5 -11 10 -21 10 -41 1 -19 -9 -29 -9 -39 -1 -9 7
-17 8 -23 2 -13 -13 -130 6 -172 28 -32 16 -34 16 -44 -2 -8 -14 -12 -15 -18
-5 -11 17 -52 22 -61 7 -6 -9 -17 -7 -48 6 -22 10 -47 16 -55 13 -8 -3 -17 -1
-20 6 -3 9 -7 8 -14 -2 -8 -10 -20 -11 -58 -3 -33 7 -53 7 -61 0 -8 -7 -19 -5
-34 6 -16 11 -35 13 -67 9 -36 -5 -48 -3 -58 12 -12 16 -18 16 -59 6 -33 -8
-51 -8 -65 -1 -11 6 -25 8 -31 4 -16 -10 -129 -7 -166 5 -19 5 -35 6 -38 1 -3
-5 -11 -7 -18 -4 -21 8 -68 -21 -56 -33 7 -7 2 -12 -15 -15 -18 -4 -26 -1 -26
8 0 8 -7 14 -15 14 -11 0 -15 9 -13 30 1 16 5 30 9 30 3 0 9 18 13 41 5 32 10
40 23 35 20 -8 57 29 49 49 -3 8 -12 12 -20 9 -12 -4 -14 3 -13 33 2 43 -16
62 -21 22 -2 -18 -16 -34 -47 -53 -44 -28 -70 -68 -81 -125 -10 -48 -34 -40
-33 12 1 36 -22 126 -51 192 -5 11 -12 31 -16 45 -10 39 -22 49 -67 54 -23 3
-226 10 -452 16 -225 6 -475 15 -555 20 -368 24 -530 32 -585 30 -113 -4
-1169 0 -1430 6 -160 3 -265 10 -273 16 -7 6 -20 26 -28 44 -9 19 -20 34 -25
34 -13 0 -11 -8 12 -54 12 -22 26 -49 31 -60 5 -10 6 -21 1 -25 -4 -3 -10 -15
-11 -26 -5 -29 -22 -44 -22 -19 0 15 -2 16 -9 5 -8 -12 -12 -12 -25 -2 -28 24
-88 50 -101 44 -9 -3 -17 7 -24 29 -5 18 -10 27 -10 21 -1 -7 -8 -13 -17 -13
-10 0 -14 6 -11 14 3 8 -1 22 -8 33 -10 14 -16 15 -26 6 -9 -9 -17 -5 -36 15
-28 30 -63 94 -63 115 0 24 -31 77 -45 77 -7 0 -16 -10 -20 -22 -13 -43 -26
31 -19 106 4 42 2 71 -4 75 -13 8 -55 148 -56 191 -1 19 -6 35 -11 35 -20 1
-50 25 -40 32 15 12 37 54 31 60 -3 3 -16 -8 -30 -23 -18 -21 -25 -24 -26 -13
0 26 46 73 64 66 26 -10 30 -36 10 -59 -19 -21 -19 -21 3 -9 29 15 36 14 29
-4 -3 -8 0 -15 7 -15 7 -1 21 -12 32 -26 11 -14 30 -37 42 -52 52 -62 66 -79
98 -124 19 -26 35 -51 35 -56 0 -6 13 -24 30 -42 16 -18 30 -36 30 -40 0 -5
18 -31 40 -59 22 -28 40 -57 40 -65 0 -16 29 -50 37 -43 6 7 -51 108 -99 177
-24 33 -51 75 -60 92 -9 17 -21 34 -25 37 -5 3 -33 40 -63 81 -29 41 -59 80
-65 85 -6 6 -20 25 -30 43 -11 17 -22 32 -26 32 -10 0 -29 59 -29 91 0 28 -42
69 -70 69 -27 0 -39 36 -40 111 0 82 -5 96 -28 76 -13 -10 -14 -9 -3 11 7 13
18 21 24 19 7 -2 23 12 36 32 14 20 49 64 79 99 l55 62 -5 83 c-2 45 -10 92
-18 103 -12 19 -10 25 25 62 50 55 67 80 63 94 -2 6 -23 -12 -47 -41 -24 -28
-46 -51 -51 -51 -4 0 -11 15 -14 34 -4 19 -20 51 -36 71 -17 21 -30 41 -30 44
0 4 -38 47 -85 96 -47 50 -87 101 -91 115 -3 14 -11 38 -16 54 -9 23 -8 35 7
62 10 19 24 34 32 34 7 0 13 5 13 10 0 6 5 10 12 10 6 0 31 9 54 20 23 11 68
25 100 31 33 6 80 17 107 25 26 8 51 13 56 10 5 -3 12 4 16 17 6 19 8 19 12 5
2 -10 10 -18 16 -18 20 0 61 -147 59 -210 -1 -30 -11 -80 -23 -110 -40 -103
-50 -133 -47 -136 2 -1 44 1 93 5 49 5 102 7 117 4 20 -3 30 1 35 13 5 15 8
14 16 -7 6 -15 11 -19 14 -11 4 10 8 10 19 1 7 -6 37 -13 66 -15 29 -1 78 -6
108 -9 l55 -6 -25 24 c-109 107 -375 383 -412 427 -26 31 -52 68 -57 84 -7 18
-15 25 -23 20 -7 -4 -36 -23 -64 -40 -63 -40 -105 -51 -259 -68 -123 -13 -145
-12 -145 8 0 12 45 36 68 36 7 0 11 4 8 8 -3 5 -19 7 -36 4 -39 -6 -41 18 -3
56 66 65 99 149 78 199 -6 13 -12 0 -22 -47 -16 -76 -51 -132 -101 -158 -21
-11 -57 -31 -82 -44 -25 -13 -60 -32 -78 -42 -18 -9 -30 -21 -27 -26 7 -11 83
26 111 54 17 17 18 17 30 1 7 -9 10 -23 7 -31 -3 -7 9 -35 26 -61 45 -67 38
-113 -16 -113 -30 0 -30 -27 0 -68 37 -51 129 -156 148 -170 10 -7 37 -45 60
-85 22 -40 50 -85 61 -100 11 -16 22 -39 24 -50 2 -12 8 -44 13 -72 26 -135 3
-216 -74 -263 -24 -15 -51 -39 -59 -54 -10 -16 -43 -40 -81 -58 -36 -17 -65
-37 -65 -45 0 -20 -21 -30 -30 -15 -5 9 -19 11 -39 7 -25 -5 -33 -3 -38 11
-10 26 -19 29 -65 23 -46 -7 -45 -5 -68 -111 -14 -62 -34 -100 -54 -100 -20 0
-26 23 -15 66 19 83 4 257 -15 179 -4 -14 -4 -30 -1 -35 7 -11 -14 -130 -25
-145 -4 -5 -10 -26 -14 -47 -6 -34 -9 -37 -59 -46 -102 -21 -147 -35 -147 -49
0 -9 -14 -13 -44 -13 -24 0 -46 -5 -48 -11 -3 -8 -37 -11 -103 -10 -55 1 -101
4 -103 6 -2 2 2 18 9 34 10 23 20 31 40 31 38 0 91 20 86 34 -3 7 -24 10 -59
8 -33 -2 -59 1 -63 7 -9 16 -42 14 -136 -10 -49 -12 -85 -17 -87 -11 -1 5 -12
8 -22 5 -11 -3 -49 -2 -85 2 -62 6 -65 8 -65 33 0 20 -3 23 -9 13 -5 -8 -7
-20 -4 -28 6 -16 -9 -17 -24 -2 -6 6 -41 14 -79 18 -60 6 -65 9 -40 16 70 19
103 51 156 150 18 33 36 65 41 71 5 6 20 41 34 78 33 87 33 172 0 308 -14 58
-25 133 -25 171 0 38 -5 77 -11 89 -6 11 -8 22 -6 25 3 3 13 -9 22 -26 9 -18
20 -29 25 -26 6 4 10 2 10 -3 0 -12 59 -77 65 -71 9 10 -8 49 -21 49 -8 0 -14
6 -14 13 0 15 -76 119 -96 130 -8 4 -14 15 -14 22 0 8 -3 14 -7 13 -5 -1 -27
17 -49 40 -41 42 -74 54 -74 29 0 -8 11 -24 25 -37 14 -13 25 -34 25 -48 0
-25 29 -82 42 -82 15 0 8 -31 -8 -37 -12 -4 -15 -18 -12 -60 l3 -55 -50 -19
c-27 -10 -58 -19 -67 -19 -33 0 -33 -42 0 -54 34 -13 72 -37 72 -47 0 -5 5 -8
11 -7 6 2 14 -3 17 -11 2 -8 1 -12 -4 -9 -5 3 -44 21 -86 41 -43 20 -78 41
-78 47 0 5 -7 10 -15 10 -8 0 -23 10 -35 22 -31 34 -35 13 -3 -22 29 -33 91
-76 178 -123 55 -30 54 -28 54 -162 0 -69 -6 -98 -20 -90 -5 4 -9 -5 -9 -19 0
-16 -7 -27 -19 -31 -21 -6 -147 31 -157 46 -3 5 -14 9 -25 9 -11 0 -22 7 -25
15 -4 8 -15 15 -25 15 -11 0 -22 6 -24 13 -3 6 -19 12 -35 13 -17 1 -38 8 -48
16 -9 9 -22 13 -29 11 -6 -2 -14 1 -18 6 -3 6 -15 11 -26 11 -11 0 -19 7 -19
16 0 14 -3 14 -15 4 -10 -9 -15 -9 -15 -1 0 6 -9 11 -20 11 -11 0 -23 7 -27
16 -3 9 -13 14 -24 11 -12 -3 -26 4 -39 20 -13 17 -25 23 -38 19 -12 -4 -25 1
-37 14 -10 11 -26 20 -37 20 -10 0 -18 5 -18 10 0 6 -13 10 -28 10 -16 0 -38
9 -51 21 -12 11 -29 18 -37 15 -7 -3 -14 -1 -14 4 0 6 -7 10 -15 10 -8 0 -15
5 -15 10 0 6 -9 10 -21 10 -22 0 -83 49 -187 148 -35 34 -69 62 -73 62 -5 0
-9 6 -9 14 0 8 -14 22 -32 30 -39 20 -37 20 -31 -4 8 -29 -7 -24 -43 13 -36
37 -49 70 -37 92 8 13 12 13 31 -5 12 -12 22 -24 22 -28 0 -10 222 -8 239 2
23 15 169 21 304 14 128 -7 129 -7 195 -48 37 -22 90 -60 119 -83 77 -63 142
-112 153 -115 6 -2 10 3 10 12 0 9 -6 16 -13 16 -7 0 -18 9 -25 20 -7 11 -16
20 -21 20 -5 0 -33 22 -62 50 -30 27 -60 50 -67 50 -7 0 -15 7 -18 15 -4 8
-10 15 -15 15 -9 0 -29 15 -82 62 -30 27 -31 28 -12 43 25 18 55 21 37 3 -16
-16 -15 -28 1 -28 8 0 20 12 28 28 8 15 17 29 20 32 16 14 29 53 24 71 -7 21
-7 21 14 0 22 -22 28 -41 13 -41 -5 0 -14 -11 -20 -25 -10 -21 -9 -25 3 -25 8
0 15 8 15 18 0 10 5 23 11 29 14 14 1 83 -17 83 -16 0 -19 36 -5 45 6 3 14 -3
20 -12 9 -16 10 -16 11 -1 0 9 -6 18 -13 21 -8 3 -4 13 13 31 20 22 22 30 12
44 -7 9 -15 24 -18 32 -3 8 -10 23 -15 32 -12 23 -12 41 1 33 6 -3 7 1 4 10
-5 11 0 18 15 22 11 3 21 10 21 15 0 6 -7 8 -15 4 -11 -4 -15 1 -15 18 0 14
-4 26 -9 28 -5 2 -12 17 -15 34 -6 29 -5 32 24 37 39 8 130 99 130 130 0 12 9
28 20 35 11 7 20 20 20 29 0 9 7 25 17 35 9 10 12 18 7 18 -9 0 -21 -13 -78
-85 -12 -16 -21 -36 -19 -42 3 -7 -6 -17 -19 -22 -13 -5 -30 -16 -37 -25 -7
-9 -20 -16 -27 -16 -19 0 -7 29 27 63 16 16 49 70 74 121 l46 93 132 -3 c106
-3 145 0 197 15 77 23 230 80 246 93 6 4 14 31 16 58 4 39 11 54 32 71 27 21
34 60 17 88 -8 12 -12 12 -24 2 -20 -16 -25 -6 -33 63 -5 39 -3 56 5 56 15 0
14 30 -4 64 -17 32 -11 53 11 35 22 -18 18 20 -6 56 -12 17 -27 45 -35 63 -19
45 -29 40 -20 -10 13 -80 15 -201 3 -215 -8 -10 -7 -25 1 -56 7 -23 12 -47 11
-52 -5 -24 2 -36 25 -45 15 -6 25 -17 25 -30 0 -11 -2 -20 -5 -20 -17 0 -75
31 -75 39 0 19 -43 12 -67 -11 -13 -12 -23 -16 -23 -10 0 7 5 12 12 12 6 0 9
2 7 5 -7 6 -99 -23 -116 -36 -10 -9 -27 -9 -69 1 -37 9 -58 10 -62 3 -8 -11
-81 -11 -99 0 -21 13 -122 -4 -126 -22 -2 -9 -8 3 -12 27 -4 23 -11 42 -15 42
-8 0 -20 -78 -25 -155 -1 -21 -8 -41 -14 -43 -6 -2 -11 -12 -11 -22 0 -35 -17
-30 -46 13 -16 23 -35 46 -41 50 -7 4 -13 19 -13 32 0 15 -6 25 -14 25 -8 0
-21 23 -32 58 -12 36 -30 68 -51 88 -18 17 -33 36 -33 43 0 6 -4 11 -10 11
-10 0 -2 -31 11 -40 3 -3 10 -25 13 -50 l7 -45 -16 30 c-9 16 -19 32 -23 35
-8 6 -39 62 -81 146 -16 33 -37 66 -45 73 -9 8 -16 18 -16 23 0 13 -58 69 -89
87 -112 61 -131 64 -189 30 -18 -10 -36 -19 -39 -19 -11 0 20 30 31 30 6 0 22
9 36 20 30 24 56 25 103 5 20 -8 38 -15 39 -15 2 0 2 20 0 45 -4 50 -11 55
-30 25 -11 -17 -19 -20 -50 -14 -20 4 -39 8 -41 10 -3 3 37 89 63 132 19 32
75 91 126 132 71 58 95 79 89 80 -3 0 -29 -18 -59 -40 -29 -22 -68 -42 -86
-46 -19 -3 -145 -1 -281 6 -285 13 -1296 28 -2333 34 -699 4 -1227 -6 -1720
-34 -107 -6 -251 -13 -320 -16 -156 -7 -169 -9 -179 -38 -5 -12 -19 -102 -30
-198 -18 -150 -21 -232 -21 -560 0 -236 6 -454 15 -568 8 -102 21 -293 30
-425 9 -132 18 -255 21 -273 l5 -33 115 2 c135 2 154 5 154 29 0 15 20 18 213
24 243 7 347 15 347 26 0 4 -17 11 -37 15 -20 4 -47 15 -60 25 -13 10 -48 26
-78 36 -30 9 -55 21 -55 25 0 5 -17 18 -37 28 -21 11 -57 38 -80 59 -33 29
-43 45 -43 69 0 44 -9 63 -31 63 -21 0 -39 28 -39 61 0 12 -7 27 -15 33 -8 6
-21 37 -29 69 -9 35 -28 73 -45 93 -17 18 -38 57 -48 85 -12 33 -36 69 -70
104 -29 30 -53 60 -53 68 0 28 -22 77 -35 77 -7 0 -15 18 -19 41 -6 39 -8 41
-21 23 -16 -21 -16 -20 -21 16 -2 14 -9 52 -15 85 -29 139 -6 662 36 851 8 36
51 47 220 55 266 12 862 11 909 -3 51 -14 54 -17 36 -29 -11 -7 -9 -8 10 -7
22 3 26 -2 31 -37 3 -22 7 -34 8 -27 0 7 15 12 36 12 21 0 35 -5 35 -12 0 -9
4 -8 10 2 6 10 7 2 3 -25 -6 -37 -5 -39 11 -25 16 13 20 12 32 -5 8 -10 14
-27 14 -36 0 -27 11 -49 22 -43 11 7 50 -25 43 -37 -3 -4 2 -15 11 -24 12 -11
19 -13 24 -5 4 6 11 0 18 -15 15 -33 15 -35 -3 -35 -8 0 -15 -4 -15 -10 0 -5
4 -10 9 -10 6 0 13 5 16 10 3 6 17 10 30 10 26 0 45 -25 45 -59 0 -12 5 -21
10 -21 18 0 11 -61 -10 -87 -20 -26 -27 -73 -11 -73 5 0 12 -35 16 -77 4 -42
13 -101 21 -130 8 -30 14 -67 14 -83 0 -22 5 -30 18 -30 16 0 38 -42 57 -108
3 -12 16 -27 27 -33 15 -8 17 -13 8 -19 -9 -6 -8 -10 7 -18 11 -6 25 -29 33
-51 7 -23 18 -41 24 -41 6 0 22 -14 36 -31 14 -17 37 -37 53 -45 15 -8 27 -23
27 -34 0 -11 4 -20 9 -20 5 0 12 -8 16 -19 3 -10 16 -30 28 -43 12 -14 31 -43
42 -64 11 -21 30 -43 41 -49 36 -18 55 -37 50 -51 -3 -7 1 -18 9 -24 10 -8 14
-8 17 2 3 7 8 -6 11 -30 4 -24 13 -42 20 -42 7 0 18 -15 25 -32 8 -22 15 -29
20 -21 4 7 9 -11 10 -40 1 -28 5 -59 7 -68 8 -23 -29 -27 -319 -35 l-240 -7
-32 -35 -32 -35 -228 -3 c-304 -5 -454 -24 -468 -59 -8 -22 23 -34 74 -29 25
2 642 5 1371 7 729 2 1331 7 1336 10 6 4 146 7 311 7 l300 1 49 -49 c27 -27
62 -52 78 -56 33 -8 70 -34 160 -112 88 -75 141 -106 342 -199 52 -24 78 -70
63 -110 -24 -63 -14 -97 55 -188 36 -48 69 -87 74 -87 5 0 12 -25 16 -55 5
-46 12 -59 36 -77 24 -18 29 -29 29 -62 0 -23 -7 -54 -15 -70 -19 -35 -19 -64
0 -96 8 -14 14 -36 15 -49 0 -38 61 -224 80 -246 10 -11 29 -41 44 -67 15 -25
33 -49 41 -52 8 -3 15 -11 15 -18 0 -7 9 -24 20 -38 11 -14 20 -32 20 -41 0
-9 9 -24 20 -34 29 -26 25 -33 -16 -26 -20 3 -80 2 -133 -2 -53 -4 -262 -9
-466 -11 -203 -2 -473 -9 -600 -15 -533 -26 -699 -32 -1060 -37 -345 -6 -399
-5 -585 15 -232 24 -394 39 -460 43 -43 3 -45 2 -64 -37 -19 -41 -30 -77 -47
-155 -5 -25 -14 -46 -19 -48 -6 -2 -10 -22 -10 -45 0 -31 -3 -38 -11 -30 -9 9
-9 23 -1 55 6 24 11 76 9 116 -2 61 1 75 16 83 21 12 22 29 2 29 -8 0 -15 7
-15 15 0 8 -6 12 -13 9 -7 -2 -22 4 -32 16 -22 25 -32 25 -38 3 -4 -17 -5 -17
-6 0 0 9 -8 17 -16 17 -39 0 -138 35 -142 50 -3 12 -25 20 -81 29 -49 7 -83
18 -97 31 -12 11 -31 20 -44 20 -30 0 -18 17 19 25 36 8 31 21 -9 27 -19 3
-32 0 -35 -9 -3 -8 -20 -12 -43 -12 l-38 2 40 7 40 7 -37 2 c-27 1 -38 6 -38
16 0 11 -11 15 -40 15 -29 0 -40 4 -40 15 0 11 -11 15 -40 15 -36 0 -40 3 -40
25 0 25 -1 25 -80 25 l-80 0 0 40 0 40 -40 0 c-33 0 -40 -3 -40 -20 0 -17 -7
-20 -44 -20 -25 0 -48 5 -51 11 -12 18 -57 31 -69 19 -13 -13 -46 -13 -46 0 0
6 11 10 25 10 23 0 25 4 25 40 0 40 0 40 -39 40 -29 0 -40 -5 -43 -17 -3 -15
-4 -15 -17 0 -12 15 -11 17 3 17 9 0 16 7 16 15 0 11 -11 15 -40 15 -36 0 -40
3 -40 25 0 24 -2 25 -64 25 -71 0 -84 9 -93 63 -5 33 -4 35 31 41 44 8 38 26
-8 26 -19 0 -39 7 -46 15 -7 8 -17 15 -23 15 -15 0 -36 33 -37 58 0 22 -2 22
-129 22 l-129 0 -31 31 c-17 17 -31 35 -31 40 0 5 -36 9 -80 9 -73 0 -80 2
-80 20 0 17 -7 20 -40 20 -33 0 -40 3 -40 20 0 18 -7 20 -80 20 -67 0 -80 -3
-80 -16 0 -14 -9 -16 -52 -12 -53 6 -108 -6 -108 -23 0 -5 -9 -9 -20 -9 -11 0
-20 -4 -20 -9 0 -5 -10 -11 -23 -13 -20 -4 -23 -1 -19 19 2 13 2 23 -2 23 -10
0 -56 -78 -56 -96 0 -15 -22 -44 -34 -44 -3 0 -15 9 -26 20 -14 14 -28 18 -50
15 -16 -3 -43 -7 -60 -10 -17 -2 -35 1 -43 9 -12 12 -45 20 -117 30 -27 3 -29
11 -17 80 6 36 5 38 -16 32 -12 -3 -29 -6 -38 -6 -10 0 -20 -11 -23 -25 -4
-14 -11 -25 -16 -25 -12 0 -13 13 -1 26 13 14 25 78 13 70 -16 -9 -72 5 -72
19 0 19 -38 48 -55 41 -8 -3 -18 -14 -22 -23 -10 -26 -22 -32 -58 -26 -38 6
-42 0 -80 -95 -31 -80 -44 -95 -52 -63 -4 16 -11 20 -25 15 -22 -7 -21 4 8 75
26 63 19 81 -48 115 -39 19 -58 16 -58 -12 0 -10 -10 -35 -21 -57 -16 -29 -19
-43 -11 -56 11 -17 6 -29 -10 -29 -4 0 -8 7 -8 15 0 19 -14 19 -33 0 -17 -17
-27 -10 -27 19 0 15 -3 17 -12 8 -7 -7 -16 -12 -20 -12 -12 0 -10 58 2 65 5 3
10 19 10 35 0 24 -5 31 -27 35 -16 4 -37 11 -47 17 -16 8 -22 6 -33 -8 -26
-35 -63 -116 -57 -125 3 -5 -4 -9 -16 -9 -16 0 -20 4 -15 19 3 11 1 22 -5 26
-5 3 -10 -1 -10 -9 0 -20 -70 -23 -70 -3 0 6 -5 4 -11 -5 -5 -10 -20 -17 -32
-17 -18 1 -19 2 -4 6 15 4 17 11 12 42 -4 24 -1 47 9 66 21 40 20 52 -6 58
-23 7 -58 -8 -58 -24 0 -6 -9 -32 -21 -59 -15 -34 -25 -47 -35 -43 -12 4 -14
0 -8 -21 4 -17 2 -26 -6 -26 -13 0 -6 114 11 157 12 32 14 32 -154 48 -56 5
-58 5 -77 -27 l-20 -33 0 26 c0 32 -38 60 -77 57 -16 -1 -38 4 -51 11 -20 11
-27 10 -41 -3 -10 -9 -25 -16 -34 -16 -10 0 -26 -18 -39 -45 -12 -25 -27 -45
-34 -45 -7 0 -14 -6 -17 -12 -2 -7 -8 -9 -13 -5 -5 4 -2 12 6 18 13 8 13 10 0
19 -12 7 -16 4 -18 -13 -5 -33 -19 -42 -27 -18 -7 23 -21 27 -28 9 -3 -7 -6
-3 -6 9 -1 12 8 46 19 74 13 31 20 69 18 93 l-3 41 -85 12 c-47 6 -105 14
-129 18 -72 10 -93 -5 -119 -84 -12 -38 -22 -85 -22 -105 0 -20 -4 -36 -10
-36 -5 0 -10 5 -10 10 0 6 -6 10 -12 9 -33 -4 -41 1 -28 16 7 9 10 18 7 22 -4
3 -70 5 -147 4 -84 -1 -140 2 -140 8 0 5 -21 12 -47 15 -110 12 -169 22 -180
29 -6 4 -13 2 -15 -5 -3 -9 -11 -8 -29 4 -23 14 -149 34 -241 37 -21 0 -57 8
-80 16 -24 8 -50 15 -59 15 -9 0 -24 9 -34 20 -13 15 -31 20 -67 20 -27 0 -48
-5 -48 -11 0 -11 -37 -3 -58 14 -9 7 -9 13 -1 23 9 11 8 14 -4 14 -8 0 -17 -6
-19 -12 -4 -10 -10 -10 -32 0 -15 6 -36 12 -48 12 -12 0 -29 7 -39 16 -9 8
-39 17 -65 20 -27 2 -50 9 -52 14 -2 6 -21 10 -42 10 -42 0 -50 11 -50 66 0
44 -23 45 -38 2 l-10 -33 -1 42 c-1 23 -5 45 -11 48 -5 3 -10 17 -10 31 0 14
-6 24 -14 24 -8 0 -16 10 -18 22 -2 12 -14 28 -28 35 -23 12 -27 10 -52 -19
-20 -25 -24 -37 -16 -51 11 -21 4 -47 -12 -47 -5 0 -10 8 -11 18 -1 9 -5 -1
-10 -23 -5 -22 -17 -45 -25 -52 -9 -6 -13 -17 -9 -23 4 -7 3 -15 -2 -19 -13
-8 -53 -89 -53 -105 0 -8 -7 -16 -15 -20 -9 -3 -15 -18 -15 -38 -1 -18 -9 -51
-20 -73 -19 -39 -19 -39 -20 -11 0 16 5 47 11 70 6 22 15 59 21 81 5 22 13 47
17 55 4 8 15 42 25 75 10 33 24 74 31 90 7 17 23 55 35 86 12 31 30 66 41 77
10 12 19 25 19 29 0 4 23 33 50 63 27 30 50 59 50 64 0 16 175 192 242 243 20
15 63 52 96 81 33 29 63 49 66 44 3 -5 -3 -27 -14 -48 -39 -79 -81 -224 -73
-254 7 -27 37 -35 239 -64 99 -15 253 -40 344 -56 91 -17 199 -34 240 -40 42
-5 127 -18 190 -29 63 -11 156 -25 207 -30 50 -6 106 -14 122 -17 26 -5 36 -1
60 25 17 18 47 67 67 109 20 42 74 156 120 252 46 96 91 189 100 205 9 17 38
71 64 120 26 50 66 126 90 170 24 44 62 116 85 160 22 44 63 114 90 155 27 41
55 86 62 100 7 14 30 50 50 81 45 66 87 131 125 191 15 24 33 52 40 63 15 23
154 221 218 310 182 255 184 258 158 267 -12 4 -103 -6 -273 -32 -62 -10 -202
-55 -247 -80 -9 -5 -50 -26 -90 -47 -40 -20 -104 -57 -142 -82 -37 -25 -87
-57 -111 -71 -23 -14 -70 -44 -104 -67 -35 -24 -67 -43 -72 -43 -5 0 -9 -4 -9
-9 0 -5 -9 -13 -20 -16 -11 -3 -26 -12 -32 -18 -7 -7 -42 -32 -78 -57 -36 -24
-69 -48 -75 -52 -85 -66 -115 -88 -120 -88 -3 0 -36 -22 -73 -49 -37 -28 -89
-66 -117 -86 -27 -20 -86 -63 -130 -96 -44 -34 -86 -63 -93 -66 -7 -3 -23 -14
-35 -24 -12 -10 -56 -46 -97 -80 -41 -34 -91 -76 -111 -93 -20 -17 -51 -42
-70 -56 -18 -14 -51 -41 -74 -60 -46 -39 -88 -73 -190 -154 -38 -30 -94 -74
-123 -98 -29 -24 -70 -54 -90 -68 -21 -14 -49 -34 -64 -45 -14 -11 -39 -29
-54 -40 -93 -67 -172 -142 -254 -244 -36 -44 -68 -80 -72 -81 -17 -1 -6 38 16
59 13 12 32 39 42 59 11 20 35 61 54 91 19 29 40 61 45 71 12 20 59 81 97 125
16 18 45 37 70 44 24 7 52 21 63 31 11 10 59 43 106 74 47 30 92 62 99 71 7 8
17 15 23 15 5 0 32 16 58 35 27 19 52 35 56 35 3 0 13 7 22 15 9 9 41 35 72
58 31 23 110 85 175 138 256 207 343 276 398 314 31 22 94 67 139 101 160 118
407 288 577 396 324 207 336 214 430 261 36 18 67 34 70 37 3 3 31 16 62 28
76 31 294 67 638 106 80 9 181 21 225 26 44 5 139 12 210 15 72 3 227 12 345
20 413 28 800 37 1400 36 333 -1 637 -4 675 -6 39 -2 252 -6 475 -9 223 -4
502 -11 620 -16 118 -5 319 -12 445 -15 219 -6 335 -13 595 -35 63 -5 194 -14
290 -20 307 -17 456 -29 610 -50 104 -13 303 -37 443 -51 138 -15 149 -19 122
-50 -20 -22 -20 -22 0 -17 20 6 145 58 200 85 35 16 67 9 58 -13 -4 -10 3 -14
24 -14 29 0 107 -55 127 -90 10 -18 124 -130 132 -130 6 0 -60 83 -96 121 -14
14 -43 49 -65 77 -22 28 -53 56 -68 63 -32 13 -97 18 -112 8 -20 -13 -64 -19
-70 -9 -10 16 18 48 66 75 53 28 78 31 117 11 15 -7 46 -17 69 -21 49 -8 95
-54 114 -115 6 -19 22 -49 35 -67 13 -17 24 -36 24 -41 0 -6 6 -12 14 -15 14
-6 -23 96 -43 116 -6 6 -11 17 -11 25 0 23 -54 91 -74 94 -40 6 -31 21 64 113
12 11 31 32 43 48 17 21 32 28 62 30 l40 2 3 -51 c3 -56 -15 -88 -44 -77 -22
8 -8 -41 25 -91 25 -37 43 -67 69 -112 11 -21 12 -21 52 17 22 21 40 41 40 43
0 11 75 75 88 76 6 0 12 7 12 15 0 8 5 15 10 15 6 0 10 6 10 13 0 6 13 21 29
32 16 11 75 64 131 118 62 59 108 96 116 93 8 -3 14 1 14 8 0 7 7 19 15 26 19
16 24 4 28 -65 2 -34 7 -49 15 -47 36 7 121 -79 162 -165 32 -67 55 -92 44
-49 -7 29 -5 30 30 14 55 -25 79 -101 52 -169 -19 -48 -19 -49 -3 -49 35 0 50
156 22 224 -16 37 -24 43 -41 26 -19 -19 -73 11 -85 48 -6 18 -22 40 -35 49
-13 8 -24 22 -24 30 0 12 9 14 41 10 49 -6 59 -15 68 -58 7 -37 37 -62 49 -42
21 34 168 -86 174 -141 3 -25 9 -31 52 -43 54 -16 86 -36 163 -103 54 -48 163
-175 163 -191 0 -6 8 -9 17 -7 27 5 43 -40 43 -120 0 -44 4 -71 10 -67 16 10
60 -90 60 -140 0 -24 13 -113 30 -197 16 -84 35 -178 40 -208 11 -53 51 -184
76 -245 6 -16 17 -48 24 -70 20 -65 52 -135 61 -135 5 0 9 -17 9 -39 0 -22 6
-44 15 -51 19 -16 19 -31 -1 -73 l-16 -33 47 -50 c26 -27 58 -63 71 -80 13
-17 34 -36 47 -43 12 -7 27 -22 32 -33 13 -29 35 -35 35 -9 0 26 12 32 63 32
56 0 77 7 77 25 0 27 49 34 188 29 160 -6 196 -8 357 -25 66 -7 135 -13 153
-14 17 0 32 -4 32 -8 0 -5 7 -8 15 -8 12 0 35 -28 35 -44 0 -3 -12 -6 -27 -6
-20 0 -24 -3 -14 -9 21 -14 0 -21 -88 -29 -49 -5 -82 -4 -84 1 -3 10 -214 -7
-277 -23 -19 -4 -72 -11 -118 -15 -102 -9 -123 -23 -127 -86 -3 -43 17 -99 35
-99 5 0 11 -8 15 -17 3 -10 30 -44 60 -76 58 -63 90 -77 320 -145 207 -62 303
-78 530 -87 83 -4 155 -11 161 -16 7 -5 49 -11 95 -13 46 -2 98 -7 114 -10 39
-7 342 -18 560 -20 94 -1 176 -5 183 -10 7 -4 100 -10 205 -12 106 -2 226 -6
267 -9 228 -17 651 -35 661 -30 5 4 14 3 20 0 6 -4 31 -8 57 -10 26 -2 76 -6
112 -9 193 -16 272 -18 266 -7 -4 6 -2 11 3 11 6 0 14 0 19 0 4 0 7 -4 7 -9 0
-5 3 -12 6 -16 8 -8 195 -22 404 -30 88 -3 167 -8 175 -10 47 -13 767 -34 845
-25 11 1 -63 40 -77 40 -10 0 -85 75 -125 126 -30 39 -37 58 -34 97 2 25 21
21 21 -4 0 -12 12 -34 28 -48 15 -15 43 -45 63 -67 27 -31 52 -46 105 -64 38
-12 75 -25 83 -29 8 -4 43 0 78 8 l63 16 0 1063 0 1062 -29 0 c-25 0 -28 3
-23 25 3 18 11 25 28 25 39 0 31 37 -12 55 -45 18 -44 18 -44 0 0 -8 6 -15 13
-15 6 0 4 -5 -6 -11 -25 -15 -75 -2 -73 19 0 9 -7 18 -16 20 -21 4 -25 -24 -6
-31 7 -3 3 -6 -9 -6 -26 -1 -43 -28 -43 -68 0 -28 15 -53 32 -53 4 0 8 9 8 19
0 25 8 29 45 21 l30 -7 -27 -13 c-16 -7 -29 -20 -30 -29 -1 -9 -3 -29 -6 -46
-2 -16 -5 -56 -6 -88 -3 -67 -14 -84 -46 -67 -12 6 -32 9 -44 6 -32 -8 -50 7
-43 36 6 22 1 27 -32 43 -44 19 -75 10 -86 -25 -9 -27 -19 -25 -33 5 -7 15 -8
25 -2 25 6 0 10 4 10 9 0 6 -9 9 -20 8 -11 -1 -20 -5 -20 -9 0 -4 -7 -8 -15
-8 -8 0 -15 7 -15 16 0 12 -7 14 -32 9 -32 -7 -33 -7 -15 12 22 25 22 53 0 53
-13 0 -15 -2 -5 -8 9 -6 1 -14 -26 -27 l-39 -19 24 -34 c13 -19 23 -39 23 -43
0 -5 11 -9 25 -9 16 0 25 -6 25 -15 0 -16 14 -18 45 -6 11 5 28 3 38 -3 12 -8
22 -8 36 1 22 14 31 8 31 -21 0 -17 -2 -18 -10 -6 -8 12 -10 10 -10 -10 -1
-17 -11 -32 -33 -45 -26 -17 -31 -27 -29 -50 1 -17 3 -39 3 -50 2 -46 10 -65
28 -65 21 0 36 -39 21 -54 -5 -5 -14 1 -21 17 -13 28 -24 34 -34 17 -10 -16
-45 -12 -45 5 0 8 -6 15 -14 15 -8 0 -27 5 -43 12 -39 16 -66 16 -79 -2 -10
-12 -14 -12 -28 -1 -9 7 -16 9 -16 3 0 -13 26 -23 45 -16 8 4 15 1 15 -5 0 -6
6 -11 13 -11 17 0 67 -23 67 -31 0 -4 -9 -9 -20 -12 -23 -6 -17 -37 6 -37 18
0 18 -14 0 -30 -12 -9 -26 -6 -67 15 -29 14 -58 33 -64 42 -10 13 -25 15 -84
10 l-71 -6 -2 27 c0 15 -1 35 0 44 1 9 -5 28 -12 43 -12 22 -15 23 -20 9 -4
-10 -2 -22 4 -28 17 -17 11 -26 -16 -26 -22 0 -24 -2 -14 -15 16 -20 5 -45
-20 -45 -11 0 -20 -4 -20 -9 0 -5 -10 -12 -22 -14 l-23 -4 23 -2 c15 -1 22 -7
22 -21 0 -11 -6 -20 -12 -20 -9 0 -9 -3 1 -9 12 -8 11 -12 -3 -27 -11 -10 -20
-13 -24 -7 -4 5 -16 12 -27 15 -18 4 -20 1 -17 -29 4 -33 4 -33 -22 -22 -25
12 -31 28 -27 72 1 9 -4 17 -13 17 -9 0 -16 9 -16 20 0 19 2 19 23 6 24 -16
55 -7 42 14 -4 7 1 13 14 17 24 6 26 20 6 47 -24 31 -18 51 22 77 32 20 39 32
47 74 5 28 14 53 20 57 6 4 2 6 -10 6 -23 -2 -92 49 -100 75 -3 9 -14 17 -25
17 -27 0 -31 17 -21 86 10 59 10 59 -23 91 -26 25 -44 33 -77 35 -36 3 -44 0
-53 -19 -5 -13 -15 -23 -22 -23 -6 0 -15 -9 -18 -20 -3 -11 -11 -20 -16 -20
-5 0 -9 -7 -9 -15 0 -25 -20 -17 -31 12 -6 15 -15 31 -22 35 -6 4 -16 22 -22
39 -12 35 -52 54 -88 43 -10 -3 -19 1 -23 10 -5 14 -8 14 -21 1 -8 -9 -18 -27
-22 -42 -5 -18 -17 -29 -41 -37 -28 -9 -34 -16 -32 -35 3 -28 40 -78 64 -86
10 -4 18 -13 18 -21 0 -16 56 -71 83 -79 10 -4 17 -16 17 -31 0 -14 6 -24 15
-24 12 0 35 -28 35 -44 0 -3 -18 -6 -40 -6 -30 0 -40 4 -40 16 0 12 -7 14 -32
9 -18 -4 -39 -12 -46 -18 -9 -7 -17 -5 -28 11 -12 18 -18 19 -44 10 -17 -5
-40 -8 -52 -5 -12 3 -36 0 -55 -8 -18 -8 -37 -14 -41 -14 -4 0 -8 -7 -10 -15
-3 -12 5 -16 27 -16 17 0 38 -8 48 -19 10 -10 28 -22 41 -25 26 -9 30 -29 5
-24 -10 2 -27 -4 -37 -14 -10 -9 -23 -15 -28 -12 -4 3 -8 2 -8 -2 0 -11 42
-44 56 -44 7 0 15 -4 18 -9 9 -15 -12 -61 -26 -59 -7 2 -13 -5 -13 -14 0 -10
-9 -27 -19 -39 -15 -18 -16 -26 -7 -46 6 -13 11 -32 11 -42 0 -17 18 -31 40
-31 13 0 60 49 60 62 0 6 3 8 6 5 4 -3 14 -2 24 3 12 6 23 3 41 -14 18 -17 28
-20 40 -13 22 13 49 2 49 -20 0 -10 7 -30 14 -45 13 -25 13 -28 -1 -28 -8 0
-27 -8 -41 -18 -15 -10 -35 -22 -44 -25 -11 -4 -18 -17 -18 -33 0 -18 4 -25
14 -21 10 4 18 -4 25 -24 5 -16 15 -29 21 -29 6 0 2 -9 -9 -21 -11 -12 -23
-19 -28 -16 -14 9 -36 -9 -29 -22 4 -6 14 -11 22 -11 8 0 14 -6 14 -13 0 -8
21 -28 46 -46 45 -33 45 -33 22 -45 -13 -7 -24 -8 -26 -4 -7 16 -31 7 -37 -13
-4 -12 -10 -17 -14 -12 -3 6 -16 13 -28 17 -38 12 -30 -28 10 -48 17 -8 26
-16 20 -16 -7 0 -22 -9 -33 -20 -20 -20 -20 -21 -3 -45 10 -13 21 -25 26 -25
18 0 5 -20 -14 -20 -12 0 -27 -8 -34 -17 -7 -9 -23 -18 -36 -19 -13 -1 -34 -5
-47 -9 -20 -7 -21 -9 -6 -19 15 -11 15 -14 0 -28 -26 -26 -19 -40 10 -21 24
16 29 15 80 -2 40 -14 57 -15 67 -7 10 8 17 8 24 1 14 -14 33 -3 33 17 0 8 5
12 10 9 5 -3 10 0 10 9 0 8 -6 16 -12 19 -23 8 -1 18 44 21 41 3 44 1 46 -23
1 -21 -6 -29 -37 -43 -20 -10 -43 -18 -49 -18 -7 0 -12 -11 -12 -24 0 -31 -14
-40 -31 -20 -11 14 -14 13 -25 -8 -8 -13 -13 -18 -14 -12 0 9 -11 9 -40 2 -42
-11 -54 -28 -21 -28 23 0 37 -35 23 -53 -12 -14 11 -77 28 -77 5 0 10 -9 10
-21 0 -11 5 -17 10 -14 6 4 8 10 5 15 -3 4 9 13 27 19 39 14 38 14 38 -4 0 -8
-5 -15 -11 -15 -5 0 -7 -4 -4 -10 4 -6 15 -2 27 10 25 23 76 42 83 30 3 -4 13
-6 23 -3 10 2 24 -3 31 -11 8 -9 20 -16 27 -16 8 0 14 -7 14 -16 0 -12 8 -14
44 -9 50 8 67 -6 42 -34 -9 -10 -14 -20 -11 -23 3 -3 -1 -11 -10 -18 -13 -10
-15 -9 -15 9 0 18 -4 20 -27 15 -38 -9 -53 -22 -54 -48 -1 -15 -4 -11 -10 12
-10 33 -23 41 -33 20 -3 -10 -9 -8 -19 5 -20 24 -97 14 -97 -13 0 -9 -9 -25
-20 -35 -11 -10 -17 -21 -15 -26 6 -8 -22 -39 -35 -39 -5 0 -12 9 -15 20 -7
23 -25 26 -43 8 -10 -10 -15 -10 -22 2 -5 8 -10 10 -10 3 0 -6 -13 -16 -30
-22 -24 -8 -30 -16 -30 -40 0 -25 4 -31 21 -31 16 0 19 4 14 21 -6 17 -3 20
12 17 14 -3 17 -11 15 -37 -1 -18 3 -40 9 -47 9 -11 9 -14 0 -14 -8 0 -10 -8
-6 -22 6 -22 6 -22 -9 -4 -9 11 -16 25 -16 32 0 21 -33 26 -47 8 -11 -16 -13
-12 -13 24 0 24 -5 42 -11 42 -6 0 -20 11 -31 25 -25 32 -51 32 -76 0 -22 -28
-42 -33 -42 -10 0 13 -20 15 -120 15 l-120 0 0 25 c0 25 1 25 80 25 l80 0 0
80 0 80 -94 0 -94 0 -4 -47 c-3 -36 1 -51 14 -62 23 -20 23 -51 1 -51 -10 0
-29 12 -42 25 -26 28 -49 32 -57 10 -9 -23 -44 -19 -44 5 0 11 7 20 15 20 8 0
15 5 15 10 0 6 11 10 25 10 29 0 32 8 8 25 -12 9 -17 28 -17 73 -1 57 -2 61
-22 56 -17 -4 -23 0 -28 21 -4 15 -5 30 -1 33 3 3 5 -2 5 -11 0 -13 9 -17 40
-17 22 0 40 -4 40 -10 0 -5 5 -10 10 -10 6 0 10 8 10 17 0 14 4 12 25 -7 14
-13 28 -20 32 -17 3 4 2 7 -3 7 -5 0 -9 12 -9 28 1 21 7 28 28 30 15 2 27 -1
27 -7 0 -6 9 -11 20 -11 11 0 20 5 20 10 0 6 -9 10 -19 10 -10 0 -21 6 -24 14
-4 10 0 12 13 9 17 -4 18 -1 14 28 -7 43 23 79 66 79 20 0 30 5 30 15 0 11 11
15 40 15 l40 0 0 50 0 50 -40 0 -40 0 0 -49 c0 -52 -8 -61 -56 -61 -13 0 -24
-6 -24 -12 0 -20 -13 -35 -36 -42 -17 -5 -23 -2 -27 15 -3 12 -10 18 -16 14
-7 -4 -14 6 -17 24 -7 32 -19 41 -27 19 -3 -10 -7 -10 -19 -1 -8 7 -19 9 -23
5 -5 -4 -5 -1 -1 6 5 9 0 19 -13 28 -17 12 -19 19 -11 35 9 16 7 19 -10 19
-16 0 -20 -4 -15 -19 7 -24 -22 -51 -31 -28 -3 9 -3 20 -1 25 3 4 1 28 -4 52
-7 32 -7 45 2 51 10 6 10 16 0 47 -13 38 -12 41 13 67 14 14 26 34 26 44 0 22
25 45 40 36 6 -3 10 3 10 16 0 18 -2 19 -15 9 -12 -10 -18 -10 -30 0 -13 10
-13 15 -3 21 20 13 2 21 -54 25 -29 2 -54 8 -56 14 -2 6 -11 6 -24 -1 -25 -13
-35 -5 -18 16 7 8 14 36 16 62 2 27 8 49 14 51 16 6 12 32 -5 32 -20 0 -19 17
3 30 13 8 -5 10 -71 8 -74 -3 -88 -6 -93 -21 -7 -21 -28 -17 -32 6 -2 10 3 17
12 17 18 0 21 16 5 25 -16 10 -50 -30 -37 -43 15 -15 2 -42 -20 -42 -11 0 -32
-12 -47 -26 -18 -17 -31 -22 -38 -15 -15 15 -1 39 25 43 20 3 23 9 23 42 0 28
5 42 20 50 23 12 35 26 35 40 0 6 -6 1 -14 -9 -12 -16 -16 -17 -29 -6 -9 7
-14 18 -11 25 6 15 -22 30 -37 20 -5 -3 -12 2 -15 11 -8 20 13 43 43 48 31 4
53 26 53 53 0 21 5 24 40 24 l40 0 0 120 0 120 -39 0 -39 0 -8 78 c-6 56 -9
67 -12 40 l-3 -38 -70 0 -69 0 0 -65 0 -65 -39 0 c-22 0 -41 5 -44 13 -3 10
-9 10 -26 0 -11 -7 -28 -13 -36 -13 -21 0 -19 38 3 43 9 3 -9 5 -40 6 -44 1
-58 -2 -58 -13 0 -9 -15 -15 -44 -17 l-44 -4 5 35 c3 29 2 32 -7 18 -6 -10
-18 -18 -25 -18 -9 0 -15 -9 -15 -21 0 -16 -5 -20 -20 -16 -20 5 -75 -16 -85
-34 -8 -12 -55 -12 -55 1 0 6 7 10 15 10 22 0 43 49 26 59 -8 6 -9 11 -3 15 6
3 12 0 15 -6 3 -9 9 -8 18 5 8 10 23 17 34 16 46 -5 75 2 75 15 0 17 -31 29
-53 21 -8 -4 -18 -2 -22 4 -4 7 10 11 42 12 64 1 28 17 -39 18 -27 1 -48 6
-48 11 0 6 16 10 35 10 19 0 35 4 35 9 0 4 15 13 33 19 30 9 28 10 -30 11
l-63 1 0 40 c0 32 4 40 19 40 12 0 22 -11 29 -32 5 -19 10 -25 11 -15 1 15 9
18 44 17 23 -1 47 -1 53 -1 16 1 34 78 34 140 0 39 4 51 15 51 9 0 15 9 15 22
0 12 7 30 17 40 15 17 15 18 -10 18 -25 0 -27 3 -27 40 0 22 5 40 10 40 6 0
10 -11 10 -25 0 -14 4 -25 9 -25 5 0 18 11 29 25 12 15 30 25 46 25 24 0 26 4
26 40 0 36 3 40 25 40 23 0 25 4 25 40 l0 40 -65 0 -65 0 0 40 c0 29 -4 40
-15 40 -11 0 -15 11 -15 40 l0 40 40 0 40 0 0 -40 0 -40 40 0 40 0 0 40 0 40
40 0 40 0 0 40 0 40 40 0 40 0 0 80 0 80 -40 0 -40 0 0 40 0 40 40 0 40 0 0
80 0 80 -40 0 -40 0 0 40 0 40 -40 0 -40 0 0 -55 0 -55 -40 0 c-22 0 -40 -4
-40 -10 0 -5 -18 -10 -40 -10 -36 0 -40 3 -40 25 0 23 -4 25 -40 25 -22 0 -40
4 -40 9 0 5 -5 22 -12 38 -6 15 -11 31 -10 35 1 3 -5 38 -13 76 l-15 71 31 30
c22 23 40 31 65 31 30 0 34 -3 34 -25 0 -20 5 -25 23 -25 18 0 28 -10 42 -40
18 -39 19 -40 72 -40 l53 0 0 200 c0 110 3 200 8 200 4 0 25 18 47 40 22 21
48 39 58 40 13 0 17 8 17 35 0 28 7 42 35 66 19 17 35 37 35 45 0 9 -12 14
-35 14 -31 0 -35 3 -35 25 0 23 -4 25 -40 25 l-40 0 0 -105 0 -105 -25 0 c-22
0 -25 4 -25 40 0 22 5 40 10 40 15 0 12 77 -2 83 -10 4 -9 8 2 17 11 9 12 13
3 17 -7 2 -13 13 -13 24 0 16 7 19 41 19 32 0 39 3 32 13 -6 6 -16 30 -23 52
-15 45 -60 107 -60 81 0 -9 -5 -16 -11 -16 -6 0 -9 7 -5 15 3 9 0 15 -9 15
-11 0 -15 -13 -17 -42 l-1 -43 -4 39 c-3 27 -12 45 -30 59 -21 17 -24 26 -20
61 3 23 3 33 0 24 -10 -39 -81 -7 -109 48 -8 15 -14 39 -14 55 0 36 -31 103
-41 88 -5 -8 -13 -5 -25 10 -15 17 -29 21 -83 21 l-64 0 7 -61 c3 -34 6 -77 6
-95 0 -33 1 -34 40 -34 22 0 40 -4 40 -10 0 -21 -69 -10 -94 15 -14 14 -34 25
-46 25 -18 0 -20 6 -20 80 l0 80 -7960 0 -7960 0 0 -1783z m16114 1718 c2 -7
-4 -21 -15 -31 -18 -17 -19 -16 -19 19 0 27 4 35 14 31 8 -3 17 -12 20 -19z
m53 -77 c-2 -13 -4 -3 -4 22 0 25 2 35 4 23 2 -13 2 -33 0 -45z m-3919 -190
c43 -13 162 -128 133 -128 -16 0 -21 -6 -21 -25 0 -14 -2 -25 -4 -25 -17 0
-36 15 -36 28 0 12 -3 13 -11 5 -9 -9 -6 -19 8 -40 25 -37 66 -140 61 -154 -2
-6 -19 14 -38 45 -19 30 -39 56 -43 56 -5 0 -7 -19 -5 -42 4 -59 -22 -64 -47
-8 -10 23 -38 62 -62 87 -24 26 -43 48 -43 50 0 2 -9 13 -19 25 -11 13 -31 37
-45 53 l-26 30 47 5 c41 4 44 7 30 19 -24 19 -21 29 11 34 30 4 62 0 110 -15z
m-318 -83 c0 -17 12 -19 26 -5 22 22 140 -33 186 -85 27 -31 89 -165 82 -177
-4 -7 -10 -4 -16 6 -9 16 -11 16 -29 0 -17 -16 -19 -16 -19 -1 0 10 -5 17 -11
17 -6 0 -25 11 -41 25 -19 17 -37 23 -49 20 -11 -4 -19 -2 -19 4 0 6 -9 15
-20 21 -19 10 -21 9 -18 -16 4 -37 -17 -41 -39 -7 -9 15 -33 48 -53 72 -33 42
-34 44 -10 37 14 -4 34 -18 45 -30 24 -25 55 -40 55 -26 0 17 -71 118 -86 124
-19 7 -18 36 1 36 8 0 15 -7 15 -15z m450 -115 c0 -5 -2 -10 -4 -10 -3 0 -8 5
-11 10 -3 6 -1 10 4 10 6 0 11 -4 11 -10z m2292 -86 c17 -16 17 -18 -6 -39
-16 -15 -26 -36 -28 -61 l-3 -38 -14 28 c-12 21 -13 33 -4 57 10 26 9 29 -9
29 -20 0 -21 1 -3 20 22 24 42 25 67 4z m74 -100 c13 -10 13 -17 0 -55 -8 -24
-16 -53 -19 -64 -3 -11 -5 -3 -6 18 -1 27 -8 44 -27 60 -22 19 -24 26 -15 50
6 15 17 27 26 27 8 0 16 6 16 13 1 6 4 1 6 -13 2 -14 11 -30 19 -36z m-2960
-51 c15 -49 28 -115 29 -148 1 -33 3 -63 3 -66 1 -4 19 -3 40 2 53 12 75 3 68
-27 -4 -16 -2 -24 6 -25 7 -1 27 -3 43 -4 49 -5 96 -19 96 -30 0 -12 -34 -23
-79 -24 -48 -1 -31 -17 26 -25 69 -9 114 1 107 25 -8 25 12 59 35 59 11 0 20
5 20 10 0 6 -4 10 -9 10 -10 0 -24 77 -16 91 18 29 74 -67 75 -130 1 -22 29
28 30 52 0 9 4 17 10 17 18 0 21 -45 11 -130 -13 -104 -13 -110 -1 -110 6 0
10 7 10 15 0 22 30 65 45 65 6 0 19 -8 28 -18 16 -17 16 -21 -3 -60 -24 -50
-39 -60 -56 -38 -11 16 -13 16 -20 -6 -9 -31 -7 -34 24 -30 33 5 66 34 83 74
10 24 14 27 21 15 9 -18 2 -38 -32 -89 -33 -49 -66 -64 -90 -43 -21 19 -23 17
-44 -53 -32 -111 -178 -265 -288 -307 -50 -19 -129 -16 -136 4 -2 6 -9 11 -15
11 -17 0 -77 53 -77 68 0 7 -6 12 -12 12 -17 1 -85 98 -126 180 -31 61 -62
160 -76 240 l-6 36 47 1 c27 1 69 5 96 9 l47 6 0 -40 c0 -23 -5 -44 -10 -47
-6 -3 -7 -17 -4 -30 3 -12 1 -26 -4 -29 -21 -13 9 -73 47 -94 28 -16 69 -3 89
28 11 19 9 20 -27 20 -51 0 -61 14 -51 75 12 70 12 173 0 217 -7 25 -27 50
-62 80 -43 35 -62 44 -117 53 l-66 11 -3 42 c-2 23 1 42 6 42 5 0 12 17 16 39
3 21 13 44 21 51 13 11 86 21 202 29 19 1 25 -10 49 -86z m153 55 c5 -13 17
-49 27 -81 16 -50 16 -59 4 -67 -22 -14 -30 -2 -30 43 -1 23 -7 60 -15 82 -18
48 -17 45 -5 45 6 0 14 -10 19 -22z m-34 -127 c7 -32 -14 -81 -35 -81 -11 0
-13 91 -4 140 l7 32 12 -29 c7 -17 16 -44 20 -62z m251 23 c6 -47 -10 -27 -21
26 -5 26 -4 32 4 24 7 -6 14 -28 17 -50z m-61 -4 c0 -32 -21 -37 -27 -6 -3 14
-3 28 0 31 12 11 27 -3 27 -25z m4255 -20 c0 -22 -4 -40 -10 -40 -5 0 -10 18
-10 40 0 22 5 40 10 40 6 0 10 -18 10 -40z m47 -22 c-2 -13 -4 -3 -4 22 0 25
2 35 4 23 2 -13 2 -33 0 -45z m-4270 -64 c2 -7 -3 -18 -11 -26 -11 -12 -12
-18 -3 -27 8 -8 6 -11 -10 -11 -27 0 -61 59 -41 72 18 11 61 6 65 -8z m-90
-21 c-5 -38 -24 -40 -25 -3 0 20 4 30 14 30 10 0 14 -8 11 -27z m-64 -18 c-5
-13 -23 -22 -23 -11 0 15 14 35 21 31 4 -3 6 -12 2 -20z m-393 -5 c0 -5 -7
-10 -15 -10 -8 0 -15 5 -15 10 0 6 7 10 15 10 8 0 15 -4 15 -10z m4740 0 c0
-5 -2 -10 -4 -10 -3 0 -8 5 -11 10 -3 6 -1 10 4 10 6 0 11 -4 11 -10z m0 -60
c0 -5 11 -10 25 -10 23 0 25 -4 25 -40 0 -36 -2 -40 -25 -40 -22 0 -25 4 -25
40 l0 40 -40 0 c-22 0 -40 5 -40 10 0 6 18 10 40 10 22 0 40 -4 40 -10z
m-4621 -60 c-7 -5 -19 -6 -27 -2 -12 4 -10 9 9 25 22 18 24 18 27 2 2 -10 -2
-21 -9 -25z m-101 15 c2 -2 -1 -13 -8 -24 -8 -15 -20 -21 -45 -21 -40 0 -50
12 -35 41 10 18 17 20 48 14 21 -4 38 -8 40 -10z m810 -7 c7 -7 12 -30 12 -52
l0 -41 -22 33 c-16 26 -26 33 -45 29 -31 -6 -40 10 -17 28 23 18 56 19 72 3z
m3349 -100 c-2 -13 -4 -3 -4 22 0 25 2 35 4 23 2 -13 2 -33 0 -45z m143 22 c0
-33 -3 -40 -20 -40 -16 0 -20 7 -20 33 0 36 6 47 27 47 9 0 13 -13 13 -40z
m340 -620 c0 -11 -9 -29 -20 -40 -11 -11 -29 -20 -40 -20 -15 0 -20 -7 -20
-25 0 -30 -11 -32 -35 -5 -17 19 -17 20 6 40 13 11 34 25 47 30 12 5 22 16 22
25 0 8 9 15 20 15 13 0 20 -7 20 -20z m80 -255 c0 -22 -4 -25 -40 -25 -36 0
-40 3 -40 25 0 23 4 25 40 25 36 0 40 -2 40 -25z m-6130 -151 c190 -5 356 -9
370 -10 14 0 37 -2 53 -2 29 -2 34 -13 15 -34 -61 -64 -106 -136 -190 -302
-11 -22 -26 -46 -34 -54 -17 -16 -17 -18 -3 -43 7 -15 6 -41 -6 -97 -28 -139
-49 -227 -55 -232 -3 -3 -14 -47 -24 -99 -10 -51 -27 -110 -38 -130 -27 -48
-30 -50 -27 -21 1 14 1 41 0 60 -2 27 -4 30 -10 16 -7 -17 -8 -17 -23 -2 -9 9
-24 16 -33 16 -16 0 -96 56 -103 72 -2 5 -10 8 -17 8 -7 0 -15 7 -19 15 -3 8
-12 15 -21 15 -9 0 -28 11 -43 25 -15 14 -37 25 -49 25 -16 0 -23 6 -23 18 0
26 -25 58 -34 44 -8 -13 -42 2 -62 27 -6 8 -28 16 -48 17 -46 4 -59 12 -51 32
4 10 -2 22 -14 32 -12 8 -22 27 -23 43 -1 15 -6 27 -10 27 -4 0 -8 7 -8 15 0
10 -10 15 -30 15 -16 0 -30 4 -30 9 0 5 -13 14 -30 21 -16 7 -28 16 -25 20 3
4 -2 13 -10 20 -13 11 -15 7 -16 -21 -1 -26 -3 -28 -6 -9 -11 77 -15 90 -22
90 -5 0 -12 -10 -16 -22 l-8 -23 -4 23 c-3 14 -12 22 -24 22 -10 0 -19 7 -19
15 0 8 -4 15 -10 15 -5 0 -10 -7 -10 -15 0 -36 -20 -10 -30 40 -6 30 -15 53
-20 50 -10 -6 -70 14 -70 24 0 4 -18 27 -40 51 -29 32 -39 49 -34 64 4 15 3
17 -4 7 -8 -11 -15 -10 -41 5 -17 10 -31 21 -31 25 0 11 63 38 74 32 5 -4 6
-1 1 7 -5 8 -20 10 -46 6 -43 -7 -52 5 -16 22 20 10 19 11 -15 11 -20 1 -40 5
-43 11 -10 17 458 18 1105 4z m-1150 -4 c0 -5 -8 -10 -17 -10 -15 0 -16 2 -3
10 19 12 20 12 20 0z m6853 -207 c-7 -2 -19 -2 -25 0 -7 3 -2 5 12 5 14 0 19
-2 13 -5z m107 -49 c0 -8 -4 -12 -10 -9 -5 3 -10 10 -10 16 0 5 5 9 10 9 6 0
10 -7 10 -16z m-5345 -112 c8 -22 -12 -39 -27 -24 -16 16 -38 15 -38 -2 0 -7
13 -16 29 -19 25 -5 29 -11 34 -56 3 -28 3 -88 0 -134 -6 -88 3 -181 16 -172
5 2 11 -12 15 -33 4 -20 13 -50 20 -67 l14 -30 1 30 c1 17 -4 46 -10 65 -15
49 -19 79 -25 210 -6 134 0 153 43 125 83 -54 173 -182 141 -201 -13 -8 -5
-103 16 -194 23 -94 59 -204 71 -212 6 -5 6 -8 0 -8 -5 0 -4 -5 3 -12 7 -7 12
-22 12 -34 0 -12 7 -27 15 -34 20 -16 19 -5 -5 64 -11 32 -26 94 -35 139 -8
44 -19 85 -24 91 -5 6 -11 39 -15 74 -4 35 -10 71 -13 80 -6 15 -5 15 10 3 15
-11 77 -129 77 -144 0 -2 20 -40 44 -84 51 -92 65 -152 59 -248 -6 -97 -10
-106 -34 -76 -26 31 -24 11 6 -78 21 -62 24 -79 15 -113 -6 -21 -8 -59 -5 -83
4 -24 4 -49 0 -55 -13 -21 -33 9 -40 59 -8 58 -53 159 -54 122 -1 -13 6 -50
14 -83 9 -33 13 -68 10 -78 -3 -10 3 -40 15 -65 18 -40 19 -49 8 -73 -10 -20
-23 -29 -53 -34 -22 -4 -56 -10 -75 -13 -47 -9 -64 -14 -58 -21 3 -2 45 3 93
12 71 14 88 15 95 4 15 -24 0 -37 -73 -60 -62 -20 -98 -24 -255 -28 l-182 -4
-93 32 c-167 58 -267 120 -267 165 0 34 12 37 44 10 28 -24 129 -76 226 -115
35 -14 88 -25 145 -29 103 -8 235 -3 235 9 0 5 -44 9 -97 9 -120 1 -288 25
-299 42 -3 5 -14 9 -25 9 -10 0 -19 4 -19 9 0 5 -15 15 -32 22 -46 19 -140 77
-150 91 -19 31 6 138 52 220 6 10 10 33 10 51 0 45 18 98 41 120 11 10 19 26
19 37 0 10 5 22 10 25 6 3 10 26 10 51 0 32 6 50 22 66 13 13 23 27 23 33 1 5
5 18 9 27 4 9 3 37 -2 62 -6 31 -6 59 1 86 10 35 15 40 33 36 19 -5 22 -1 26
31 3 25 -1 42 -12 53 -23 23 -8 99 25 123 18 14 25 28 25 53 0 19 -4 34 -10
34 -15 0 -12 22 6 59 9 18 23 31 32 30 31 -2 63 13 58 28 -3 8 -1 11 4 8 22
-14 31 8 9 23 -21 15 -22 16 -3 22 23 8 81 -17 89 -38z m8458 1 c-7 -2 -19 -2
-25 0 -7 3 -2 5 12 5 14 0 19 -2 13 -5z m-8388 -45 c18 -21 23 -34 15 -36 -14
-5 -71 48 -64 60 9 15 22 9 49 -24z m-3225 -13 c0 -14 -4 -25 -10 -25 -5 0
-10 11 -10 25 0 14 5 25 10 25 6 0 10 -11 10 -25z m8510 -39 l0 -29 -20 23
c-15 18 -17 27 -9 43 9 16 13 17 20 6 5 -8 9 -27 9 -43z m2710 -7 c0 -18 -2
-20 -15 -9 -13 11 -13 15 -3 21 18 12 18 12 18 -12z m-2742 -16 c-4 -20 -18
-26 -37 -14 -18 12 -5 31 20 31 14 0 19 -6 17 -17z m422 -123 c0 -20 -5 -30
-15 -30 -8 0 -15 -4 -15 -10 0 -5 7 -10 15 -10 20 0 19 -26 -1 -34 -24 -9 -36
-7 -29 5 4 6 -2 13 -14 16 -27 7 -27 39 -1 46 12 3 20 14 20 26 0 14 6 21 20
21 16 0 20 -7 20 -30z m-982 -23 c3 -22 -1 -27 -18 -27 -23 0 -35 22 -26 46
10 25 41 12 44 -19z m2777 13 c-3 -5 -10 -10 -16 -10 -5 0 -9 5 -9 10 0 6 7
10 16 10 8 0 12 -4 9 -10z m-2215 -32 c0 -5 -4 -8 -10 -8 -5 0 -10 10 -10 23
0 18 2 19 10 7 5 -8 10 -18 10 -22z m-533 -10 c-3 -7 -5 -2 -5 12 0 14 2 19 5
13 2 -7 2 -19 0 -25z m733 12 c0 -5 -4 -10 -10 -10 -5 0 -10 5 -10 10 0 6 5
10 10 10 6 0 10 -4 10 -10z m-173 -22 c-3 -8 -6 -5 -6 6 -1 11 2 17 5 13 3 -3
4 -12 1 -19z m1673 6 c0 -8 -5 -12 -10 -9 -6 4 -8 11 -5 16 9 14 15 11 15 -7z
m375 -4 c18 -19 17 -20 -3 -20 -31 0 -52 11 -52 26 0 21 34 17 55 -6z m-325
-15 c0 -3 -9 -5 -20 -5 -11 0 -20 7 -20 15 0 13 4 14 20 5 11 -6 20 -13 20
-15z m241 17 c9 -1 19 -9 23 -17 9 -24 -59 -53 -84 -37 -14 8 -21 9 -26 0 -10
-16 -33 18 -27 40 4 16 40 20 114 14z m-1448 -69 c5 -25 3 -33 -8 -33 -11 0
-15 12 -15 42 0 47 14 41 23 -9z m34 0 c-3 -10 -5 -2 -5 17 0 19 2 27 5 18 2
-10 2 -26 0 -35z m1129 39 c7 -4 22 -26 34 -49 20 -40 20 -43 5 -67 -10 -14
-22 -26 -27 -26 -5 0 -6 -4 -3 -10 13 -21 -7 -29 -32 -13 l-25 17 22 18 c12
10 28 18 36 18 23 0 16 16 -21 44 -23 18 -35 35 -35 52 0 24 22 32 46 16z
m-1620 -43 l28 -29 -26 0 c-14 0 -38 -6 -52 -14 -32 -16 -62 -11 -80 16 -10
15 -15 16 -20 6 -3 -7 -4 -2 -3 12 1 19 9 26 32 31 66 13 92 8 121 -22z m2894
5 c0 -8 -4 -12 -10 -9 -5 3 -10 10 -10 16 0 5 5 9 10 9 6 0 10 -7 10 -16z
m-7607 -41 c-7 -2 -19 -2 -25 0 -7 3 -2 5 12 5 14 0 19 -2 13 -5z m6671 -22
c8 -12 -3 -41 -15 -41 -5 0 -9 11 -9 25 0 25 14 34 24 16z m-44 -11 c0 -5 -4
-10 -10 -10 -5 0 -10 5 -10 10 0 6 5 10 10 10 6 0 10 -4 10 -10z m-6426 -43
c3 -12 2 -25 -3 -30 -14 -14 -56 -3 -59 16 -9 44 50 57 62 14z m5006 18 c0 -9
-9 -15 -23 -15 -14 0 -26 -9 -32 -22 -6 -14 -21 -24 -37 -26 -32 -4 -39 17 -8
25 11 3 20 11 20 17 0 7 15 17 33 23 46 15 47 15 47 -2z m2360 -15 c0 -5 -2
-10 -4 -10 -3 0 -8 5 -11 10 -3 6 -1 10 4 10 6 0 11 -4 11 -10z m-1122 -12 c8
-8 15 -8 25 0 20 17 37 -5 31 -37 -4 -19 1 -32 20 -50 14 -14 26 -28 26 -33 0
-12 -38 -10 -45 2 -4 6 -11 8 -16 5 -5 -4 -10 1 -10 9 -1 9 -3 21 -4 26 -1 6
-3 12 -4 15 0 4 -8 2 -17 -3 -20 -11 -70 31 -59 49 6 8 10 8 17 -2 7 -10 8 -8
5 9 -6 24 11 30 31 10z m1039 -40 c-3 -8 -6 -5 -6 6 -1 11 2 17 5 13 3 -3 4
-12 1 -19z m-341 -38 c25 0 16 -37 -11 -44 -14 -4 -25 -11 -25 -16 0 -16 -56
-11 -71 6 -10 13 -10 17 2 25 8 5 24 9 37 9 15 0 26 9 34 28 9 21 12 23 15 10
3 -10 11 -18 19 -18z m-7385 -41 c10 -12 19 -28 19 -36 0 -27 -16 -10 -43 45
-15 31 -20 47 -11 35 9 -12 24 -32 35 -44z m4738 38 c0 -9 -2 -9 -5 0 -3 7
-13 9 -22 6 -14 -4 -14 -3 -2 5 16 12 30 7 29 -11z m-4641 -79 c-14 -29 -28
-61 -32 -70 -3 -10 -10 -18 -16 -18 -12 0 -4 42 16 82 8 15 14 33 14 41 0 20
22 39 34 27 6 -6 1 -28 -16 -62z m6772 17 c0 -25 5 -45 10 -45 6 0 10 -4 10
-10 0 -16 -26 -12 -64 11 -20 12 -36 28 -36 36 0 20 38 53 62 53 15 0 18 -8
18 -45z m-2460 -49 c-14 -14 -24 0 -16 21 6 15 8 15 16 3 6 -9 5 -19 0 -24z
m184 -63 c-16 -12 -37 -29 -46 -38 -10 -8 -22 -15 -27 -15 -17 0 2 41 26 57
19 13 21 18 11 25 -10 7 -9 8 4 4 10 -3 20 -1 24 5 4 6 11 5 21 -3 13 -11 11
-15 -13 -35z m463 22 c9 -24 -1 -27 -15 -5 -8 13 -8 20 -2 20 6 0 13 -7 17
-15z m353 -40 c-8 -21 -14 -25 -22 -17 -9 9 -8 18 1 38 17 37 36 18 21 -21z
m-304 -22 c-11 -11 -19 6 -11 24 8 17 8 17 12 0 3 -10 2 -21 -1 -24z m-49 -3
c-5 -23 -3 -30 9 -30 38 0 -28 -58 -68 -59 -20 -1 -15 22 11 53 12 14 13 20 4
23 -7 3 -13 11 -13 19 0 17 5 17 31 4 15 -8 19 -7 19 5 0 8 3 15 6 15 4 0 4
-13 1 -30z m98 20 c-3 -5 -10 -10 -16 -10 -5 0 -9 5 -9 10 0 6 7 10 16 10 8 0
12 -4 9 -10z m1652 -22 c-3 -7 -5 -2 -5 12 0 14 2 19 5 13 2 -7 2 -19 0 -25z
m1186 -20 c13 12 20 13 28 5 18 -18 2 -46 -21 -40 -11 3 -23 1 -26 -4 -5 -9
-103 -2 -114 8 -11 10 26 21 52 16 21 -4 29 -1 34 12 7 16 8 16 19 2 11 -15
13 -15 28 1z m-1210 -12 c4 -11 -29 -36 -48 -36 -13 0 -3 30 13 39 23 14 29
13 35 -3z m-2289 -11 c-5 -12 -10 -13 -20 -4 -19 15 -18 19 6 19 13 0 18 -5
14 -15z m2337 -32 c17 10 22 9 33 -5 7 -10 25 -22 39 -27 15 -6 27 -15 27 -20
0 -16 -54 -20 -71 -5 -8 8 -21 14 -28 14 -7 0 -21 5 -32 10 -16 9 -18 14 -7
33 10 19 13 20 16 5 3 -15 7 -15 23 -5z m-988 -20 c-7 -2 -19 -2 -25 0 -7 3
-2 5 12 5 14 0 19 -2 13 -5z m1257 -2 c0 -6 -4 -13 -10 -16 -5 -3 -10 1 -10 9
0 9 5 16 10 16 6 0 10 -4 10 -9z m-3463 -37 c-3 -3 -12 -4 -19 -1 -8 3 -5 6 6
6 11 1 17 -2 13 -5z m1143 -24 c0 -5 -4 -10 -10 -10 -5 0 -10 5 -10 10 0 6 5
10 10 10 6 0 10 -4 10 -10z m-880 -25 c0 -9 7 -18 15 -21 8 -4 15 -10 15 -15
0 -5 -13 -3 -30 6 -19 10 -27 20 -24 30 8 20 24 19 24 0z m2960 5 c0 -5 -4
-10 -10 -10 -5 0 -10 5 -10 10 0 6 5 10 10 10 6 0 10 -4 10 -10z m117 -32 c-3
-8 -6 -5 -6 6 -1 11 2 17 5 13 3 -3 4 -12 1 -19z m-1957 -4 c0 -9 -7 -14 -17
-12 -25 5 -28 28 -4 28 12 0 21 -6 21 -16z m31 -47 c-16 -16 -25 -1 -10 16 8
8 16 11 18 5 2 -5 -2 -15 -8 -21z m-1185 -22 c-16 -12 -17 -17 -6 -30 7 -9 19
-14 27 -11 24 10 13 -19 -12 -30 -20 -10 -27 -9 -37 4 -10 12 -10 16 0 19 6 3
10 9 6 14 -9 16 7 49 24 49 15 -1 15 -2 -2 -15z m3684 -15 c0 -5 -7 -10 -15
-10 -8 0 -15 5 -15 10 0 6 7 10 15 10 8 0 15 -4 15 -10z m-360 -20 c0 -5 -4
-10 -10 -10 -5 0 -10 5 -10 10 0 6 5 10 10 10 6 0 10 -4 10 -10z m-17695 -10
c3 -5 -7 -8 -24 -7 -16 1 -27 5 -24 10 6 10 41 9 48 -3z m16075 -9 c0 -16 -14
-20 -27 -10 -19 17 -16 28 7 22 11 -3 20 -9 20 -12z m1583 1 c39 -1 57 2 57
10 0 8 6 6 16 -4 19 -19 11 -38 -18 -38 -12 0 -22 -8 -25 -21 -5 -16 -11 -19
-30 -14 -14 3 -22 2 -20 -2 3 -4 -15 -8 -39 -8 -24 0 -44 -4 -44 -10 0 -5 -4
-4 -8 3 -5 7 -6 26 -4 43 3 22 7 27 13 18 7 -11 9 -11 9 2 0 18 22 42 29 31 3
-4 32 -8 64 -10z m-1338 -14 c-4 -13 -7 -40 -7 -60 2 -41 -13 -59 -23 -28 -10
33 5 110 22 110 11 0 13 -6 8 -22z m2192 0 c-3 -8 -6 -5 -6 6 -1 11 2 17 5 13
3 -3 4 -12 1 -19z m-2257 -48 c0 -5 -7 -10 -16 -10 -8 0 -12 5 -9 10 3 6 10
10 16 10 5 0 9 -4 9 -10z m20 -31 c0 -18 -2 -19 -15 -9 -15 12 -12 30 6 30 5
0 9 -10 9 -21z m2208 -34 c11 -10 -14 -26 -63 -41 -30 -8 -57 -20 -60 -25 -4
-5 -15 -9 -27 -9 -22 0 -158 -132 -158 -154 0 -8 -7 -19 -15 -26 -8 -7 -17
-27 -21 -46 -3 -19 -10 -32 -14 -29 -4 2 -15 -4 -25 -15 -19 -21 -45 -27 -45
-11 0 5 6 12 13 14 8 4 9 6 0 6 -6 1 -18 -5 -26 -13 -10 -11 -17 -12 -25 -4
-8 8 -13 6 -19 -8 -13 -33 -21 63 -9 110 6 22 13 43 16 46 3 3 36 40 73 82 72
81 110 108 161 109 17 0 49 6 71 13 35 12 162 12 173 1z m-2516 -97 c-9 -9
-12 -7 -12 12 0 19 3 21 12 12 9 -9 9 -15 0 -24z m-37 2 c3 -6 -4 -10 -17 -10
-18 0 -20 2 -8 10 19 12 18 12 25 0z m1365 0 c0 -5 7 -10 15 -10 9 0 12 -6 9
-15 -4 -10 0 -15 15 -15 28 0 27 -12 -4 -38 -29 -25 -85 -21 -85 7 0 12 -2 13
-9 3 -6 -10 -10 -10 -21 3 -10 12 -10 15 2 15 7 0 22 14 31 30 17 29 47 41 47
20z m-1845 -9 c7 -12 -12 -24 -25 -16 -11 7 -4 25 10 25 5 0 11 -4 15 -9z
m1948 -6 c-3 -9 -8 -14 -10 -11 -3 3 -2 9 2 15 9 16 15 13 8 -4z m-1316 -65
c-1 -12 -5 -16 -10 -11 -5 5 -6 14 -3 20 11 16 15 13 13 -9z m-10400 -6 c-3
-3 -12 -4 -19 -1 -8 3 -5 6 6 6 11 1 17 -2 13 -5z m11573 -28 c0 -3 -4 -8 -10
-11 -5 -3 -10 -1 -10 4 0 6 5 11 10 11 6 0 10 -2 10 -4z m-1480 -64 c0 -5 -13
-18 -30 -30 -33 -25 -41 -14 -12 17 18 20 42 27 42 13z m-1130 -57 c0 -10 -11
-15 -35 -15 -23 0 -33 4 -30 13 8 18 65 20 65 2z m1150 -5 c0 -5 -5 -10 -11
-10 -5 0 -7 5 -4 10 3 6 8 10 11 10 2 0 4 -4 4 -10z m130 -69 c0 -11 -5 -21
-12 -23 -9 -3 -9 -12 0 -38 14 -39 8 -51 -13 -24 -11 14 -17 16 -23 7 -6 -10
-16 -10 -45 -1 -45 14 -46 23 -7 43 17 9 30 22 30 30 0 13 18 22 53 24 10 1
17 -6 17 -18z m1580 -18 c0 -9 -6 -13 -14 -10 -8 3 -16 1 -18 -5 -3 -7 -10 -8
-17 -4 -9 6 -9 12 4 26 19 21 45 16 45 -7z m-1166 -42 c3 -4 -1 -17 -9 -27
-10 -15 -16 -16 -26 -7 -6 6 -9 19 -6 27 7 17 32 22 41 7z m1256 -6 c0 -8 -4
-15 -10 -15 -5 0 -10 7 -10 15 0 8 5 15 10 15 6 0 10 -7 10 -15z m-310 -26 c0
-5 -7 -9 -15 -9 -15 0 -20 12 -9 23 8 8 24 -1 24 -14z m90 0 c0 -5 -7 -9 -15
-9 -15 0 -20 12 -9 23 8 8 24 -1 24 -14z m-940 1 c0 -5 -9 -10 -21 -10 -11 0
-17 5 -14 10 3 6 13 10 21 10 8 0 14 -4 14 -10z m1120 0 c0 -5 -8 -10 -17 -10
-15 0 -16 2 -3 10 19 12 20 12 20 0z m123 -5 c7 -16 3 -20 -35 -29 -20 -4 -28
-3 -28 7 0 32 53 51 63 22z m-1818 -15 c-3 -5 -12 -10 -20 -10 -8 0 -17 5 -20
10 -4 6 5 10 20 10 15 0 24 -4 20 -10z m-15268 -62 c-3 -8 -6 -5 -6 6 -1 11 2
17 5 13 3 -3 4 -12 1 -19z m14613 -78 c0 -5 -5 -10 -11 -10 -5 0 -7 5 -4 10 3
6 8 10 11 10 2 0 4 -4 4 -10z m1497 -16 c-3 -3 -12 -4 -19 -1 -8 3 -5 6 6 6
11 1 17 -2 13 -5z m86 -1 c-7 -2 -19 -2 -25 0 -7 3 -2 5 12 5 14 0 19 -2 13
-5z m-10 -70 c-7 -2 -21 -2 -30 0 -10 3 -4 5 12 5 17 0 24 -2 18 -5z m82 -13
c-3 -5 -10 -10 -16 -10 -5 0 -9 5 -9 10 0 6 7 10 16 10 8 0 12 -4 9 -10z m98
3 c-7 -2 -19 -2 -25 0 -7 3 -2 5 12 5 14 0 19 -2 13 -5z m-46 -19 c-3 -3 -12
-4 -19 -1 -8 3 -5 6 6 6 11 1 17 -2 13 -5z m-6573 -130 c-2 -103 -5 -128 -14
-114 -15 23 -13 153 2 148 7 -3 12 -18 12 -34z m136 -41 c14 -7 30 -13 37 -13
6 0 15 -5 19 -12 5 -8 2 -9 -9 -5 -10 3 -17 2 -17 -3 0 -6 -7 -10 -15 -10 -8
0 -15 7 -15 15 0 17 -46 39 -61 29 -17 -10 2 -25 23 -18 12 4 18 2 14 -4 -3
-5 -17 -12 -31 -14 -24 -5 -25 -3 -25 40 l0 44 28 -18 c15 -10 38 -24 52 -31z
m114 -48 c8 -8 20 -15 26 -15 19 0 110 -50 110 -60 0 -10 -14 -14 -37 -11 -7
1 -13 -5 -13 -14 0 -8 9 -15 20 -15 10 0 24 -9 30 -19 18 -34 11 -45 -11 -17
-11 14 -26 26 -33 26 -8 0 -16 17 -20 40 -6 37 -9 40 -39 40 -17 0 -38 4 -46
9 -15 10 -41 4 -41 -9 0 -4 10 -10 22 -13 26 -7 23 -12 -14 -21 -25 -6 -28 -4
-28 18 0 19 -4 23 -20 19 -15 -4 -20 0 -20 16 0 22 14 28 25 11 9 -15 25 -12
25 4 0 26 41 33 64 11z m-158 -44 c20 3 24 -2 14 -21 -8 -14 -8 -20 0 -20 6 0
8 -5 5 -10 -4 -6 -10 -8 -15 -5 -4 3 -10 0 -12 -7 -6 -16 -38 49 -38 75 0 19
1 19 19 3 10 -9 22 -16 27 -15z m212 -51 c1 -16 -2 -30 -7 -30 -12 0 -23 29
-15 41 8 13 -10 11 -24 -3 -8 -8 -12 -9 -12 -1 0 12 16 21 40 22 10 1 17 -9
18 -29z m-7677 -7 c-12 -20 -14 -14 -5 12 4 9 9 14 11 11 3 -2 0 -13 -6 -23z
m7533 12 c-4 -8 -1 -15 5 -15 6 0 11 -4 11 -10 0 -5 -7 -10 -15 -10 -19 0 -19
-17 -1 -36 12 -12 18 -12 43 1 38 20 50 19 58 -5 9 -27 -5 -48 -17 -26 -5 9
-6 21 -2 27 4 8 0 7 -15 0 -18 -10 -19 -15 -10 -32 15 -28 3 -36 -21 -14 -11
10 -20 15 -20 10 0 -4 -9 4 -21 19 -11 14 -27 26 -35 26 -21 0 -17 23 6 38 11
7 17 18 14 27 -4 9 0 15 10 15 10 0 13 -6 10 -15z m66 -35 c0 -21 -15 -27 -25
-10 -7 12 2 30 16 30 5 0 9 -9 9 -20z m1540 -40 c0 -5 -4 -10 -10 -10 -5 0
-10 5 -10 10 0 6 5 10 10 10 6 0 10 -4 10 -10z m110 -5 c0 -9 -11 -20 -24 -25
-13 -5 -26 -14 -28 -21 -3 -9 -6 -10 -11 -2 -9 14 30 63 49 63 8 0 14 -7 14
-15z m-8793 -17 c-3 -8 -6 -5 -6 6 -1 11 2 17 5 13 3 -3 4 -12 1 -19z m8620
-20 c-3 -7 -5 -2 -5 12 0 14 2 19 5 13 2 -7 2 -19 0 -25z m370 0 c-3 -8 -6 -5
-6 6 -1 11 2 17 5 13 3 -3 4 -12 1 -19z m-1780 -10 c-3 -8 -6 -5 -6 6 -1 11 2
17 5 13 3 -3 4 -12 1 -19z m-7124 5 c-7 -2 -19 -2 -25 0 -7 3 -2 5 12 5 14 0
19 -2 13 -5z m8570 -23 c7 -34 0 -60 -17 -60 -15 0 -44 20 -30 20 7 0 15 16
18 35 8 43 21 45 29 5z m152 11 c-3 -6 -11 -11 -17 -11 -6 0 -6 6 2 15 14 17
26 13 15 -4z m-7915 -1 c0 -5 -4 -10 -10 -10 -5 0 -10 5 -10 10 0 6 5 10 10
10 6 0 10 -4 10 -10z m6290 -17 c0 -20 -3 -24 -11 -16 -7 7 -9 19 -6 27 10 24
17 19 17 -11z m-6863 11 c-3 -3 -12 -4 -19 -1 -8 3 -5 6 6 6 11 1 17 -2 13 -5z
m6790 -45 c21 -10 31 -19 24 -23 -6 -4 -17 -4 -23 1 -7 4 -15 8 -18 9 -33 6
-60 27 -60 45 0 22 0 22 21 3 11 -10 37 -26 56 -35z m-9249 2 c23 -12 50 -21
62 -21 11 0 20 -4 20 -10 0 -5 6 -10 13 -10 15 0 47 -51 47 -74 0 -9 6 -19 14
-22 13 -5 61 -102 54 -109 -2 -2 -14 13 -28 32 -14 20 -37 49 -52 65 -16 16
-28 35 -28 41 -1 15 -24 47 -35 47 -4 0 -18 9 -32 20 -21 16 -40 20 -107 19
-82 0 -89 -3 -160 -53 -15 -10 -30 -15 -34 -12 -9 10 44 56 64 56 8 0 14 7 14
15 0 8 8 15 19 15 10 0 24 7 31 15 17 20 85 13 138 -14z m10922 21 c0 -10 -22
-32 -32 -32 -13 0 -9 28 5 33 19 8 27 8 27 -1z m-8140 -20 c0 -13 -12 -22 -22
-16 -10 6 -1 24 13 24 5 0 9 -4 9 -8z m6570 -2 c0 -5 -2 -10 -4 -10 -3 0 -8 5
-11 10 -3 6 -1 10 4 10 6 0 11 -4 11 -10z m1845 -18 c-6 -7 -55 11 -50 18 3 5
16 3 29 -3 14 -7 23 -13 21 -15z m-1750 -27 c40 -18 16 -19 -26 0 -19 8 -27
14 -19 14 8 0 29 -6 45 -14z m1785 0 c0 -8 -2 -15 -4 -15 -2 0 -6 7 -10 15 -3
8 -1 15 4 15 6 0 10 -7 10 -15z m-11524 -83 c-8 -9 -19 -12 -23 -8 -4 4 -3 10
3 14 6 4 14 16 19 27 8 19 8 19 13 1 2 -10 -3 -25 -12 -34z m11121 21 c-3 -4
-23 -17 -44 -28 -21 -10 -45 -25 -53 -31 -8 -7 -33 -15 -55 -17 -22 -2 -51 -9
-65 -14 -14 -6 -51 -13 -82 -17 -71 -9 -80 9 -10 19 26 4 52 10 57 15 6 4 28
10 50 14 74 12 95 19 165 56 35 18 47 19 37 3z m-957 -17 c0 -2 -9 -6 -20 -9
-11 -3 -20 -1 -20 4 0 5 9 9 20 9 11 0 20 -2 20 -4z m560 -36 c0 -5 -2 -10 -4
-10 -3 0 -8 5 -11 10 -3 6 -1 10 4 10 6 0 11 -4 11 -10z m37 4 c-3 -3 -12 -4
-19 -1 -8 3 -5 6 6 6 11 1 17 -2 13 -5z m-10811 -51 c-10 -10 -19 5 -10 18 6
11 8 11 12 0 2 -7 1 -15 -2 -18z m10332 0 c-10 -2 -28 -2 -40 0 -13 2 -5 4 17
4 22 1 32 -1 23 -4z m307 -14 c8 -8 -237 -6 -255 2 -3 1 20 5 50 9 66 9 191 2
205 -11z m138 4 c-7 -2 -19 -2 -25 0 -7 3 -2 5 12 5 14 0 19 -2 13 -5z
m-10163 -166 c17 -37 35 -69 41 -73 6 -3 8 -12 5 -19 -7 -20 51 -50 120 -63
70 -14 185 -39 234 -52 46 -13 -160 -3 -285 13 l-90 12 -25 85 c-14 47 -33
104 -43 128 -9 23 -17 50 -17 59 0 25 22 -9 60 -90z m10957 71 c-3 -7 -5 -2
-5 12 0 14 2 19 5 13 2 -7 2 -19 0 -25z m-12202 -41 c7 -7 38 -19 69 -26 31
-7 56 -17 56 -23 0 -12 -64 -2 -95 15 -11 6 -24 10 -29 9 -12 -4 -37 19 -30
29 7 12 13 11 29 -4z m536 -10 c-10 -9 -11 -8 -5 6 3 10 9 15 12 12 3 -3 0
-11 -7 -18z m-15 -75 c-10 -9 -89 -11 -105 -2 -9 5 -1 10 25 14 21 4 47 14 58
22 19 13 21 13 24 -7 2 -11 1 -23 -2 -27z m-266 19 c0 -9 -109 -3 -119 5 -2 2
23 4 57 4 34 0 62 -4 62 -9z m103 -18 c-7 -2 -19 -2 -25 0 -7 3 -2 5 12 5 14
0 19 -2 13 -5z m5193 -4 c5 -8 8 -8 13 0 5 7 20 9 40 5 24 -5 29 -9 19 -16 -8
-5 2 -6 27 -2 36 6 39 5 27 -9 -11 -13 -9 -15 25 -10 28 4 43 1 52 -11 8 -10
29 -16 53 -16 39 0 39 -1 33 -30 -4 -19 -3 -30 4 -30 6 0 11 -9 11 -20 0 -11
5 -20 10 -20 6 0 10 5 10 10 0 6 11 10 25 10 14 0 25 5 25 10 0 6 9 10 20 10
11 0 20 -4 20 -10 0 -5 -9 -10 -21 -10 -16 0 -19 -4 -13 -22 3 -13 12 -29 18
-37 6 -8 10 -24 8 -35 -2 -17 -1 -18 7 -6 8 12 13 12 23 2 9 -9 9 -15 0 -24
-13 -13 1 -47 25 -61 10 -6 13 -17 9 -33 -5 -17 -2 -24 7 -24 9 0 14 -12 15
-32 1 -31 5 -42 39 -114 8 -17 13 -44 11 -60 -3 -27 -6 -24 -36 36 -19 35 -42
75 -53 88 -10 14 -19 30 -19 37 0 38 -169 263 -198 264 -7 1 -22 10 -34 21
-42 38 -97 72 -135 81 -45 11 -196 13 -258 3 -28 -4 -45 -2 -45 4 0 11 33 22
67 22 12 0 29 7 38 16 9 10 26 14 40 11 14 -2 25 0 25 4 0 13 58 11 66 -2z
m5981 -79 c13 0 23 -24 23 -56 0 -33 -17 -30 -25 5 -4 21 -14 31 -33 36 -21 5
-23 8 -11 16 11 8 11 12 2 16 -7 2 -13 10 -13 16 0 6 10 1 23 -11 13 -12 28
-22 34 -22z m-6277 -17 c-19 -16 -42 -36 -52 -45 -22 -22 -28 -22 -28 -3 0 9
8 19 18 22 9 4 30 17 45 30 16 13 34 23 40 23 6 0 -4 -12 -23 -27z m655 -3 c3
-5 -1 -10 -9 -10 -9 0 -16 5 -16 10 0 6 4 10 9 10 6 0 13 -4 16 -10z m215 -15
c0 -10 -10 -15 -29 -15 -34 0 -50 16 -24 23 36 9 53 7 53 -8z m-4270 -55 c0
-11 -40 -11 -85 0 -25 6 -20 8 28 9 32 0 57 -3 57 -9z m3294 -14 c-5 -13 -34
-31 -34 -22 0 16 14 36 26 36 7 0 11 -6 8 -14z m-3194 -6 c0 -12 -27 -12 -55
0 -16 7 -13 9 18 9 20 1 37 -3 37 -9z m190 -10 c63 -6 140 -11 170 -13 30 -1
61 -6 68 -10 6 -5 16 -6 21 -2 5 3 12 1 16 -5 3 -5 31 -10 61 -10 31 0 65 -5
76 -11 16 -9 23 -8 29 2 6 10 11 11 17 3 6 -10 21 -14 65 -15 9 0 17 -3 17 -7
0 -4 28 -8 62 -10 34 -1 64 -6 68 -11 3 -5 19 -8 35 -8 17 0 55 -5 85 -12 30
-6 73 -13 95 -15 22 -2 54 -6 70 -9 94 -16 175 -29 215 -33 25 -2 54 -7 65
-11 11 -4 25 -7 30 -8 89 -9 169 -21 254 -37 57 -10 105 -17 108 -14 2 2 19 0
36 -5 27 -8 110 -20 155 -22 6 0 12 -4 12 -9 0 -4 24 -8 53 -8 28 -1 63 -7 77
-15 14 -8 36 -14 49 -15 17 0 22 -3 15 -10 -6 -6 -23 -6 -44 -1 -19 5 -98 17
-175 26 -77 9 -149 21 -160 25 -11 5 -40 11 -65 13 -95 11 -206 28 -230 37
-14 5 -45 11 -70 14 -133 15 -293 38 -355 51 -38 8 -101 17 -139 20 -38 4 -94
11 -125 16 -31 6 -72 12 -91 15 -19 3 -64 10 -100 15 -36 5 -85 11 -110 13
-49 5 -161 20 -255 36 -47 8 -271 40 -282 40 -2 0 -3 5 -3 10 0 7 13 9 33 5
17 -3 84 -10 147 -15z m2947 -37 c-9 -10 -23 -13 -33 -9 -16 6 -15 9 7 30 20
19 25 21 33 9 5 -10 3 -21 -7 -30z m6557 -2 c-6 -29 -8 -31 -22 -17 -14 14
-14 17 4 35 24 23 26 22 18 -18z m26 -16 c0 -9 9 -15 25 -15 23 0 24 -2 15
-21 -7 -11 -8 -24 -4 -27 4 -4 9 -1 11 6 7 19 24 14 49 -15 25 -29 29 -73 7
-73 -8 0 -13 12 -13 30 0 24 -4 30 -22 30 -13 0 -30 6 -38 13 -20 16 -52 87
-40 87 6 0 10 -7 10 -15z m-6621 -7 c0 -15 -59 -64 -59 -50 0 5 7 15 15 22 8
6 14 15 13 18 -2 16 3 22 17 22 8 0 15 -6 14 -12z m-4931 -102 c29 -14 119
-32 220 -42 68 -7 67 -4 52 -85 -5 -30 -14 -83 -21 -119 -6 -36 -16 -74 -21
-84 -10 -19 -11 -19 -24 -1 -8 10 -24 19 -36 21 -13 1 -24 3 -26 3 -1 1 2 10
7 20 9 17 8 18 -12 14 -12 -3 -28 -10 -34 -16 -7 -5 -21 -6 -30 -2 -10 4 -40
9 -68 12 -27 2 -54 8 -60 13 -5 4 -28 10 -50 14 -56 8 -77 12 -98 21 -12 5
-29 0 -50 -16 -25 -18 -45 -23 -99 -24 -37 -1 -73 2 -79 6 -22 13 -4 43 36 57
136 48 144 53 186 112 38 54 43 58 89 64 35 5 53 13 60 26 13 24 22 25 58 6z
m11692 -66 c0 -5 -4 -10 -9 -10 -6 0 -13 5 -16 10 -3 6 1 10 9 10 9 0 16 -4
16 -10z m-10327 -16 c55 -10 45 -21 -25 -29 -52 -6 -63 -5 -74 10 -19 25 -7
38 30 31 17 -3 48 -9 69 -12z m10400 -25 c15 -21 27 -44 27 -49 0 -6 6 -10 14
-10 23 0 29 -33 10 -47 -26 -19 -36 -16 -24 7 6 11 8 25 5 30 -9 14 -35 12
-36 -2 0 -7 -6 -2 -12 11 -9 19 -9 25 1 29 21 7 13 23 -10 19 -13 -2 -17 -2
-11 0 10 3 9 8 -2 19 -18 19 -19 34 -2 34 6 -1 24 -19 40 -41z m2491 5 c3 -9
6 -25 6 -36 l0 -21 -747 7 c-412 3 -766 10 -788 14 -26 5 -41 13 -43 25 -2 10
3 17 12 17 9 0 16 -4 16 -10 0 -5 12 -7 28 -5 58 10 162 11 171 2 7 -7 14 -7
23 0 8 7 129 11 337 12 179 1 327 3 329 6 3 2 150 5 327 5 285 0 324 -2 329
-16z m-12582 -26 c10 -2 20 -7 24 -11 11 -10 -102 0 -122 12 -15 8 -9 10 31 7
28 -2 58 -6 67 -8z m10958 -37 c5 -30 4 -38 -6 -34 -15 6 -28 58 -19 73 10 16
17 6 25 -39z m-8443 -2 c15 -6 57 -12 93 -15 36 -3 72 -7 80 -10 38 -14 178
-31 224 -28 76 5 80 6 87 17 4 5 11 8 17 6 7 -3 5 -16 -4 -38 l-14 -34 -63 7
c-71 8 -256 44 -270 53 -6 3 -42 8 -81 10 -39 3 -73 8 -76 12 -3 4 -27 9 -55
10 -27 1 -54 6 -59 12 -14 13 85 12 121 -2z m7712 -116 c23 -29 41 -55 41 -58
0 -3 11 -18 25 -33 14 -16 44 -56 68 -90 23 -34 65 -94 92 -134 28 -40 74 -96
104 -125 32 -31 51 -57 48 -66 -4 -12 13 -74 38 -130 4 -10 5 -21 1 -24 -3 -4
-6 1 -6 10 0 29 -21 19 -75 -38 -29 -30 -58 -55 -64 -55 -14 0 -31 34 -29 57
2 33 -2 53 -12 53 -6 0 -8 -11 -4 -25 5 -19 2 -25 -10 -25 -9 0 -16 4 -16 9 0
4 -12 25 -26 46 -22 33 -25 45 -19 87 4 27 3 54 -3 61 -17 21 -25 87 -10 87 8
1 6 6 -6 15 -13 10 -17 23 -14 45 3 22 1 29 -8 26 -6 -2 -26 5 -42 18 -24 17
-28 24 -17 32 20 14 8 72 -17 80 -11 3 -17 11 -15 18 3 6 -1 20 -9 31 -8 10
-14 27 -14 37 0 10 -4 18 -10 18 -5 0 -10 6 -10 13 0 7 -9 23 -20 35 -11 12
-20 26 -20 31 0 5 -6 11 -14 13 -10 2 -11 9 -5 26 11 30 25 22 78 -45z m-5859
-63 c0 -5 15 -10 33 -11 25 0 28 -2 13 -8 -27 -10 -66 -2 -66 15 0 8 5 14 10
14 6 0 10 -4 10 -10z m-6356 -50 c9 0 16 -4 16 -10 0 -15 -22 -12 -81 12 -65
26 -62 24 -55 37 4 6 25 1 55 -15 27 -13 56 -24 65 -24z m7134 12 c2 -7 -3
-12 -12 -12 -9 0 -16 7 -16 16 0 17 22 14 28 -4z m7478 -79 c-7 -7 -26 7 -26
19 0 6 6 6 15 -2 9 -7 13 -15 11 -17z m-6271 -63 c-8 -13 -125 -13 -145 0 -10
7 11 10 68 10 53 0 81 -4 77 -10z m6130 -3 c28 -1 239 0 470 1 231 1 443 -1
470 -3 80 -6 436 -24 610 -31 205 -8 239 -11 300 -22 l50 -9 -40 -3 c-71 -4
-108 -7 -230 -20 -66 -7 -127 -12 -135 -12 -8 0 -22 -2 -30 -5 -20 -7 -114
-11 -450 -18 -157 -4 -307 -9 -335 -11 -72 -7 -995 -10 -995 -4 0 3 -89 6
-198 8 -216 3 -565 18 -679 28 -48 4 -73 11 -73 19 0 14 105 20 498 31 132 4
228 11 220 15 -7 5 -32 9 -55 9 -40 0 -60 11 -49 28 3 6 145 6 651 -1z m-8329
-83 c34 -9 20 -24 -22 -24 -24 0 -34 -5 -34 -15 0 -14 -11 -19 -37 -16 -17 2
-16 -18 2 -53 8 -15 12 -33 8 -39 -3 -5 -1 -7 4 -4 6 4 14 -1 19 -11 8 -17 9
-27 12 -89 2 -25 7 -33 21 -33 12 0 23 -11 29 -27 7 -18 11 -22 11 -10 1 21
21 23 21 2 0 -10 10 -15 29 -15 17 0 33 -4 36 -10 7 -11 -122 -14 -149 -4 -12
4 -16 20 -16 54 0 27 -4 51 -9 54 -5 3 -7 15 -4 27 3 12 0 25 -7 29 -14 8 -40
74 -40 100 0 9 -9 33 -20 55 -11 22 -20 41 -20 43 0 5 136 -7 166 -14z m3516
-7 c317 -1 571 -5 565 -9 -17 -9 -1709 -21 -1828 -13 -97 7 -126 19 -71 29 15
2 191 2 392 0 201 -2 625 -5 942 -7z m-2702 -17 c80 -6 233 -16 340 -24 107
-8 268 -17 358 -21 90 -3 169 -8 175 -10 7 -2 215 -6 462 -10 374 -5 454 -9
473 -21 19 -13 110 -15 637 -14 408 0 615 -3 615 -10 0 -10 -11 -11 -791 -14
-239 -1 -440 -6 -447 -10 -8 -5 -12 -48 -12 -142 0 -100 -3 -134 -12 -135 -7
0 -134 0 -283 1 -242 1 -338 5 -393 15 -9 2 -27 4 -39 4 -14 1 -23 7 -23 17 0
14 3 14 15 4 11 -9 18 -10 28 -1 8 6 16 9 18 6 3 -2 6 33 7 78 3 94 -11 132
-47 132 -15 0 -27 8 -32 20 -8 20 -8 20 -8 0 -1 -16 -3 -17 -11 -5 -6 9 -28
15 -67 16 -91 3 -285 14 -428 24 -71 5 -166 12 -210 15 -44 3 -181 12 -305 20
-124 9 -297 17 -385 19 -191 5 -175 3 -175 20 0 16 -53 25 -153 27 -37 1 -69
5 -72 9 -6 10 581 2 765 -10z m3405 10 c3 -5 -3 -10 -15 -10 -12 0 -18 5 -15
10 3 6 10 10 15 10 5 0 12 -4 15 -10z m2785 -20 c0 -5 -5 -10 -11 -10 -5 0 -7
5 -4 10 3 6 8 10 11 10 2 0 4 -4 4 -10z m3656 -65 c15 -23 16 -39 3 -178 l-14
-152 -109 -3 c-80 -2 -111 1 -117 10 -4 7 -5 57 -2 110 4 67 2 116 -7 153 -7
30 -10 58 -7 62 8 7 114 19 189 22 41 1 50 -3 64 -24z m-3496 -9 c0 -2 -9 -6
-20 -9 -11 -3 -20 -1 -20 4 0 5 9 9 20 9 11 0 20 -2 20 -4z m-3226 -25 c3 -4
-6 -6 -19 -3 -14 2 -25 6 -25 8 0 8 39 4 44 -5z m3043 -33 c-3 -8 -6 -5 -6 6
-1 11 2 17 5 13 3 -3 4 -12 1 -19z m-3272 -20 c42 5 192 9 202 5 19 -8 16 -38
-7 -58 -19 -17 -21 -17 -39 -1 -19 17 -68 18 -104 1 -11 -4 -23 -3 -30 4 -15
15 -42 14 -56 -3 -10 -12 -16 -12 -39 0 -15 8 -39 14 -54 14 -20 0 -28 5 -28
18 0 30 10 33 79 26 36 -4 71 -6 76 -6z m5900 0 c50 -3 105 -6 123 -7 47 -2
39 -18 -12 -25 -37 -6 -43 -10 -39 -26 3 -12 0 -20 -7 -20 -6 0 -14 9 -17 20
-6 23 -14 25 -31 8 -9 -9 -12 -8 -12 5 0 15 -6 17 -35 11 -25 -4 -35 -3 -35 6
0 9 -3 10 -14 1 -7 -6 -16 -43 -20 -88 -3 -42 -10 -81 -14 -85 -19 -19 -156
-27 -267 -14 -65 7 -99 16 -61 16 21 0 71 45 59 53 -5 3 -21 0 -35 -7 -25 -13
-26 -12 -32 18 -3 17 -10 53 -16 80 -5 26 -7 52 -4 58 6 9 292 7 469 -4z
m-8127 -205 c-32 -2 -84 -2 -115 0 -32 2 -6 3 57 3 63 0 89 -1 58 -3z m182 -3
c0 -5 -4 -10 -9 -10 -6 0 -13 5 -16 10 -3 6 1 10 9 10 9 0 16 -4 16 -10z m60
-6 c0 -2 -7 -4 -15 -4 -8 0 -15 4 -15 10 0 5 7 7 15 4 8 -4 15 -8 15 -10z
m4857 -99 c25 -38 48 -86 50 -106 5 -35 4 -36 -23 -32 -23 3 -38 -5 -70 -34
-22 -21 -43 -46 -47 -55 -3 -10 -12 -18 -19 -18 -7 0 -22 -17 -33 -37 -11 -21
-27 -39 -36 -41 -18 -3 -36 31 -20 36 6 2 11 10 11 18 0 8 9 28 20 44 11 17
29 43 40 60 11 16 20 32 20 36 0 4 12 32 26 62 26 55 29 100 9 157 l-6 20 16
-20 c8 -11 36 -51 62 -90z m-7053 -281 c5 -20 4 -34 -3 -38 -6 -4 -13 5 -16
21 -4 15 -11 38 -16 51 -13 32 -11 79 4 105 11 20 13 15 18 -43 3 -36 9 -79
13 -96z m7113 9 c-3 -10 -5 -4 -5 12 0 17 2 24 5 18 2 -7 2 -21 0 -30z m174
-268 c3 -39 -2 -111 -12 -165 -17 -92 -52 -220 -60 -220 -4 0 -9 -12 -11 -27
-2 -16 -7 -27 -13 -25 -5 2 -9 14 -7 27 2 18 -1 25 -13 25 -9 0 -13 -4 -10
-10 3 -5 2 -18 -4 -27 -9 -17 -10 -17 -17 0 -4 12 1 28 13 45 11 15 25 55 33
89 7 35 16 60 21 58 4 -3 10 -1 13 4 4 5 2 12 -4 16 -14 9 -12 35 5 69 16 30
35 170 28 196 -3 8 4 4 16 -10 11 -14 21 -34 22 -45z m-123 -33 c-4 -2 -8 -18
-8 -35 l-1 -32 -14 32 c-15 36 -25 109 -16 118 3 4 15 -13 26 -37 11 -24 17
-44 13 -46z m131 -312 c-10 -7 -10 -11 0 -24 8 -9 10 -16 7 -16 -4 0 -1 -6 6
-13 7 -8 19 -42 26 -78 7 -35 23 -100 37 -144 13 -44 26 -100 30 -125 5 -44
23 -105 37 -125 3 -6 25 -66 48 -135 23 -69 48 -132 55 -140 7 -8 16 -26 20
-40 16 -54 58 -146 74 -161 9 -9 30 -32 48 -52 18 -19 64 -59 102 -88 l70 -52
11 -68 c10 -58 9 -73 -4 -100 -9 -18 -16 -39 -16 -47 0 -35 -11 0 -14 44 -5
60 -23 102 -48 109 -10 4 -18 11 -18 16 0 5 -3 8 -7 7 -5 -1 -22 5 -39 15 -18
9 -50 19 -73 23 -23 4 -41 11 -41 16 0 4 -20 29 -45 54 -25 24 -45 51 -45 58
0 7 -7 19 -16 27 -23 19 -45 67 -49 107 -2 20 -8 38 -14 40 -6 2 -11 21 -11
43 0 21 -4 39 -10 39 -5 0 -10 8 -10 18 0 10 -3 22 -7 26 -8 7 -33 74 -37 96
-2 8 -6 40 -10 70 -5 30 -13 61 -18 68 -7 8 -7 12 1 12 6 0 11 17 11 40 0 28
-4 40 -14 40 -8 0 -17 14 -21 33 -4 17 -14 43 -22 56 -8 13 -13 34 -10 47 2
13 0 21 -4 18 -5 -3 -9 2 -9 11 0 9 5 13 10 10 6 -4 10 7 10 27 0 25 -3 29
-10 18 -8 -13 -10 -13 -10 1 0 9 7 22 15 29 8 7 15 22 15 34 -1 19 -2 18 -16
-6 -8 -16 -19 -28 -24 -28 -17 0 -11 26 10 45 11 10 20 25 19 34 0 10 -2 12
-6 4 -2 -7 -9 -13 -14 -13 -6 0 -6 8 1 19 5 11 10 36 10 56 0 41 20 89 28 66
2 -7 -1 -17 -9 -21z m-147 -135 c-2 -14 -8 -28 -13 -31 -10 -6 -11 2 -3 34 9
30 22 28 16 -3z m2538 -269 c0 -5 6 -3 14 3 18 15 66 4 66 -16 0 -10 -6 -12
-21 -8 -13 4 -25 2 -29 -5 -4 -7 -21 -12 -36 -11 -16 0 -61 1 -99 0 -67 0
-139 21 -117 35 5 3 18 -1 28 -9 24 -18 34 -19 34 -1 0 8 12 16 28 18 49 7
132 3 132 -6z m-80 -86 c0 -5 -4 -10 -9 -10 -6 0 -13 5 -16 10 -3 6 1 10 9 10
9 0 16 -4 16 -10z m27 -26 c-3 -3 -12 -4 -19 -1 -8 3 -5 6 6 6 11 1 17 -2 13
-5z m-6742 -103 c28 -6 88 -14 135 -18 l85 -8 0 -35 0 -34 -55 3 c-30 2 -136
6 -235 10 -99 4 -186 10 -192 14 -26 16 14 49 97 80 19 8 101 2 165 -12z
m6290 -52 c7 -7 4 -15 -9 -25 -25 -18 -229 -19 -325 -2 l-66 12 40 8 c111 24
339 29 360 7z m-6345 -208 c0 -12 -28 -18 -57 -13 -38 7 -26 22 17 22 22 0 40
-4 40 -9z m7330 -16 c0 -19 -37 -38 -63 -31 -12 3 -27 0 -34 -6 -11 -9 -18 -7
-30 4 -14 15 -13 18 13 32 38 20 114 21 114 1z m7 -91 c-3 -4 -14 -3 -24 0
-15 6 -15 8 -3 16 16 10 39 -4 27 -16z m-193 4 c4 4 12 -1 17 -11 7 -12 17
-16 30 -12 11 4 26 1 34 -5 9 -7 32 -10 57 -8 50 6 293 -18 316 -31 11 -6 4
-11 -26 -16 -89 -15 -26 -36 91 -30 42 2 67 0 67 -7 0 -6 11 -7 28 -3 15 4 65
9 112 11 47 2 91 6 98 9 7 3 11 1 8 -4 -3 -5 20 -11 52 -14 127 -13 154 -19
159 -38 4 -15 12 -18 41 -14 19 2 40 1 46 -3 12 -8 104 -13 271 -16 61 -2 132
-6 158 -10 27 -4 92 -9 145 -11 53 -2 108 -8 122 -13 14 -5 82 -16 152 -23
l126 -13 -15 -23 c-18 -27 -73 -32 -92 -9 -10 12 -43 14 -179 11 -92 -2 -178
-6 -192 -8 -14 -3 -37 -5 -52 -6 -17 0 -28 -7 -28 -15 0 -21 -24 -25 -128 -23
-83 2 -97 5 -118 26 -23 22 -29 23 -166 20 -96 -2 -181 2 -258 14 -187 27
-271 38 -340 43 -36 3 -78 10 -95 15 -16 5 -64 12 -105 15 -91 6 -201 24 -215
34 -5 4 -47 10 -92 12 -103 4 -111 11 -89 75 10 26 20 58 23 71 4 16 9 20 18
12 6 -5 15 -7 19 -2z m1557 -148 c34 0 20 -17 -18 -23 -36 -6 -63 5 -63 25 0
6 13 8 31 4 17 -3 40 -6 50 -6z m-1153 -116 c31 -6 28 -24 -5 -24 -52 0 -105
12 -92 21 14 8 57 9 97 3z m1802 -35 c0 -12 -67 -12 -75 0 -3 5 9 11 27 13 37
4 48 1 48 -13z m-260 -29 c0 -5 -5 -10 -11 -10 -5 0 -7 5 -4 10 3 6 8 10 11
10 2 0 4 -4 4 -10z m-817 -44 c9 -7 17 -16 17 -20 0 -3 -36 -6 -80 -6 -44 0
-80 4 -80 9 0 4 24 13 53 18 71 14 70 14 90 -1z m-3373 -56 c0 -5 11 -10 24
-10 13 0 26 -7 30 -15 3 -8 12 -15 21 -15 9 0 15 -9 15 -24 0 -14 5 -28 10
-31 6 -3 10 -17 10 -31 0 -40 -49 -33 -99 16 -43 42 -48 54 -30 66 6 3 8 17 5
30 -4 14 -2 24 4 24 5 0 10 -4 10 -10z m3847 -36 c-3 -3 -12 -4 -19 -1 -8 3
-5 6 6 6 11 1 17 -2 13 -5z m1063 -103 c0 -13 -30 -22 -43 -14 -7 4 -2 10 13
14 14 4 26 7 28 8 1 1 2 -3 2 -8z m-185 -11 c4 -6 -10 -10 -35 -10 -25 0 -39
4 -35 10 3 6 19 10 35 10 16 0 32 -4 35 -10z m-4669 -20 c14 0 19 -12 8 -23
-12 -12 -34 6 -33 27 0 11 3 15 6 9 2 -7 11 -13 19 -13z m99 -320 c-3 -5 -21
-10 -38 -10 -24 0 -28 3 -17 10 20 13 63 13 55 0z m-75 -20 c0 -5 -7 -10 -16
-10 -8 0 -12 5 -9 10 3 6 10 10 16 10 5 0 9 -4 9 -10z m280 -32 c0 -14 -19 1
-31 25 -12 22 -12 22 10 3 11 -11 21 -23 21 -28z m-180 -28 c0 -5 -7 -10 -16
-10 -8 0 -12 5 -9 10 3 6 10 10 16 10 5 0 9 -4 9 -10z m74 -6 c9 -3 16 -10 16
-16 0 -14 -43 -5 -48 10 -4 13 7 15 32 6z m-44 -24 c0 -5 -4 -10 -9 -10 -5 0
-16 -3 -25 -6 -9 -3 -16 -1 -16 4 0 9 16 17 43 21 4 0 7 -3 7 -9z m280 -35 c0
-9 -6 -12 -16 -8 -13 5 -13 7 -2 14 17 11 18 11 18 -6z m-146 -34 c10 -11 29
-24 44 -30 22 -9 27 -18 28 -46 0 -19 -3 -35 -7 -35 -14 0 -31 31 -26 49 3 13
-3 22 -22 31 -50 24 -55 27 -59 38 -6 19 23 14 42 -7z m-48 -16 c15 -14 22
-25 15 -25 -19 0 -61 31 -55 41 8 13 10 12 40 -16z m-57 -9 c9 -10 6 -13 -16
-13 -16 0 -39 -3 -53 -7 -25 -6 -25 -6 -2 5 12 7 22 16 22 21 0 13 36 9 49 -6z
m236 -56 c14 -16 15 -20 4 -20 -16 0 -39 19 -39 32 0 14 16 9 35 -12z m-234
-20 c4 -14 7 -43 6 -65 l0 -40 -4 40 c-3 26 -14 50 -31 68 l-27 29 25 -4 c16
-2 27 -12 31 -28z m236 -15 c18 -11 34 -28 37 -38 4 -17 3 -18 -13 -3 -10 9
-21 16 -26 16 -12 0 -45 31 -45 42 0 11 3 10 47 -17z m-87 -22 c0 -16 16 -17
25 -2 5 6 19 -1 37 -20 17 -17 38 -31 48 -31 10 0 26 -3 35 -6 14 -6 16 -2 13
21 -4 35 19 45 31 13 6 -12 10 -19 10 -14 2 19 31 -18 31 -40 0 -17 4 -22 15
-18 8 4 15 1 15 -5 0 -16 -29 -26 -41 -14 -12 12 -108 0 -117 -14 -4 -6 -21
-13 -38 -17 -24 -5 -31 -3 -31 8 0 8 5 13 10 9 5 -3 19 -1 30 5 50 24 116 44
126 37 13 -7 14 -3 5 19 -3 9 -11 13 -16 10 -6 -4 -27 -10 -47 -15 -30 -7 -40
-4 -58 13 -12 11 -28 18 -36 15 -8 -3 -20 0 -26 6 -8 8 -15 6 -25 -8 -8 -11
-12 -23 -10 -27 3 -5 -2 -8 -10 -8 -9 0 -16 5 -16 10 0 6 5 10 10 10 6 0 10
18 10 40 0 22 -4 40 -10 40 -5 0 -10 5 -10 10 0 6 8 5 20 -2 11 -7 20 -18 20
-25z m140 17 c0 -5 -4 -10 -9 -10 -6 0 -13 5 -16 10 -3 6 1 10 9 10 9 0 16 -4
16 -10z m-165 -120 c3 0 5 -4 5 -10 0 -14 -63 0 -73 17 -4 7 -15 13 -22 13 -8
0 -15 4 -15 10 0 5 23 1 50 -10 28 -11 53 -20 55 -20z m74 26 c10 -11 8 -16
-9 -21 -23 -7 -44 5 -22 12 6 3 10 9 6 14 -9 15 12 10 25 -5z m326 -54 c23
-17 57 -76 62 -108 3 -19 10 -37 14 -40 13 -8 11 -24 -3 -24 -7 0 -21 18 -31
40 -23 50 -37 51 -37 4 0 -29 -11 -66 -26 -83 -1 -2 -16 6 -32 18 -29 20 -30
20 -25 2 7 -27 -31 -37 -62 -17 -13 9 -30 16 -37 16 -7 0 -18 12 -25 26 -11
24 -10 27 30 45 23 10 56 28 72 39 17 11 38 20 48 20 10 0 17 8 17 19 0 41 14
59 35 43z m-175 -22 c-27 -24 -34 -25 -49 -6 -12 15 1 21 53 25 17 1 17 -1 -4
-19z m252 -182 c-7 -7 -12 -8 -12 -2 0 14 12 26 19 19 2 -3 -1 -11 -7 -17z
m-52 -13 c0 -15 -26 -32 -36 -23 -2 3 -2 13 2 22 8 20 34 21 34 1z m-80 -20
c0 -8 8 -15 18 -15 14 0 15 -2 2 -10 -9 -6 -19 -5 -29 3 -11 9 -15 9 -18 0 -4
-10 -7 -10 -17 0 -11 9 -9 14 8 23 29 17 36 16 36 -1z m105 -15 c-3 -5 -10
-10 -16 -10 -5 0 -9 5 -9 10 0 6 7 10 16 10 8 0 12 -4 9 -10z m-40 -30 c-3 -5
-10 -10 -16 -10 -5 0 -9 5 -9 10 0 6 7 10 16 10 8 0 12 -4 9 -10z"/>
<path d="M11723 9363 c-7 -3 -13 -16 -13 -29 l0 -24 101 4 c55 2 103 6 106 9
19 19 -155 55 -194 40z"/>
<path d="M11735 9280 c-4 -7 2 -21 14 -33 25 -25 95 -25 123 0 28 26 21 33
-29 32 -27 -1 -60 2 -74 6 -17 4 -29 2 -34 -5z"/>
<path d="M6418 5273 c7 -3 16 -2 19 1 4 3 -2 6 -13 5 -11 0 -14 -3 -6 -6z"/>
<path d="M13105 4280 c-3 -5 -1 -10 4 -10 6 0 11 5 11 10 0 6 -2 10 -4 10 -3
0 -8 -4 -11 -10z"/>
<path d="M14818 4343 c6 -2 18 -2 25 0 6 3 1 5 -13 5 -14 0 -19 -2 -12 -5z"/>
<path d="M14241 1584 c0 -11 3 -14 6 -6 3 7 2 16 -1 19 -3 4 -6 -2 -5 -13z"/>
<path d="M16065 2490 c-3 -5 -1 -10 4 -10 6 0 11 5 11 10 0 6 -2 10 -4 10 -3
0 -8 -4 -11 -10z"/>
<path d="M17197 1774 c-11 -11 3 -24 18 -18 8 4 12 10 9 15 -6 11 -18 12 -27
3z"/>
<path d="M14142 1429 c2 -6 8 -10 13 -10 5 0 11 4 13 10 2 6 -4 11 -13 11 -9
0 -15 -5 -13 -11z"/>
<path d="M16228 10680 c2 -22 6 -40 8 -40 2 0 4 18 4 40 0 22 -3 40 -8 40 -4
0 -6 -18 -4 -40z"/>
<path d="M16391 10574 c0 -11 3 -14 6 -6 3 7 2 16 -1 19 -3 4 -6 -2 -5 -13z"/>
<path d="M16640 10359 c0 -52 24 -48 28 4 2 28 -1 37 -12 37 -12 0 -16 -11
-16 -41z"/>
<path d="M16640 9955 c0 -19 5 -35 10 -35 6 0 10 16 10 35 0 19 -4 35 -10 35
-5 0 -10 -16 -10 -35z"/>
<path d="M12241 9009 c-1 -33 5 -54 23 -78 13 -18 27 -47 30 -66 4 -19 12 -37
18 -41 7 -5 9 4 4 30 -4 23 -3 36 4 36 20 0 9 27 -24 61 -19 19 -39 50 -44 69
l-10 35 -1 -46z"/>
<path d="M4437 8796 c-21 -13 -45 -34 -55 -47 -9 -13 -21 -29 -27 -36 -5 -6
-20 -27 -33 -45 -13 -18 -54 -76 -93 -128 -38 -52 -79 -110 -91 -128 -13 -18
-39 -54 -59 -80 -32 -41 -81 -118 -139 -217 -90 -153 -177 -297 -200 -330 -29
-44 -59 -100 -113 -215 -61 -130 -128 -272 -167 -355 -21 -44 -57 -125 -80
-180 -22 -55 -45 -109 -50 -120 -116 -257 -136 -324 -111 -364 10 -15 60 -25
216 -41 146 -16 504 -75 945 -155 74 -14 166 -29 204 -35 38 -6 73 -13 76 -15
26 -16 251 -43 539 -65 131 -10 135 -10 157 11 28 26 69 111 78 160 3 21 0 90
-8 155 -8 66 -19 202 -25 304 -6 102 -16 262 -21 355 -13 217 -13 870 0 955 6
36 13 151 16 255 l6 190 -29 32 c-41 47 -168 90 -347 119 -100 16 -422 44
-501 43 -33 -1 -63 -8 -88 -23z m398 -40 c50 -8 122 -22 160 -31 39 -9 94 -21
124 -26 30 -6 69 -16 85 -23 17 -8 47 -19 66 -26 76 -28 74 -19 66 -265 -18
-604 -18 -807 0 -1055 17 -242 20 -359 10 -387 -9 -22 -66 11 -66 38 0 12 -11
64 -25 116 -14 52 -37 179 -51 282 -25 182 -26 194 -19 551 11 565 11 551 -7
585 -48 89 -379 164 -700 158 -113 -2 -118 3 -58 60 l40 37 142 0 c79 0 184
-7 233 -14z m50 -1689 c120 -20 171 -30 180 -37 6 -4 22 -10 38 -14 31 -7 34
-24 11 -68 l-16 -31 -96 7 c-128 8 -183 16 -207 29 -13 8 -117 12 -305 14
-157 1 -295 5 -307 9 -13 3 -23 14 -23 25 0 37 80 63 230 73 71 4 456 -1 495
-7z"/>
<path d="M12321 8784 c0 -11 3 -14 6 -6 3 7 2 16 -1 19 -3 4 -6 -2 -5 -13z"/>
<path d="M10888 8760 c-39 -21 -57 -40 -37 -40 13 0 99 48 99 55 0 10 -26 3
-62 -15z"/>
<path d="M11724 8730 c3 -17 18 -57 33 -89 25 -54 30 -59 54 -54 15 3 30 0 33
-6 4 -6 15 -11 24 -11 9 0 -7 15 -36 32 -28 18 -52 38 -52 45 0 7 -4 21 -9 31
-5 9 -15 32 -21 50 -16 41 -35 42 -26 2z"/>
<path d="M18740 8740 c14 -11 28 -20 33 -20 4 0 7 -5 7 -10 0 -6 -15 -13 -32
-17 -32 -7 -32 -7 -8 -13 18 -4 25 -13 25 -30 0 -27 23 -39 36 -19 23 36 -27
129 -69 129 -13 0 -12 -5 8 -20z"/>
<path d="M12316 8724 c-3 -9 -6 -23 -6 -31 0 -13 3 -13 15 -3 16 13 21 50 6
50 -5 0 -12 -7 -15 -16z"/>
<path d="M11910 8704 c0 -10 3 -14 6 -11 4 4 20 -3 35 -14 31 -22 69 -18 69 6
0 14 -12 19 -72 30 -32 5 -38 3 -38 -11z"/>
<path d="M12567 8702 c-25 -27 -21 -47 4 -23 12 11 19 25 17 31 -2 7 -10 5
-21 -8z"/>
<path d="M18881 8693 c0 -7 -8 -10 -16 -7 -9 4 -15 0 -15 -10 0 -10 6 -13 15
-10 9 4 15 0 15 -9 0 -8 -5 -17 -10 -19 -7 -2 -8 -19 -4 -47 5 -33 9 -39 16
-27 10 18 38 22 38 6 0 -5 5 -10 11 -10 6 0 9 10 7 23 -2 12 -8 22 -15 22 -19
0 -26 13 -34 58 -3 23 -7 37 -8 30z"/>
<path d="M12505 8640 c-8 -16 -15 -40 -15 -55 0 -15 -6 -25 -15 -25 -23 0 -98
41 -118 64 -17 21 -17 21 -32 2 -21 -27 -21 -53 0 -36 9 7 17 11 19 9 11 -11
9 -89 -3 -102 -9 -12 -10 -25 -2 -54 22 -76 53 -240 57 -303 9 -126 19 -169
35 -153 8 8 6 36 -5 94 -26 142 -49 310 -53 397 -4 75 -3 82 14 82 10 0 34
-13 53 -30 19 -16 40 -29 46 -30 6 0 14 20 17 44 4 24 13 62 20 85 17 47 5 55
-18 11z"/>
<path d="M12234 8629 c-19 -21 -19 -21 9 -8 15 7 27 16 27 21 0 14 -16 9 -36
-13z"/>
<path d="M16480 8624 c0 -14 3 -14 15 -4 8 7 15 14 15 16 0 2 -7 4 -15 4 -8 0
-15 -7 -15 -16z"/>
<path d="M16490 8600 c-9 -6 -10 -10 -3 -10 6 0 15 5 18 10 8 12 4 12 -15 0z"/>
<path d="M11666 8592 c-3 -5 5 -26 19 -46 39 -57 56 -96 49 -107 -4 -7 -16 0
-30 17 -13 16 -23 24 -24 17 0 -6 12 -25 28 -41 43 -45 62 -75 62 -94 0 -31
16 -19 28 21 16 51 16 54 -10 84 -13 14 -33 40 -46 59 -58 84 -70 99 -76 90z"/>
<path d="M18340 8583 c0 -14 23 -69 51 -125 5 -10 9 -32 9 -50 -1 -30 -2 -31
-14 -15 -21 27 -35 21 -27 -10 5 -18 15 -29 30 -31 12 -2 25 -10 28 -18 3 -8
10 -14 16 -14 6 0 20 -9 32 -20 19 -18 26 -19 49 -9 14 7 26 20 26 31 0 12 7
18 23 18 47 1 89 59 61 87 -8 9 -12 23 -9 31 3 8 0 19 -7 23 -9 6 -9 11 1 23
17 20 2 20 -23 1 -10 -8 -24 -11 -30 -8 -6 4 -5 0 2 -9 10 -13 10 -18 1 -24
-7 -4 -15 -2 -17 4 -2 7 -17 12 -34 12 -24 0 -28 3 -19 13 6 7 9 28 8 45 -2
35 -20 44 -114 55 -34 4 -43 2 -43 -10z"/>
<path d="M11898 8573 c7 -3 16 -2 19 1 4 3 -2 6 -13 5 -11 0 -14 -3 -6 -6z"/>
<path d="M11947 8560 c12 -5 34 -5 50 0 24 7 21 8 -22 9 -38 0 -45 -2 -28 -9z"/>
<path d="M18198 8550 c-52 -6 -64 -13 -53 -30 6 -9 9 -9 15 0 5 8 15 10 26 6
15 -6 16 -9 4 -16 -11 -7 -8 -10 13 -15 14 -4 25 -12 24 -19 -1 -6 4 -10 11
-8 7 1 30 -7 52 -18 22 -11 40 -19 40 -16 0 19 -44 96 -55 96 -8 0 -18 6 -22
13 -6 8 -23 11 -55 7z m69 -66 c-3 -3 -12 -4 -19 -1 -8 3 -5 6 6 6 11 1 17 -2
13 -5z"/>
<path d="M11817 8504 c7 -45 19 -64 40 -64 22 0 8 49 -22 79 l-24 25 6 -40z"/>
<path d="M12178 8517 c-29 -11 -38 -27 -15 -27 29 0 57 13 57 26 0 16 -4 16
-42 1z"/>
<path d="M11927 8479 c6 -6 45 -13 85 -15 88 -5 65 10 -32 20 -50 6 -62 5 -53
-5z"/>
<path d="M19025 8470 c3 -5 10 -10 16 -10 5 0 9 5 9 10 0 6 -7 10 -16 10 -8 0
-12 -4 -9 -10z"/>
<path d="M18983 8458 c-8 -10 -8 -18 2 -31 15 -21 26 -3 16 26 -6 16 -9 17
-18 5z"/>
<path d="M19087 8443 c-15 -14 -7 -43 12 -43 14 0 17 6 13 25 -4 25 -13 31
-25 18z"/>
<path d="M18640 8385 c0 -8 2 -15 4 -15 2 0 6 7 10 15 3 8 1 15 -4 15 -6 0
-10 -7 -10 -15z"/>
<path d="M18685 8315 c-3 -14 -7 -35 -10 -48 -2 -12 0 -28 4 -36 17 -26 30 0
28 54 -2 58 -13 73 -22 30z"/>
<path d="M10702 8294 c10 -10 20 -15 24 -12 3 4 -5 12 -18 18 -22 12 -22 12
-6 -6z"/>
<path d="M12527 8277 c-3 -9 -9 -40 -13 -68 -5 -40 -4 -55 8 -63 8 -6 17 -34
20 -66 6 -62 2 -80 -17 -80 -16 0 -25 22 -26 63 -1 56 -17 0 -18 -63 -2 -70
-15 -96 -30 -57 -12 30 -31 28 -31 -4 0 -10 -3 -19 -7 -19 -5 0 -9 -18 -10
-40 -1 -35 2 -40 22 -40 26 0 51 -47 41 -77 -4 -10 -38 -33 -76 -51 -46 -22
-67 -37 -64 -46 3 -8 1 -17 -5 -21 -6 -3 -11 -16 -11 -28 0 -16 3 -18 9 -9 4
8 17 13 27 12 47 -5 74 1 74 16 0 8 5 12 10 9 6 -3 10 -13 10 -20 0 -16 -57
-85 -70 -85 -13 0 -110 -95 -110 -108 0 -7 12 -10 30 -7 17 2 30 -1 30 -7 0
-6 6 -6 15 2 8 7 15 20 15 28 0 13 2 13 13 -3 10 -12 16 -14 21 -7 4 7 18 12
31 12 12 0 26 7 29 16 8 20 26 8 26 -17 0 -35 -42 -95 -60 -84 -5 3 -10 0 -10
-8 0 -25 -27 -38 -82 -40 -48 -2 -53 0 -56 21 -2 12 -7 20 -11 18 -4 -3 -7 13
-7 34 1 22 -2 40 -5 40 -12 0 -36 116 -28 137 4 12 20 23 38 26 27 6 30 9 22
29 -5 13 -16 23 -25 23 -9 0 -21 6 -25 13 -5 8 -12 14 -17 14 -18 0 -31 14
-37 38 -3 14 -10 41 -15 60 -9 32 -10 33 -11 8 -1 -15 4 -50 10 -79 9 -39 8
-57 -1 -75 -11 -19 -10 -27 2 -46 47 -75 116 -348 133 -528 4 -38 15 -78 26
-97 20 -32 20 -34 3 -63 -18 -30 -44 -41 -44 -18 0 11 -58 108 -71 118 -7 6
-16 43 -29 115 -4 28 -13 61 -18 75 -13 31 -5 -101 8 -140 5 -14 11 -38 15
-54 3 -16 17 -43 30 -60 30 -40 77 -156 70 -174 -3 -7 9 -25 25 -39 27 -22 44
-63 21 -48 -5 3 -13 0 -17 -6 -7 -12 -106 -5 -147 10 -43 16 -77 21 -77 12 0
-4 32 -19 70 -31 39 -13 68 -25 66 -27 -6 -7 -175 16 -201 26 -11 5 -33 14
-48 20 -34 13 -67 14 -67 2 0 -12 108 -53 120 -46 5 3 21 0 37 -6 39 -15 235
-39 305 -37 48 1 58 5 58 19 0 10 -9 19 -22 21 -34 5 -31 23 7 37 40 14 55 9
55 -20 0 -27 39 -25 67 5 26 27 19 44 -8 20 -17 -16 -49 -13 -49 3 0 4 14 17
30 28 16 11 30 25 30 31 0 13 -48 25 -55 14 -7 -12 -84 -50 -100 -50 -15 0
-38 34 -29 43 3 3 -4 10 -15 17 -30 15 -20 48 46 148 59 88 79 104 57 45 -17
-50 -17 -63 1 -63 8 0 15 9 15 19 0 11 5 23 10 26 6 3 10 17 10 30 0 14 17 40
45 68 28 28 43 51 39 60 -3 8 4 46 16 84 25 78 21 178 -8 213 -17 19 -17 19
-45 -5 -31 -27 -81 -130 -71 -146 4 -7 15 -3 28 8 29 26 75 48 82 40 4 -3 3
-18 0 -33 -5 -19 -12 -25 -26 -21 -11 3 -26 -3 -35 -13 -10 -11 -25 -15 -41
-12 -28 5 -43 -9 -75 -75 -23 -46 -20 -77 6 -67 8 3 15 10 15 16 0 5 4 6 10 3
5 -3 20 1 34 10 19 12 26 13 32 4 7 -12 -23 -43 -90 -91 l-29 -22 6 26 c6 22
4 25 -17 21 -32 -6 -39 14 -42 120 -2 81 -1 87 18 87 24 0 98 40 98 53 0 5 9
20 20 34 11 14 20 35 20 47 0 11 12 46 26 76 25 54 26 55 38 31 7 -13 15 -20
18 -15 6 9 -15 136 -35 214 -16 65 -21 200 -7 200 6 0 14 10 19 23 9 22 9 21
21 -8 26 -67 37 -81 72 -98 34 -17 43 -17 144 -3 60 8 110 13 112 11 3 -2 7
-24 9 -50 3 -25 8 -45 12 -45 3 0 16 23 28 50 l21 49 -21 -2 c-34 -3 -22 29
29 82 39 41 44 51 44 94 0 54 -16 56 -26 3 -8 -43 -40 -96 -58 -96 -21 0 -25
35 -9 82 22 61 41 158 33 163 -4 2 -13 -20 -19 -51 -11 -48 -15 -54 -33 -49
-14 5 -21 1 -25 -14 -9 -34 -58 -51 -146 -51 -74 0 -79 1 -74 20 3 12 -1 21
-12 25 -17 5 -35 58 -45 130 -9 65 -42 160 -49 142z m103 -377 c0 -10 -31 -23
-38 -15 -8 7 19 35 29 29 5 -3 9 -9 9 -14z m180 -9 c0 -16 -6 -31 -12 -34 -22
-8 -48 13 -48 38 0 21 5 25 30 25 26 0 30 -3 30 -29z m-316 -287 c5 -16 0 -23
-20 -33 -32 -14 -39 -10 -25 16 5 10 12 27 16 37 6 22 19 13 29 -20z"/>
<path d="M18226 8252 c-8 -13 11 -35 23 -28 6 4 11 11 11 16 0 11 -28 21 -34
12z"/>
<path d="M12851 8193 c0 -36 3 -43 9 -28 12 28 12 75 0 75 -5 0 -10 -21 -9
-47z"/>
<path d="M18445 8231 c-3 -6 -15 -11 -25 -11 -11 0 -37 -17 -60 -38 -22 -22
-40 -35 -40 -30 0 14 -49 -26 -50 -40 0 -8 3 -12 8 -10 71 33 102 50 102 59 0
6 7 9 15 6 8 -4 17 -2 21 4 3 5 14 7 24 4 26 -8 43 24 25 48 -8 12 -15 14 -20
8z"/>
<path d="M12997 8173 c-4 -21 -2 -42 3 -47 7 -7 10 7 10 37 0 57 -5 60 -13 10z"/>
<path d="M18195 8160 c-3 -5 -1 -10 4 -10 6 0 11 5 11 10 0 6 -2 10 -4 10 -3
0 -8 -4 -11 -10z"/>
<path d="M12030 8155 c0 -5 5 -17 10 -25 5 -8 10 -10 10 -5 0 6 -5 17 -10 25
-5 8 -10 11 -10 5z"/>
<path d="M18441 8116 c-7 -8 -9 -21 -5 -27 5 -9 10 -5 16 11 10 28 5 36 -11
16z"/>
<path d="M11911 8094 c0 -11 3 -14 6 -6 3 7 2 16 -1 19 -3 4 -6 -2 -5 -13z"/>
<path d="M18391 8063 c0 -12 -10 -27 -21 -33 -25 -13 -28 -53 -3 -48 18 3 37
59 30 86 -3 12 -5 10 -6 -5z"/>
<path d="M16800 7897 c0 -112 2 -134 15 -134 12 0 15 20 15 119 l0 118 25 0
c16 0 25 6 25 15 0 11 -11 15 -40 15 l-40 0 0 -133z"/>
<path d="M12102 7945 c0 -16 2 -22 5 -12 2 9 2 23 0 30 -3 6 -5 -1 -5 -18z"/>
<path d="M13051 7934 c0 -11 3 -14 6 -6 3 7 2 16 -1 19 -3 4 -6 -2 -5 -13z"/>
<path d="M18338 7923 c7 -3 16 -2 19 1 4 3 -2 6 -13 5 -11 0 -14 -3 -6 -6z"/>
<path d="M13010 7885 c-7 -9 -11 -17 -8 -20 2 -2 12 4 21 15 9 11 13 20 8 20
-5 0 -14 -7 -21 -15z"/>
<path d="M12950 7828 c0 -7 3 -24 7 -37 6 -22 6 -22 19 9 18 41 18 40 -6 40
-11 0 -20 -6 -20 -12z"/>
<path d="M12956 7743 c-6 -14 -5 -15 5 -6 7 7 10 15 7 18 -3 3 -9 -2 -12 -12z"/>
<path d="M16620 7720 c0 -5 5 -10 10 -10 6 0 10 5 10 10 0 6 -4 10 -10 10 -5
0 -10 -4 -10 -10z"/>
<path d="M12231 7504 c0 -11 3 -14 6 -6 3 7 2 16 -1 19 -3 4 -6 -2 -5 -13z"/>
<path d="M12887 7513 c-4 -3 -7 -11 -7 -17 0 -6 5 -5 12 2 6 6 9 14 7 17 -3 3
-9 2 -12 -2z"/>
<path d="M17020 7400 c0 -5 5 -10 10 -10 6 0 10 5 10 10 0 6 -4 10 -10 10 -5
0 -10 -4 -10 -10z"/>
<path d="M12290 7390 c0 -5 5 -10 10 -10 6 0 10 5 10 10 0 6 -4 10 -10 10 -5
0 -10 -4 -10 -10z"/>
<path d="M11630 7335 c13 -14 26 -23 28 -20 7 7 -29 45 -41 45 -6 0 0 -11 13
-25z"/>
<path d="M11566 7332 c-8 -13 27 -65 38 -55 3 3 6 -5 6 -18 0 -21 31 -69 45
-69 2 0 0 13 -5 29 -9 33 -39 81 -50 81 -4 0 -11 10 -17 22 -6 15 -12 18 -17
10z"/>
<path d="M12102 7300 c0 -14 2 -19 5 -12 2 6 2 18 0 25 -3 6 -5 1 -5 -13z"/>
<path d="M11525 7290 c-3 -5 -2 -10 3 -10 6 0 18 -19 28 -42 17 -41 18 -42 22
-15 2 16 -3 34 -12 43 -9 8 -16 20 -16 25 0 12 -17 12 -25 -1z"/>
<path d="M11977 7234 c-19 -58 -16 -104 9 -125 8 -6 14 -17 14 -24 0 -17 70
-86 81 -80 16 10 10 27 -24 69 -51 63 -60 84 -54 135 9 75 -5 89 -26 25z"/>
<path d="M16990 7210 c0 -5 5 -10 10 -10 6 0 10 5 10 10 0 6 -4 10 -10 10 -5
0 -10 -4 -10 -10z"/>
<path d="M17628 7203 c7 -3 16 -2 19 1 4 3 -2 6 -13 5 -11 0 -14 -3 -6 -6z"/>
<path d="M12616 7184 c-9 -24 -7 -28 9 -14 17 14 20 30 6 30 -5 0 -12 -7 -15
-16z"/>
<path d="M11660 7171 c0 -6 5 -13 11 -16 6 -4 8 -13 5 -21 -3 -8 1 -14 9 -14
18 0 18 2 3 35 -11 25 -28 34 -28 16z"/>
<path d="M458 7153 c7 -3 16 -2 19 1 4 3 -2 6 -13 5 -11 0 -14 -3 -6 -6z"/>
<path d="M17540 7136 c0 -18 58 -32 72 -18 6 6 7 16 2 23 -5 9 -9 8 -15 -7 -7
-17 -8 -17 -8 -1 -1 21 -51 24 -51 3z"/>
<path d="M11760 7128 c0 -4 4 -8 9 -8 5 0 16 -3 25 -6 11 -4 16 -1 16 10 0 11
-8 15 -25 14 -14 -1 -25 -6 -25 -10z"/>
<path d="M11700 7088 c0 -18 18 -34 28 -24 3 4 -2 14 -11 23 -16 16 -17 16
-17 1z"/>
<path d="M17280 7075 c0 -11 11 -15 40 -15 29 0 40 4 40 15 0 11 -11 15 -40
15 -29 0 -40 -4 -40 -15z"/>
<path d="M12988 7043 c12 -2 32 -2 45 0 12 2 2 4 -23 4 -25 0 -35 -2 -22 -4z"/>
<path d="M17600 7030 c0 -5 5 -10 11 -10 5 0 7 5 4 10 -3 6 -8 10 -11 10 -2 0
-4 -4 -4 -10z"/>
<path d="M13265 7000 c3 -5 8 -10 11 -10 2 0 4 5 4 10 0 6 -5 10 -11 10 -5 0
-7 -4 -4 -10z"/>
<path d="M11200 6970 c0 -5 5 -10 11 -10 5 0 7 5 4 10 -3 6 -8 10 -11 10 -2 0
-4 -4 -4 -10z"/>
<path d="M12578 6952 c-25 -15 -39 -42 -22 -42 13 0 74 42 74 51 0 14 -22 10
-52 -9z"/>
<path d="M11855 6950 c3 -5 8 -10 11 -10 2 0 4 5 4 10 0 6 -5 10 -11 10 -5 0
-7 -4 -4 -10z"/>
<path d="M13700 6900 c6 -11 17 -20 25 -20 13 0 13 3 3 20 -7 11 -19 20 -26
20 -10 0 -10 -5 -2 -20z"/>
<path d="M11318 6883 c7 -3 16 -2 19 1 4 3 -2 6 -13 5 -11 0 -14 -3 -6 -6z"/>
<path d="M11945 6880 c3 -5 11 -10 16 -10 6 0 7 5 4 10 -3 6 -11 10 -16 10 -6
0 -7 -4 -4 -10z"/>
<path d="M6320 6864 c0 -8 5 -12 10 -9 6 3 10 10 10 16 0 5 -4 9 -10 9 -5 0
-10 -7 -10 -16z"/>
<path d="M11990 6855 c1 -17 50 -47 66 -41 21 8 8 26 -20 26 -12 0 -27 5 -34
12 -7 7 -12 8 -12 3z"/>
<path d="M12427 6807 c-4 -31 5 -47 31 -47 6 0 12 9 12 20 0 11 -4 20 -10 20
-5 0 -10 6 -10 14 0 30 -18 25 -23 -7z"/>
<path d="M11241 6756 c12 -80 11 -118 -3 -110 -6 4 -8 3 -5 -4 4 -5 16 -8 26
-5 24 6 33 59 14 78 -7 8 -13 29 -13 48 0 20 -6 37 -13 40 -10 4 -12 -6 -6
-47z"/>
<path d="M1320 6790 c0 -5 4 -10 9 -10 6 0 13 5 16 10 3 6 -1 10 -9 10 -9 0
-16 -4 -16 -10z"/>
<path d="M17400 6790 c0 -5 5 -10 10 -10 6 0 10 5 10 10 0 6 -4 10 -10 10 -5
0 -10 -4 -10 -10z"/>
<path d="M17448 6793 c7 -3 16 -2 19 1 4 3 -2 6 -13 5 -11 0 -14 -3 -6 -6z"/>
<path d="M17525 6793 c-11 -3 -25 -11 -31 -18 -6 -8 -22 -19 -36 -24 -20 -7
-28 -19 -33 -50 -7 -44 -18 -51 -35 -23 -9 13 -10 9 -6 -22 7 -53 24 -68 65
-60 25 5 31 11 29 28 -2 11 5 29 14 38 25 25 34 68 17 79 -8 5 -9 9 -3 9 5 0
19 -7 30 -15 23 -17 43 -20 26 -3 -17 17 -15 39 6 54 16 13 16 13 -3 13 -11
-1 -29 -3 -40 -6z"/>
<path d="M1287 6745 c-10 -14 -15 -30 -12 -35 3 -6 -1 -13 -9 -16 -23 -9 -20
-23 4 -17 11 3 20 13 20 23 0 10 7 25 15 34 16 15 20 36 8 36 -5 0 -16 -12
-26 -25z"/>
<path d="M11201 6734 c0 -11 3 -14 6 -6 3 7 2 16 -1 19 -3 4 -6 -2 -5 -13z"/>
<path d="M17120 6740 c0 -5 4 -10 9 -10 6 0 13 5 16 10 3 6 -1 10 -9 10 -9 0
-16 -4 -16 -10z"/>
<path d="M11075 6731 c-3 -5 -1 -12 5 -16 12 -7 30 2 30 16 0 12 -27 12 -35 0z"/>
<path d="M11040 6695 c0 -8 7 -15 15 -15 8 0 15 4 15 9 0 5 -7 11 -15 15 -9 3
-15 0 -15 -9z"/>
<path d="M17026 6683 c-3 -4 -6 -15 -6 -25 0 -13 7 -18 25 -18 14 0 25 6 25
13 0 14 -35 39 -44 30z"/>
<path d="M17602 6660 c0 -14 2 -19 5 -12 2 6 2 18 0 25 -3 6 -5 1 -5 -13z"/>
<path d="M1230 6635 c0 -8 5 -15 10 -15 6 0 10 -9 10 -20 0 -25 -18 -26 -36
-2 -12 15 -13 15 -14 1 0 -20 17 -34 51 -42 26 -7 26 -6 26 43 0 46 -2 50 -23
50 -15 0 -24 -6 -24 -15z"/>
<path d="M10373 6635 c-3 -9 -3 -19 1 -22 3 -4 6 1 6 10 0 8 6 18 13 20 9 4 9
6 -1 6 -7 1 -15 -6 -19 -14z"/>
<path d="M11127 6623 c6 -15 33 -18 33 -4 0 5 8 11 18 14 9 2 1 4 -19 3 -25
-1 -35 -5 -32 -13z"/>
<path d="M11180 6597 c-12 -20 -12 -21 2 -9 13 10 17 10 21 0 4 -9 6 -7 6 4 1
26 -14 29 -29 5z"/>
<path d="M8867 6573 c-12 -11 -7 -40 9 -53 21 -18 106 -30 122 -18 17 15 15
42 -6 61 -19 17 -111 24 -125 10z"/>
<path d="M11225 6570 c-3 -5 2 -10 12 -10 11 0 24 -5 31 -12 9 -9 12 -8 12 4
0 24 -43 38 -55 18z"/>
<path d="M17505 6570 c-3 -5 -1 -10 4 -10 6 0 11 5 11 10 0 6 -2 10 -4 10 -3
0 -8 -4 -11 -10z"/>
<path d="M17706 6571 c-3 -5 5 -11 19 -13 20 -4 23 -3 14 8 -13 16 -25 18 -33
5z"/>
<path d="M1155 6561 c-3 -5 -1 -12 5 -16 5 -3 10 1 10 9 0 18 -6 21 -15 7z"/>
<path d="M12430 6561 c0 -5 5 -13 10 -16 6 -3 10 -2 10 4 0 5 -4 13 -10 16 -5
3 -10 2 -10 -4z"/>
<path d="M11241 6527 c2 -1 11 -8 20 -15 13 -10 18 -10 22 1 3 8 -4 14 -21 15
-14 1 -24 1 -21 -1z"/>
<path d="M17416 6504 c-18 -18 -18 -19 -2 -22 22 -5 29 2 24 24 -3 16 -4 16
-22 -2z"/>
<path d="M11900 6502 c0 -8 43 -32 57 -32 3 0 -2 9 -12 20 -18 20 -45 27 -45
12z"/>
<path d="M12482 6503 c2 -4 10 -20 17 -36 13 -24 12 -32 -10 -78 -13 -29 -35
-59 -49 -68 -14 -9 -33 -23 -43 -32 -17 -16 -17 -17 3 -22 14 -4 20 -13 20
-34 0 -27 49 -152 61 -153 5 0 -8 66 -30 155 -8 35 21 85 50 85 20 0 33 45 30
100 -2 50 -8 63 -32 78 -12 8 -19 10 -17 5z"/>
<path d="M11347 6494 c-11 -11 3 -24 18 -18 8 4 12 10 9 15 -6 11 -18 12 -27
3z"/>
<path d="M12578 6478 c-8 -13 -19 -34 -23 -48 l-7 -25 20 24 c22 24 37 59 29
67 -2 3 -11 -6 -19 -18z"/>
<path d="M17520 6465 c0 -8 2 -15 4 -15 2 0 6 7 10 15 3 8 1 15 -4 15 -6 0
-10 -7 -10 -15z"/>
<path d="M12014 6435 c22 -17 36 -19 36 -6 0 10 -24 21 -43 21 -7 0 -3 -7 7
-15z"/>
<path d="M1390 6360 c0 -5 5 -10 10 -10 6 0 10 5 10 10 0 6 -4 10 -10 10 -5 0
-10 -4 -10 -10z"/>
<path d="M12327 6283 c-14 -13 -6 -23 18 -23 28 0 34 15 9 24 -19 7 -19 7 -27
-1z"/>
<path d="M12548 6263 c-15 -4 -18 -16 -18 -70 0 -47 3 -64 13 -60 6 2 13 19
13 38 1 19 5 49 9 67 4 17 6 31 4 31 -2 -1 -12 -3 -21 -6z"/>
<path d="M12494 6079 c-4 -7 -8 -28 -9 -48 -2 -20 -6 -58 -10 -85 -6 -36 -5
-47 4 -42 6 4 11 18 11 30 0 13 7 29 15 36 10 8 15 31 15 66 0 51 -10 68 -26
43z"/>
<path d="M12614 6027 c3 -10 6 -34 6 -53 0 -19 4 -34 9 -34 12 0 4 81 -10 94
-9 8 -10 7 -5 -7z"/>
<path d="M12430 5963 c0 -21 -4 -45 -9 -53 -6 -8 -7 -18 -4 -23 8 -14 33 50
33 84 0 16 -4 29 -10 29 -5 0 -10 -17 -10 -37z"/>
<path d="M15695 5979 c-31 -19 -80 -25 -89 -11 -3 5 -27 6 -53 2 -26 -4 -61
-4 -77 1 -37 11 -36 11 -36 1 0 -8 23 -22 150 -89 132 -70 195 -105 237 -134
24 -16 48 -29 52 -29 4 0 27 -14 50 -30 23 -17 53 -35 67 -40 13 -5 24 -14 24
-20 0 -5 5 -10 10 -10 6 0 18 -8 29 -17 10 -10 38 -29 62 -43 90 -53 296 -196
352 -245 9 -8 20 -15 23 -15 9 0 148 -101 156 -113 3 -6 14 -12 23 -13 10 -1
30 -14 44 -28 15 -14 30 -26 34 -26 17 0 132 -128 201 -224 37 -51 69 -81 74
-68 5 15 44 16 59 1 11 -11 85 5 109 23 8 5 14 1 17 -13 5 -18 11 -21 37 -16
26 6 32 3 40 -18 13 -35 34 -40 72 -17 31 18 35 19 70 3 20 -9 46 -28 57 -42
20 -24 20 -24 35 -4 8 11 16 28 16 37 0 24 36 32 62 14 28 -20 54 -20 62 -1 8
23 46 18 72 -10 13 -14 33 -25 44 -25 17 0 20 -4 15 -20 -8 -24 20 -29 29 -5
3 8 9 14 13 14 4 -1 16 1 26 6 9 4 26 5 37 2 10 -3 21 0 22 5 6 16 48 -9 48
-27 0 -8 6 -15 14 -15 8 0 17 -6 19 -12 4 -10 6 -10 6 0 1 6 8 12 16 12 8 0
15 6 15 14 0 9 15 14 53 15 28 0 65 3 81 7 26 5 28 4 24 -14 -7 -25 16 -37 32
-17 7 8 16 12 22 9 5 -3 16 0 25 7 13 11 17 10 28 -4 9 -13 14 -14 17 -5 4 10
16 9 60 -1 31 -8 61 -11 67 -7 7 5 11 -1 11 -13 0 -12 5 -21 10 -21 6 0 10 5
10 11 0 8 5 8 15 -1 12 -10 18 -10 30 0 8 7 15 8 15 4 0 -5 19 -15 42 -22 36
-11 44 -11 53 0 8 11 24 13 70 8 73 -8 95 -17 95 -39 1 -14 2 -14 11 2 14 24
43 21 63 -5 9 -13 13 -16 10 -6 -5 13 4 18 49 23 30 4 65 4 78 0 13 -5 40 -9
59 -10 19 -2 42 -4 50 -5 8 -2 30 -2 48 -2 l32 2 -2 533 -3 532 -40 -2 c-22
-1 -75 1 -119 4 -66 4 -79 8 -83 24 -6 23 -1 23 -57 -2 -28 -12 -55 -18 -64
-13 -9 3 -52 8 -94 10 -42 1 -94 7 -115 13 -21 6 -60 11 -86 11 -27 0 -57 5
-68 10 -10 6 -94 13 -186 15 -93 3 -194 10 -226 16 -42 9 -61 9 -69 1 -7 -7
-17 -8 -29 -2 -10 6 -20 6 -23 2 -8 -13 -112 -4 -153 13 -29 13 -72 17 -183
17 -80 0 -154 -1 -165 -3 -13 -3 -19 1 -17 9 2 9 -4 11 -18 7 -11 -4 -36 -1
-56 5 -26 9 -38 9 -48 0 -11 -8 -15 -8 -18 1 -3 9 -24 10 -86 3 -56 -7 -86 -6
-93 1 -8 7 -13 6 -16 -2 -3 -7 -11 -13 -19 -13 -8 0 -14 6 -14 13 0 9 -2 9 -9
-1 -7 -11 -9 -11 -14 2 -5 13 -25 16 -111 16 -65 0 -122 6 -148 14 -45 16
-132 20 -208 12 -25 -3 -72 2 -105 10 -33 8 -96 13 -140 12 -128 -4 -235 4
-235 16 0 6 -10 17 -22 25 -20 12 -24 11 -44 -12 -18 -21 -24 -23 -35 -12 -9
8 -52 15 -109 18 -80 5 -97 9 -111 26 -21 25 -25 25 -64 0z"/>
<path d="M12396 5961 c-4 -7 -5 -15 -2 -18 9 -9 19 4 14 18 -4 11 -6 11 -12 0z"/>
<path d="M12360 5904 c-11 -27 -13 -51 -5 -42 8 8 25 68 19 68 -2 0 -9 -12
-14 -26z"/>
<path d="M4351 5864 c0 -11 3 -14 6 -6 3 7 2 16 -1 19 -3 4 -6 -2 -5 -13z"/>
<path d="M12456 5865 c-9 -26 -7 -32 5 -12 6 10 9 21 6 23 -2 3 -7 -2 -11 -11z"/>
<path d="M4910 5855 c-10 -12 -10 -15 4 -15 9 0 16 7 16 15 0 8 -2 15 -4 15
-2 0 -9 -7 -16 -15z"/>
<path d="M5520 5850 c0 -5 5 -10 11 -10 5 0 7 5 4 10 -3 6 -8 10 -11 10 -2 0
-4 -4 -4 -10z"/>
<path d="M12386 5817 c-20 -53 -21 -68 -1 -40 22 31 35 72 26 77 -5 3 -16 -14
-25 -37z"/>
<path d="M12320 5820 c-6 -12 -9 -24 -7 -27 3 -2 11 5 17 17 6 12 9 24 7 27
-3 2 -11 -5 -17 -17z"/>
<path d="M11577 5776 c-4 -10 -1 -13 9 -9 15 6 19 23 5 23 -5 0 -11 -7 -14
-14z"/>
<path d="M12080 5771 c-14 -26 -13 -38 2 -23 7 7 21 12 33 12 12 0 26 5 33 12
8 8 15 9 22 2 6 -6 1 -19 -15 -36 -30 -33 -31 -38 -4 -31 25 7 53 48 45 68 -9
24 -102 21 -116 -4z"/>
<path d="M6265 5770 c-4 -6 -3 -16 3 -22 6 -6 12 -6 17 2 4 6 3 16 -3 22 -6 6
-12 6 -17 -2z"/>
<path d="M11620 5745 c0 -8 7 -15 15 -15 8 0 15 7 15 15 0 8 -7 15 -15 15 -8
0 -15 -7 -15 -15z"/>
<path d="M11520 5740 c0 -5 5 -10 10 -10 6 0 10 5 10 10 0 6 -4 10 -10 10 -5
0 -10 -4 -10 -10z"/>
<path d="M12265 5731 c-6 -5 -34 -21 -62 -36 -53 -27 -70 -55 -34 -55 10 0 24
7 31 15 9 11 16 13 24 5 13 -13 56 34 56 62 0 20 -2 22 -15 9z"/>
<path d="M6305 5721 c-3 -5 -1 -12 5 -16 5 -3 10 1 10 9 0 18 -6 21 -15 7z"/>
<path d="M11660 5720 c0 -13 50 -33 59 -24 7 7 -28 34 -46 34 -7 0 -13 -5 -13
-10z"/>
<path d="M12097 5623 c-4 -3 -7 -11 -7 -17 0 -6 5 -5 12 2 6 6 9 14 7 17 -3 3
-9 2 -12 -2z"/>
<path d="M7200 5210 c0 -5 18 -10 40 -10 22 0 40 5 40 10 0 6 -18 10 -40 10
-22 0 -40 -4 -40 -10z"/>
<path d="M13200 5140 c0 -11 5 -20 10 -20 6 0 10 9 10 20 0 11 -4 20 -10 20
-5 0 -10 -9 -10 -20z"/>
<path d="M7470 5080 c0 -5 5 -10 11 -10 5 0 7 5 4 10 -3 6 -8 10 -11 10 -2 0
-4 -4 -4 -10z"/>
<path d="M13566 4995 c8 -37 12 -41 24 -29 5 5 1 19 -11 34 l-20 25 7 -30z"/>
<path d="M13360 4970 c0 -5 5 -10 11 -10 5 0 7 5 4 10 -3 6 -8 10 -11 10 -2 0
-4 -4 -4 -10z"/>
<path d="M17680 4790 c0 -5 7 -7 15 -4 8 4 15 8 15 10 0 2 -7 4 -15 4 -8 0
-15 -4 -15 -10z"/>
<path d="M17818 4693 c7 -3 16 -2 19 1 4 3 -2 6 -13 5 -11 0 -14 -3 -6 -6z"/>
<path d="M17397 4569 c-10 -11 -16 -23 -13 -26 8 -8 38 25 34 37 -2 6 -11 1
-21 -11z"/>
<path d="M17887 4573 c-4 -3 -7 -12 -7 -20 0 -17 26 -17 33 1 8 21 -11 35 -26
19z"/>
<path d="M17220 4456 c0 -2 8 -10 18 -17 15 -13 16 -12 3 4 -13 16 -21 21 -21
13z"/>
</g>
</svg>
